<?xml version="1.0" encoding="UTF-8"?>
<svg version="1.1" xmlns="http://www.w3.org/2000/svg" width="500" height="500">
<path d="M0 0 C24.3501688 -1.39545614 48.46987791 8.19961621 66.75 24 C67.84010395 24.99261498 68.92640225 25.98955506 70 27 C71.03125 26.195625 72.0625 25.39125 73.125 24.5625 C89.999411 12.01030655 107.93280878 2.85334418 129 0 C129.97582031 -0.22945312 130.95164062 -0.45890625 131.95703125 -0.6953125 C135.54618153 -1.23540351 137.56766837 -1.28603818 141 0 C145.4466474 4.85404005 148.22051095 11.09247639 151 17 C151.33 17.66 151.66 18.32 152 19 C152.31091419 26.32184299 151.43839261 33.31257786 150.390625 40.55078125 C150.1385025 42.31532906 150.1385025 42.31532906 149.88128662 44.11552429 C149.52498807 46.58770214 149.1650823 49.05936252 148.80175781 51.53051758 C148.24953587 55.31568132 147.72216382 59.10381075 147.1953125 62.89257812 C146.84527214 65.29970101 146.49376074 67.70661053 146.140625 70.11328125 C145.98627991 71.2455867 145.83193481 72.37789215 145.6729126 73.54450989 C145.51304871 74.59627914 145.35318481 75.6480484 145.18847656 76.73168945 C145.05523987 77.65496536 144.92200317 78.57824127 144.784729 79.52949524 C143.8206994 82.56447894 142.33002418 83.88166856 140 86 C138.75739168 88.35068512 138.75739168 88.35068512 137.875 90.875 C137.5346875 91.75414062 137.194375 92.63328125 136.84375 93.5390625 C135.90298842 96.09598413 135.90298842 96.09598413 135.375 99.25 C133.0864969 103.82700621 128.5555685 105.91787631 124 108 C121 108 121 108 117.375 106.4375 C112.01900581 104.37372242 107.36887399 104.77314628 102.015625 106.72265625 C97.08513294 109.15629656 95.28676544 112.24352789 93 117 C92.13117188 116.96519531 91.26234375 116.93039062 90.3671875 116.89453125 C81.75118068 116.59289189 81.75118068 116.59289189 74 120 C72.66666667 120.66666667 71.33333333 121.33333333 70 122 C68.824375 121.0409375 68.824375 121.0409375 67.625 120.0625 C63.44935645 116.78163721 61.17163081 116.88934881 55.875 116.9375 C54.59367187 116.94652344 53.31234375 116.95554687 51.9921875 116.96484375 C51.00476563 116.97644531 50.01734375 116.98804688 49 117 C48.46375 115.9275 47.9275 114.855 47.375 113.75 C45.15049113 109.93434937 43.0569098 107.95332694 39 106 C34.11351607 104.82885922 29.81605629 104.30699407 25.1875 106.5 C21.01551799 108.46328565 18.94057126 107.61522327 14.68359375 106.265625 C10.71324752 104.47033801 8.49770543 103.1638888 6.7421875 99.05859375 C6.1396012 96.87358546 5.6024242 94.66906233 5.14453125 92.44921875 C4.04379849 89.13199341 3.29380323 88.07192626 1.07446289 85.56982422 C-2.95298442 80.30245541 -3.52130233 74.88069544 -4.3359375 68.43359375 C-4.50501617 67.24073257 -4.67409485 66.0478714 -4.84829712 64.81886292 C-5.37951765 61.02777294 -5.8770832 57.23309131 -6.375 53.4375 C-6.73099583 50.8831732 -7.08904845 48.32913215 -7.44921875 45.77539062 C-11.02304614 19.97927112 -11.02304614 19.97927112 -7.8125 14.16015625 C-7.36132812 13.32548828 -6.91015625 12.49082031 -6.4453125 11.63085938 C-5.96835938 10.78330078 -5.49140625 9.93574219 -5 9.0625 C-4.52304688 8.18787109 -4.04609375 7.31324219 -3.5546875 6.41210938 C-2.38262253 4.26723047 -1.19767491 2.13065093 0 0 Z M22 13 C24.69027892 14.79351928 27.38353938 16.17443355 30.29443359 17.56347656 C52.47846844 28.21556183 52.47846844 28.21556183 56 36 C60.2600405 40.69941688 64.53065881 43.49935473 70.9375 43.9375 C78.95899768 43.49585544 83.5941851 38.4058149 89 33 C89 32.34 89 31.68 89 31 C91.19537023 29.31172082 93.37742708 27.7676316 95.6875 26.25 C96.36071289 25.80333984 97.03392578 25.35667969 97.72753906 24.89648438 C103.08487226 21.42213689 108.51559861 18.66994288 114.390625 16.15625 C117.15361421 15.02041125 117.15361421 15.02041125 120 13 C101.69177357 14.27731812 82.24550646 26.93812644 70 40 C69.29875 39.05125 68.5975 38.1025 67.875 37.125 C57.3745808 25.03730813 41.17635967 17.36102289 26 13 C24.68 13 23.36 13 22 13 Z M93 43.875 C91.9275 44.59429687 90.855 45.31359375 89.75 46.0546875 C87.01213118 47.87525662 87.01213118 47.87525662 85 50 C84.72123233 52.91487922 84.72123233 52.91487922 84.8046875 56.3203125 C84.81113281 57.57714844 84.81757813 58.83398438 84.82421875 60.12890625 C84.84097656 61.44761719 84.85773438 62.76632813 84.875 64.125 C84.88503017 65.46483721 84.89415596 66.80468152 84.90234375 68.14453125 C84.92597925 71.42986573 84.95892766 74.71484465 85 78 C85.33 78 85.66 78 86 78 C86.00821777 77.25951416 86.01643555 76.51902832 86.02490234 75.75610352 C86.46531576 53.19108158 86.46531576 53.19108158 90.25390625 48.375 C92.74333515 46.22981527 95.13969049 44.59936269 98 43 C99.75413959 41.4149762 99.75413959 41.4149762 101 40 C97.73166996 40 95.66066376 42.0777728 93 43.875 Z M84 82 C84 84.64 84 87.28 84 90 C84.33 90 84.66 90 85 90 C85 87.36 85 84.72 85 82 C84.67 82 84.34 82 84 82 Z " fill="#1D1D1D" transform="translate(179,189)"/>
<path d="M0 0 C0.73605469 0.00451172 1.47210938 0.00902344 2.23046875 0.01367188 C4.02868158 0.02534858 5.82685197 0.04327989 7.625 0.0625 C7.48390014 2.16698938 7.33695825 4.2710877 7.1875 6.375 C7.06568359 8.13263672 7.06568359 8.13263672 6.94140625 9.92578125 C6.625 13.0625 6.625 13.0625 5.625 16.0625 C5.32505024 18.91647744 5.05939049 21.76641451 4.8125 24.625 C3.93604989 34.13240533 2.55994001 43.52825035 1.03393555 52.95141602 C0.11268361 58.68004915 -0.64861993 64.34034022 -1.02294922 70.13305664 C-1.375 72.0625 -1.375 72.0625 -3.4375 73.875 C-4.8915625 74.4628125 -4.8915625 74.4628125 -6.375 75.0625 C-6.96667969 75.52914062 -7.55835938 75.99578125 -8.16796875 76.4765625 C-10.22654185 78.07904455 -11.900253 79.21974832 -14.375 80.0625 C-16.85046655 79.38097724 -18.82991293 78.30302928 -21.08203125 77.078125 C-25.59843233 75.07767478 -29.86194734 76.14055169 -34.35546875 77.7890625 C-39.2917899 80.20985965 -41.08950027 83.30866056 -43.375 88.0625 C-44.24382812 88.02769531 -45.11265625 87.99289062 -46.0078125 87.95703125 C-54.62381932 87.65539189 -54.62381932 87.65539189 -62.375 91.0625 C-63.70833333 91.72916667 -65.04166667 92.39583333 -66.375 93.0625 C-68.83081055 91.54492188 -68.83081055 91.54492188 -71.375 89.0625 C-71.89717301 86.29252782 -72.09711695 84.11607675 -72.08203125 81.34375 C-72.09719788 80.5807962 -72.1123645 79.81784241 -72.12799072 79.0317688 C-72.17145792 76.541715 -72.17990605 74.05289929 -72.1875 71.5625 C-72.21017649 69.8507213 -72.23484747 68.1389679 -72.26147461 66.42724609 C-72.33291703 61.30566664 -72.3571684 56.18450062 -72.375 51.0625 C-72.38312606 49.552407 -72.39157477 48.04231569 -72.40039062 46.53222656 C-72.44255856 38.70848778 -72.43243291 30.88613908 -72.375 23.0625 C-67.755 23.0625 -63.135 23.0625 -58.375 23.0625 C-58.045 43.5225 -57.715 63.9825 -57.375 85.0625 C-56.055 85.0625 -54.735 85.0625 -53.375 85.0625 C-53.39312744 84.258125 -53.41125488 83.45375 -53.42993164 82.625 C-53.5639175 71.45287631 -52.91615204 60.37111611 -52.05053711 49.23486328 C-51.89084394 47.1066038 -51.74484857 44.9772754 -51.61206055 42.84716797 C-51.41686589 39.72834351 -51.17987391 36.61515715 -50.93359375 33.5 C-50.88222763 32.55511719 -50.83086151 31.61023438 -50.77793884 30.63671875 C-50.23528062 24.55196722 -48.73472334 21.49121164 -44.13259888 17.43623352 C-41.7548552 15.57779686 -39.37697885 13.84393373 -36.8125 12.25 C-35.92433594 11.68667969 -35.03617187 11.12335938 -34.12109375 10.54296875 C-31.375 9.0625 -31.375 9.0625 -28.09765625 7.98828125 C-25.23650734 7.3712161 -25.23650734 7.3712161 -24.375 5.0625 C-22.30078125 4.02734375 -22.30078125 4.02734375 -19.6875 3 C-18.83800781 2.65839844 -17.98851562 2.31679687 -17.11328125 1.96484375 C-11.40271182 0.08304412 -5.9424772 -0.06984829 0 0 Z " fill="#01D6FA" transform="translate(315.375,217.9375)"/>
<path d="M0 0 C18.21716173 -0.81704878 35.63366725 4.10951511 51 14 C51.75659912 14.42611572 52.51319824 14.85223145 53.29272461 15.29125977 C57.00597212 17.6672535 59.55041645 19.45834008 60.81591797 23.79785156 C61.12511301 27.2906302 61.14168426 30.68181758 61.0625 34.1875 C61.07226975 36.15950536 61.08204188 38.13151072 61.09190369 40.10351562 C61.09379291 42.22394047 61.07335132 44.3431277 61.046875 46.46337891 C60.98855729 51.30282076 61.00748671 56.14083443 61.03125 60.98046875 C61.06713476 69.6540641 61.04866041 78.32646955 61 87 C56.05 87.495 56.05 87.495 51 88 C50.46375 86.9275 49.9275 85.855 49.375 84.75 C47.15049113 80.93434937 45.0569098 78.95332694 41 77 C36.11351607 75.82885922 31.81605629 75.30699407 27.1875 77.5 C23.00017349 79.47050659 20.88525679 78.673306 16.6484375 77.16015625 C13.36736377 75.57599522 10.74031755 74.19644869 8.7890625 71.04296875 C7.03219102 65.9376046 6.82554885 60.71343553 6.59375 55.36328125 C6.0939737 45.64565278 4.83111126 36.07054202 3.5 26.4375 C3.27154473 24.75203308 3.04367812 23.06648627 2.81640625 21.38085938 C2.40013998 18.29562847 1.97994064 15.21098162 1.55664062 12.12670898 C1.00586312 8.08825421 0.49878047 4.04518936 0 0 Z " fill="#02D6FA" transform="translate(177,218)"/>
<path d="M0 0 C2.39073445 3.82517513 2.55966552 7.59665524 3 12 C6.23793945 12.94036453 6.23793945 12.94036453 10 13 C12.99142283 10.97381051 12.99142283 10.97381051 15.4375 8.0625 C16.73494141 6.65677734 16.73494141 6.65677734 18.05859375 5.22265625 C18.69925781 4.48917969 19.33992188 3.75570312 20 3 C20.99 3.495 20.99 3.495 22 4 C21.6390625 4.77085938 21.278125 5.54171875 20.90625 6.3359375 C20.4421875 7.33882813 19.978125 8.34171875 19.5 9.375 C19.0359375 10.37273437 18.571875 11.37046875 18.09375 12.3984375 C16.8708127 14.83692626 16.8708127 14.83692626 17 17 C19.07216547 18.4181658 19.07216547 18.4181658 22 19 C24.77781084 18.0654591 27.18870271 16.57728982 29.6875 15.0625 C32.10213957 13.63765548 34.51156854 12.29869618 37 11 C37.99 11.495 37.99 11.495 39 12 C38.03835938 12.83402344 37.07671875 13.66804688 36.0859375 14.52734375 C34.84755212 15.66253035 33.61064907 16.79933554 32.375 17.9375 C31.41980469 18.75444336 31.41980469 18.75444336 30.4453125 19.58789062 C28.33198574 21.46397855 28.33198574 21.46397855 26 25 C26.99 29.455 26.99 29.455 28 34 C36.25 34 44.5 34 53 34 C52.505 34.99 52.505 34.99 52 36 C49.86694336 36.59423828 49.86694336 36.59423828 47.08984375 37.0703125 C46.10048828 37.24433594 45.11113281 37.41835937 44.09179688 37.59765625 C43.05087891 37.77167969 42.00996094 37.94570312 40.9375 38.125 C39.89271484 38.30675781 38.84792969 38.48851562 37.77148438 38.67578125 C35.18233973 39.12503923 32.59132954 39.56352094 30 40 C29.67 43.63 29.34 47.26 29 51 C30.01320313 51.60328125 31.02640625 52.2065625 32.0703125 52.828125 C33.42192277 53.63533669 34.77348259 54.44263286 36.125 55.25 C36.79015625 55.64574219 37.4553125 56.04148438 38.140625 56.44921875 C42.17262795 58.86051463 46.11339553 61.36049914 50 64 C48 65 48 65 46.00048828 64.47094727 C45.19853027 64.17244873 44.39657227 63.8739502 43.5703125 63.56640625 C42.69246094 63.24736328 41.81460938 62.92832031 40.91015625 62.59960938 C39.99105469 62.25736328 39.07195312 61.91511719 38.125 61.5625 C36.31725703 60.8913083 34.50742237 60.22571709 32.6953125 59.56640625 C31.89109863 59.26677979 31.08688477 58.96715332 30.25830078 58.65844727 C27.75203862 57.81339179 27.75203862 57.81339179 24 58 C22.73960764 59.48661663 21.48344043 60.97910329 20.3046875 62.53125 C18.50344064 64.55900096 16.5713898 65.2653172 14 66 C14 69.3 14 72.6 14 76 C9.52084672 76.02886338 5.04171709 76.04675187 0.5625 76.0625 C-0.71689453 76.07087891 -1.99628906 76.07925781 -3.31445312 76.08789062 C-4.52939453 76.09111328 -5.74433594 76.09433594 -6.99609375 76.09765625 C-8.12200928 76.10289307 -9.2479248 76.10812988 -10.40795898 76.11352539 C-13 76 -13 76 -14 75 C-14.07179964 73.48071962 -14.08392007 71.95832518 -14.0625 70.4375 C-14.05347656 69.61121094 -14.04445312 68.78492188 -14.03515625 67.93359375 C-14.02355469 67.29550781 -14.01195312 66.65742188 -14 66 C-14.91265625 65.58427734 -14.91265625 65.58427734 -15.84375 65.16015625 C-18 64 -18 64 -20.5 61.4375 C-23.01915844 58.98132052 -23.66335355 58.39698731 -27 58 C-29.54208561 58.49666309 -29.54208561 58.49666309 -32.203125 59.43359375 C-33.1828125 59.75263672 -34.1625 60.07167969 -35.171875 60.40039062 C-36.69554687 60.91375977 -36.69554687 60.91375977 -38.25 61.4375 C-39.28125 61.77587891 -40.3125 62.11425781 -41.375 62.46289062 C-43.9198666 63.2993977 -46.46117074 64.14537912 -49 65 C-49 64.34 -49 63.68 -49 63 C-42.07 59.04 -35.14 55.08 -28 51 C-28.495 48.525 -28.495 48.525 -29 46 C-29.03824623 43.66698014 -29.04574284 41.33288492 -29 39 C-29.75023437 38.95101562 -30.50046875 38.90203125 -31.2734375 38.8515625 C-45.30544896 37.82655411 -45.30544896 37.82655411 -51 36 C-51.33 35.34 -51.66 34.68 -52 34 C-44.08 34 -36.16 34 -28 34 C-25.86263944 27.73258967 -25.86263944 27.73258967 -26 24 C-27.95469673 21.99003655 -29.89467671 20.14991616 -32 18.3125 C-32.57234375 17.80138672 -33.1446875 17.29027344 -33.734375 16.76367188 C-35.14967213 15.5016986 -36.57400269 14.24986967 -38 13 C-37.67 12.34 -37.34 11.68 -37 11 C-35.97519531 11.60070312 -34.95039063 12.20140625 -33.89453125 12.8203125 C-32.53439252 13.5894944 -31.17368516 14.35767143 -29.8125 15.125 C-29.13896484 15.52332031 -28.46542969 15.92164062 -27.77148438 16.33203125 C-23.63767337 18.72823289 -23.63767337 18.72823289 -19.01171875 18.2421875 C-18.34785156 17.83226563 -17.68398437 17.42234375 -17 17 C-17 13.77205487 -17.63594515 12.31243504 -19 9.4375 C-21 5.20833333 -21 5.20833333 -21 3 C-17.55571735 4.44781793 -15.63869038 6.27694609 -13.25 9.125 C-12.63640625 9.84945312 -12.0228125 10.57390625 -11.390625 11.3203125 C-10.70226562 12.15175781 -10.70226562 12.15175781 -10 13 C-7.69 12.34 -5.38 11.68 -3 11 C-2.86722656 10.28972656 -2.73445313 9.57945313 -2.59765625 8.84765625 C-2.42105469 7.92855469 -2.24445313 7.00945312 -2.0625 6.0625 C-1.88847656 5.14597656 -1.71445313 4.22945313 -1.53515625 3.28515625 C-1 1 -1 1 0 0 Z " fill="#F7A725" transform="translate(249,110)"/>
<path d="M0 0 C0 0.66 0 1.32 0 2 C1.98 2 3.96 2 6 2 C6 2.99 6 3.98 6 5 C5.34 5 4.68 5 4 5 C4 5.99 4 6.98 4 8 C5.65 8.66 7.3 9.32 9 10 C9 10.33 9 10.66 9 11 C7.98421875 11.03738281 6.9684375 11.07476562 5.921875 11.11328125 C-13.03383206 11.95082134 -35.03750739 18.03750739 -49 32 C-49.13568514 33.98794955 -49.20397355 35.9805268 -49.24609375 37.97265625 C-49.29358765 39.88981445 -49.29358765 39.88981445 -49.34204102 41.84570312 C-49.35743927 42.532854 -49.37283752 43.22000488 -49.38870239 43.92797852 C-49.67926165 56.6377199 -50.23509568 69.31403806 -51.0625 82 C-51.10865448 82.70875275 -51.15480896 83.41750549 -51.20236206 84.1477356 C-51.4612344 88.09897836 -51.72730466 92.04968845 -52 96 C-53.65 96.33 -55.3 96.66 -57 97 C-57 76.21 -57 55.42 -57 34 C-61.62 34 -66.24 34 -71 34 C-70.89171875 36.38798828 -70.89171875 36.38798828 -70.78125 38.82421875 C-69.93742436 58.88952011 -69.89206456 78.92068698 -70 99 C-72.97 98.505 -72.97 98.505 -76 98 C-76.00062943 97.19091187 -76.00125885 96.38182373 -76.00190735 95.54821777 C-76.01757524 87.89691862 -76.08589019 80.24870874 -76.21236897 72.59850311 C-76.27555675 68.66579361 -76.31885061 64.73501804 -76.31567383 60.80175781 C-76.31335274 57.00048475 -76.36460287 53.20326207 -76.45198631 49.4030304 C-76.47598977 47.95846861 -76.48116144 46.51345895 -76.46657753 45.06877136 C-76.32757508 36.56316946 -76.32757508 36.56316946 -80.3890686 29.36605835 C-83.17958251 27.29944613 -85.92236228 25.60123188 -89 24 C-89.82383682 23.54827423 -90.64767365 23.09654846 -91.49647522 22.63113403 C-93.54906467 21.53789625 -95.62542206 20.56969976 -97.75 19.625 C-98.45253906 19.29628906 -99.15507812 18.96757812 -99.87890625 18.62890625 C-104.18231923 16.65684131 -108.41816861 15.18743798 -113 14 C-109.18243176 12.62567543 -105.92744671 13.32024961 -102 14 C-102 14.66 -102 15.32 -102 16 C-100.35 15.67 -98.7 15.34 -97 15 C-97.50525865 12.52849509 -97.50525865 12.52849509 -99 10 C-102.07672452 8.39562328 -102.07672452 8.39562328 -105.8125 7.375 C-106.47451416 7.17044189 -107.13652832 6.96588379 -107.81860352 6.75512695 C-114.13426355 4.84861201 -120.54153092 3.339615 -127 2 C-127 1.67 -127 1.34 -127 1 C-105.45352937 -0.08637667 -88.5921842 7.89648359 -72.5390625 22.19140625 C-68.72678422 24.90692139 -65.71439695 24.78975787 -61.14453125 24.66015625 C-55.53684282 23.48288998 -52.05252738 19.83962286 -48 16 C-45.76837314 14.21223263 -44.10890033 13.04249769 -41.4375 12 C-39.0074936 11.21844026 -39.0074936 11.21844026 -37.8203125 9.62890625 C-35.09037199 7.18601957 -31.83251086 6.16571583 -28.4375 4.9375 C-27.71804199 4.67437012 -26.99858398 4.41124023 -26.25732422 4.14013672 C-17.41012723 0.98056536 -9.40935537 -0.36035829 0 0 Z " fill="#1B2628" transform="translate(314,207)"/>
<path d="M0 0 C2.39073445 3.82517513 2.55966552 7.59665524 3 12 C6.23793945 12.94036453 6.23793945 12.94036453 10 13 C12.99142283 10.97381051 12.99142283 10.97381051 15.4375 8.0625 C16.73494141 6.65677734 16.73494141 6.65677734 18.05859375 5.22265625 C18.69925781 4.48917969 19.33992188 3.75570312 20 3 C20.99 3.495 20.99 3.495 22 4 C21.6390625 4.77085938 21.278125 5.54171875 20.90625 6.3359375 C20.4421875 7.33882813 19.978125 8.34171875 19.5 9.375 C19.0359375 10.37273437 18.571875 11.37046875 18.09375 12.3984375 C16.8708127 14.83692626 16.8708127 14.83692626 17 17 C19.07216547 18.4181658 19.07216547 18.4181658 22 19 C24.77781084 18.0654591 27.18870271 16.57728982 29.6875 15.0625 C32.10213957 13.63765548 34.51156854 12.29869618 37 11 C37.99 11.495 37.99 11.495 39 12 C38.03835938 12.83402344 37.07671875 13.66804688 36.0859375 14.52734375 C34.84755212 15.66253035 33.61064907 16.79933554 32.375 17.9375 C31.41980469 18.75444336 31.41980469 18.75444336 30.4453125 19.58789062 C28.33198574 21.46397855 28.33198574 21.46397855 26 25 C26.99 29.455 26.99 29.455 28 34 C36.25 34 44.5 34 53 34 C52.505 34.99 52.505 34.99 52 36 C49.86694336 36.59423828 49.86694336 36.59423828 47.08984375 37.0703125 C46.10048828 37.24433594 45.11113281 37.41835937 44.09179688 37.59765625 C43.05087891 37.77167969 42.00996094 37.94570312 40.9375 38.125 C39.89271484 38.30675781 38.84792969 38.48851562 37.77148438 38.67578125 C35.18233973 39.12503923 32.59132954 39.56352094 30 40 C29.67 43.63 29.34 47.26 29 51 C30.01320313 51.60328125 31.02640625 52.2065625 32.0703125 52.828125 C33.42192277 53.63533669 34.77348259 54.44263286 36.125 55.25 C36.79015625 55.64574219 37.4553125 56.04148438 38.140625 56.44921875 C42.17262795 58.86051463 46.11339553 61.36049914 50 64 C48 65 48 65 46.00048828 64.47094727 C45.19853027 64.17244873 44.39657227 63.8739502 43.5703125 63.56640625 C42.69246094 63.24736328 41.81460938 62.92832031 40.91015625 62.59960938 C39.99105469 62.25736328 39.07195312 61.91511719 38.125 61.5625 C36.31725703 60.8913083 34.50742237 60.22571709 32.6953125 59.56640625 C31.89109863 59.26677979 31.08688477 58.96715332 30.25830078 58.65844727 C27.75203862 57.81339179 27.75203862 57.81339179 24 58 C22.73960764 59.48661663 21.48344043 60.97910329 20.3046875 62.53125 C18.50344064 64.55900096 16.5713898 65.2653172 14 66 C14 69.3 14 72.6 14 76 C9.52084672 76.02886338 5.04171709 76.04675187 0.5625 76.0625 C-0.71689453 76.07087891 -1.99628906 76.07925781 -3.31445312 76.08789062 C-4.52939453 76.09111328 -5.74433594 76.09433594 -6.99609375 76.09765625 C-8.12200928 76.10289307 -9.2479248 76.10812988 -10.40795898 76.11352539 C-13 76 -13 76 -14 75 C-14.07179964 73.48071962 -14.08392007 71.95832518 -14.0625 70.4375 C-14.05347656 69.61121094 -14.04445312 68.78492188 -14.03515625 67.93359375 C-14.02355469 67.29550781 -14.01195312 66.65742188 -14 66 C-14.91265625 65.58427734 -14.91265625 65.58427734 -15.84375 65.16015625 C-18 64 -18 64 -20.5 61.4375 C-23.01915844 58.98132052 -23.66335355 58.39698731 -27 58 C-29.54208561 58.49666309 -29.54208561 58.49666309 -32.203125 59.43359375 C-33.1828125 59.75263672 -34.1625 60.07167969 -35.171875 60.40039062 C-36.69554687 60.91375977 -36.69554687 60.91375977 -38.25 61.4375 C-39.28125 61.77587891 -40.3125 62.11425781 -41.375 62.46289062 C-43.9198666 63.2993977 -46.46117074 64.14537912 -49 65 C-49 64.34 -49 63.68 -49 63 C-42.07 59.04 -35.14 55.08 -28 51 C-28.495 48.525 -28.495 48.525 -29 46 C-29.03824623 43.66698014 -29.04574284 41.33288492 -29 39 C-29.75023437 38.95101562 -30.50046875 38.90203125 -31.2734375 38.8515625 C-45.30544896 37.82655411 -45.30544896 37.82655411 -51 36 C-51.33 35.34 -51.66 34.68 -52 34 C-44.08 34 -36.16 34 -28 34 C-25.86263944 27.73258967 -25.86263944 27.73258967 -26 24 C-27.95469673 21.99003655 -29.89467671 20.14991616 -32 18.3125 C-32.57234375 17.80138672 -33.1446875 17.29027344 -33.734375 16.76367188 C-35.14967213 15.5016986 -36.57400269 14.24986967 -38 13 C-37.67 12.34 -37.34 11.68 -37 11 C-35.97519531 11.60070312 -34.95039063 12.20140625 -33.89453125 12.8203125 C-32.53439252 13.5894944 -31.17368516 14.35767143 -29.8125 15.125 C-29.13896484 15.52332031 -28.46542969 15.92164062 -27.77148438 16.33203125 C-23.63767337 18.72823289 -23.63767337 18.72823289 -19.01171875 18.2421875 C-18.34785156 17.83226563 -17.68398437 17.42234375 -17 17 C-17 13.77205487 -17.63594515 12.31243504 -19 9.4375 C-21 5.20833333 -21 5.20833333 -21 3 C-17.55571735 4.44781793 -15.63869038 6.27694609 -13.25 9.125 C-12.63640625 9.84945312 -12.0228125 10.57390625 -11.390625 11.3203125 C-10.70226562 12.15175781 -10.70226562 12.15175781 -10 13 C-7.69 12.34 -5.38 11.68 -3 11 C-2.86722656 10.28972656 -2.73445313 9.57945313 -2.59765625 8.84765625 C-2.42105469 7.92855469 -2.24445313 7.00945312 -2.0625 6.0625 C-1.88847656 5.14597656 -1.71445313 4.22945313 -1.53515625 3.28515625 C-1 1 -1 1 0 0 Z M-13 22 C-13.886875 22.53625 -14.77375 23.0725 -15.6875 23.625 C-20.35686601 28.42056509 -23.2534542 34.26971321 -23.625 41 C-23.26831317 47.29155932 -20.75317345 53.06098734 -16.4375 57.66796875 C-14.10150033 59.65940847 -11.55216829 61.29855447 -9 63 C-8.67 65.31 -8.34 67.62 -8 70 C-2.72 70 2.56 70 8 70 C8.33 67.69 8.66 65.38 9 63 C10.671875 61.50390625 10.671875 61.50390625 12.75 60.5625 C17.91278309 57.76328906 20.84207645 53.67547346 22.60546875 48.078125 C23.99717594 40.74754852 23.65221798 34.39186827 19.625 28.0078125 C15.3869715 22.77140229 9.53403806 18.50465815 2.75390625 17.75 C-3.50803326 17.44500447 -7.75156254 18.63441006 -13 22 Z " fill="#1F1E1C" transform="translate(249,110)"/>
<path d="M0 0 C4.62 0 9.24 0 14 0 C14.33 20.46 14.66 40.92 15 62 C16.32 62 17.64 62 19 62 C18.97389648 60.67923462 18.97389648 60.67923462 18.94726562 59.33178711 C18.83753087 49.32044987 19.51518754 39.519681 20.5 29.5625 C20.64517581 28.04107699 20.78971004 26.51959262 20.93359375 24.99804688 C21.28170816 21.33129781 21.63836092 17.66544295 22 14 C22.33 14 22.66 14 23 14 C23.09631665 22.93604515 23.02530768 31.7323246 22.22265625 40.640625 C21.79548958 47.08559575 21.92541563 53.5443084 22 60 C26.65052872 60.26932521 26.65052872 60.26932521 31 59 C30.34 60.98 29.68 62.96 29 65 C28.13117188 64.96519531 27.26234375 64.93039062 26.3671875 64.89453125 C17.75118068 64.59289189 17.75118068 64.59289189 10 68 C8.66666667 68.66666667 7.33333333 69.33333333 6 70 C3.54418945 68.48242188 3.54418945 68.48242188 1 66 C0.47782699 63.23002782 0.27788305 61.05357675 0.29296875 58.28125 C0.27780212 57.5182962 0.2626355 56.75534241 0.24700928 55.9692688 C0.20354208 53.479215 0.19509395 50.99039929 0.1875 48.5 C0.16482351 46.7882213 0.14015253 45.0764679 0.11352539 43.36474609 C0.04208297 38.24316664 0.0178316 33.12200062 0 28 C-0.00812606 26.489907 -0.01657477 24.97981569 -0.02539062 23.46972656 C-0.06755856 15.64598778 -0.05743291 7.82363908 0 0 Z " fill="#29A4BA" transform="translate(243,241)"/>
<path d="M0 0 C20.95631416 -1.05662088 35.56318601 6.40623256 52 19 C52.75796875 19.71285156 53.5159375 20.42570312 54.296875 21.16015625 C57.91164804 23.62050033 61.0291253 23.88252549 65.3125 24.25 C66.42334961 24.36601562 66.42334961 24.36601562 67.55664062 24.484375 C69.36958268 24.67151741 71.18464954 24.83787704 73 25 C73.495 27.475 73.495 27.475 74 30 C70.81175432 31.59412284 67.37103338 31.10174735 63.875 31.0625 C63.12089844 31.05798828 62.36679688 31.05347656 61.58984375 31.04882812 C59.72652873 31.03703499 57.86325445 31.01909942 56 31 C56.03029297 31.71502686 56.06058594 32.43005371 56.09179688 33.16674805 C56.97864253 54.7870219 57.11756362 76.36467645 57 98 C54.03 97.505 54.03 97.505 51 97 C50.99937057 96.19091187 50.99874115 95.38182373 50.99809265 94.54821777 C50.98242476 86.89691862 50.91410981 79.24870874 50.78763103 71.59850311 C50.72444325 67.66579361 50.68114939 63.73501804 50.68432617 59.80175781 C50.68664726 56.00048475 50.63539713 52.20326207 50.54801369 48.4030304 C50.52401023 46.95846861 50.51883856 45.51345895 50.53342247 44.06877136 C50.67242492 35.56316946 50.67242492 35.56316946 46.6109314 28.36605835 C43.82041749 26.29944613 41.07763772 24.60123188 38 23 C37.17616318 22.54827423 36.35232635 22.09654846 35.50352478 21.63113403 C33.45093533 20.53789625 31.37457794 19.56969976 29.25 18.625 C28.54746094 18.29628906 27.84492188 17.96757812 27.12109375 17.62890625 C22.81768077 15.65684131 18.58183139 14.18743798 14 13 C17.81756824 11.62567543 21.07255329 12.32024961 25 13 C25 13.66 25 14.32 25 15 C26.65 14.67 28.3 14.34 30 14 C29.49474135 11.52849509 29.49474135 11.52849509 28 9 C24.92327548 7.39562328 24.92327548 7.39562328 21.1875 6.375 C20.52548584 6.17044189 19.86347168 5.96588379 19.18139648 5.75512695 C12.86573645 3.84861201 6.45846908 2.339615 0 1 C0 0.67 0 0.34 0 0 Z " fill="#1D1E1F" transform="translate(187,208)"/>
<path d="M0 0 C0.33 0 0.66 0 1 0 C1.42129226 9.94537799 0.11577647 19.34542656 -1.4375 29.125 C-1.89839075 32.08534908 -2.35376457 35.04652718 -2.80859375 38.0078125 C-2.91823959 38.70934952 -3.02788544 39.41088654 -3.14085388 40.13368225 C-3.8623022 44.82422877 -4.38277678 49.49238228 -4.66992188 54.22875977 C-5 56 -5 56 -7.0625 57.8125 C-8.5165625 58.4003125 -8.5165625 58.4003125 -10 59 C-10.59167969 59.46664062 -11.18335938 59.93328125 -11.79296875 60.4140625 C-13.84781574 62.01364399 -15.53142251 63.15478053 -18 64 C-20.39647874 63.30698842 -22.30700577 62.21805281 -24.48046875 61 C-29.1878491 59.13164439 -34.10571129 60.23811411 -39 61 C-38.67 60.34 -38.34 59.68 -38 59 C-36.02 59 -34.04 59 -32 59 C-31.76925781 58.46890625 -31.53851563 57.9378125 -31.30078125 57.390625 C-29.59073887 54.24784441 -27.40309087 51.54339493 -25.1875 48.75 C-21.47756829 43.99160933 -17.98537323 39.25507479 -15 34 C-14.52046875 33.17242187 -14.0409375 32.34484375 -13.546875 31.4921875 C-7.88135841 21.44877172 -3.82476472 10.85463954 0 0 Z " fill="#0AA0B9" transform="translate(319,234)"/>
<path d="M0 0 C3.07320168 -0.35502691 5.93848801 -0.50749864 9 0 C11.41015625 2.625 11.41015625 2.625 13.0625 6 C13.63097656 7.11375 14.19945312 8.2275 14.78515625 9.375 C15.38650391 10.674375 15.38650391 10.674375 16 12 C16.09087891 10.82630859 16.09087891 10.82630859 16.18359375 9.62890625 C16.26738281 8.61699219 16.35117187 7.60507812 16.4375 6.5625 C16.51871094 5.55316406 16.59992188 4.54382813 16.68359375 3.50390625 C17 1 17 1 18 0 C21 -0.125 21 -0.125 24 0 C25.74545605 1.74545605 25.1302316 4.16124217 25.1328125 6.53125 C25.13474609 8.21154297 25.13474609 8.21154297 25.13671875 9.92578125 C25.13285156 11.10527344 25.12898438 12.28476562 25.125 13.5 C25.13080078 15.26923828 25.13080078 15.26923828 25.13671875 17.07421875 C25.13542969 18.19441406 25.13414062 19.31460937 25.1328125 20.46875 C25.13168457 21.50451172 25.13055664 22.54027344 25.12939453 23.60742188 C25 26 25 26 24 27 C17.81666667 27.58333333 17.81666667 27.58333333 14.8125 25.4375 C12.56446694 22.41428313 10.78656858 19.31791307 9 16 C8.34 19.3 7.68 22.6 7 26 C5.0085944 26.38133299 3.00720923 26.71325582 1 27 C0 26 0 26 -0.11352539 23.49975586 C-0.10828857 22.41573486 -0.10305176 21.33171387 -0.09765625 20.21484375 C-0.09443359 19.04501953 -0.09121094 17.87519531 -0.08789062 16.66992188 C-0.07951172 15.43822266 -0.07113281 14.20652344 -0.0625 12.9375 C-0.05798828 11.70193359 -0.05347656 10.46636719 -0.04882812 9.19335938 C-0.03699608 6.12885883 -0.02051173 3.06445279 0 0 Z " fill="#12D4F4" transform="translate(278,327)"/>
<path d="M0 0 C1.13953125 -0.01417969 2.2790625 -0.02835937 3.453125 -0.04296875 C7.82145241 0.26240011 10.6380887 1.0755887 13.75 4.1875 C13.875 7.625 13.875 7.625 13.75 11.1875 C13.75 12.1775 13.75 13.1675 13.75 14.1875 C14.08 14.5175 14.41 14.8475 14.75 15.1875 C15.33542413 21.39299582 15.33542413 21.39299582 13 24.5625 C9.06370828 27.40537735 5.39661263 27.32422386 0.625 27.3125 C-0.95667969 27.31636719 -0.95667969 27.31636719 -2.5703125 27.3203125 C-5.25 27.1875 -5.25 27.1875 -7.25 26.1875 C-7.27886751 22.04168113 -7.29675327 17.89588784 -7.3125 13.75 C-7.32087891 12.56599609 -7.32925781 11.38199219 -7.33789062 10.16210938 C-7.34111328 9.03740234 -7.34433594 7.91269531 -7.34765625 6.75390625 C-7.35289307 5.71177979 -7.35812988 4.66965332 -7.36352539 3.59594727 C-7.13971738 -1.15215169 -4.08850591 0.02291763 0 0 Z M0.75 7.1875 C0.75 8.1775 0.75 9.1675 0.75 10.1875 C2.4 10.1875 4.05 10.1875 5.75 10.1875 C5.75 9.1975 5.75 8.2075 5.75 7.1875 C4.1 7.1875 2.45 7.1875 0.75 7.1875 Z M0.75 16.1875 C0.75 17.5075 0.75 18.8275 0.75 20.1875 C2.73 20.1875 4.71 20.1875 6.75 20.1875 C6.42 18.8675 6.09 17.5475 5.75 16.1875 C4.1 16.1875 2.45 16.1875 0.75 16.1875 Z " fill="#18CEF1" transform="translate(125.25,326.8125)"/>
<path d="M0 0 C15.21428571 0 15.21428571 0 21 3 C24.03720203 6.1502142 24.45604082 8.55601031 24.5 12.875 C24.38934804 16.65560875 24.26987916 19.52692168 22 22.625 C16.15488653 27.2523815 9.23287446 27.64525643 2 27 C1.34 26.67 0.68 26.34 0 26 C0 17.42 0 8.84 0 0 Z M8 7 C8 11.29 8 15.58 8 20 C9.98 20 11.96 20 14 20 C16.64508959 17.35491041 16.78233633 15.70028236 17 12 C16.1155391 9.05292754 16.1155391 9.05292754 14 7 C12.02 7 10.04 7 8 7 Z " fill="#1FCCEB" transform="translate(308,327)"/>
<path d="M0 0 C1.71229983 2.56844975 2.869925 4.89210567 4.125 7.6875 C8.91877562 17.30308502 16.71561368 23.47338768 26.79296875 26.96875 C29.18520544 27.69755554 31.57803953 28.37807696 34 29 C33.360625 29.350625 32.72125 29.70125 32.0625 30.0625 C29.20774352 32.34000329 29.20774352 32.34000329 29 39 C23.72 39 18.44 39 13 39 C12.67 36.69 12.34 34.38 12 32 C10.39163341 30.19983201 10.39163341 30.19983201 8.25 29.0625 C2.93323235 25.51162466 0.00996362 21.02989087 -2 15 C-2.38612745 9.70197223 -2.55903682 4.79819403 0 0 Z " fill="#DE8C11" transform="translate(228,141)"/>
<path d="M0 0 C4.12224783 2.06112391 6.31747327 3.74063053 8 8 C8.68770727 13.29374666 8.61123813 17.7096084 6.3125 22.5625 C2.70565416 26.36431048 0.29779501 26.87440693 -4.875 27.375 C-9.32142972 27.23210906 -12.6706109 25.97800239 -16 23 C-18.7537951 18.52508295 -19.48464162 15.00030363 -18.578125 9.92578125 C-17.43371875 6.11367124 -15.57592278 2.98117154 -12.16796875 0.859375 C-8.19701338 -0.7146974 -4.19148945 -0.54211693 0 0 Z M-8 6 C-10.06520632 9.09780948 -10.29477024 9.9540481 -10.3125 13.5 C-10.32925781 14.2734375 -10.34601563 15.046875 -10.36328125 15.84375 C-9.91181582 18.52341578 -9.17853864 19.41190641 -7 21 C-3.90351124 21.16448881 -3.90351124 21.16448881 -1 20 C0.91074137 17.09235009 1.02035532 15.33925528 0.8125 11.875 C-0.02836373 8.89963602 -0.41491314 7.66184155 -3 6 C-5.54258463 5.49985047 -5.54258463 5.49985047 -8 6 Z " fill="#21CDEB" transform="translate(192,327)"/>
<path d="M0 0 C4.12224783 2.06112391 6.31747327 3.74063053 8 8 C8.68770727 13.29374666 8.61123813 17.7096084 6.3125 22.5625 C2.67910849 26.39229105 0.28810042 26.89776981 -4.9375 27.3125 C-8.91403325 27.19245371 -11.65830089 26.25370405 -15 24 C-18.64356334 20.11353244 -18.49929326 15.74586176 -18.35546875 10.6640625 C-17.85540198 6.91630931 -16.5458263 4.75797849 -14 2 C-9.55354103 -0.73409924 -5.07122135 -0.65589929 0 0 Z M-8 6 C-10.82169914 11.23893368 -10.82169914 11.23893368 -10.1875 16.9375 C-9.795625 17.948125 -9.40375 18.95875 -9 20 C-4.97324226 21.14181469 -4.97324226 21.14181469 -1.1875 19.9375 C0.48996522 17.20058306 0.87397929 15.21352799 1 12 C-0.32429273 8.68194858 -0.32429273 8.68194858 -2 6 C-3.98 6 -5.96 6 -8 6 Z " fill="#0CD4F7" transform="translate(162,327)"/>
<path d="M0 0 C2.04136395 -0.05451714 4.08315856 -0.09302485 6.125 -0.125 C7.83042969 -0.15980469 7.83042969 -0.15980469 9.5703125 -0.1953125 C14.13213294 0.06447226 17.71484079 0.71484079 21 4 C21.33870968 10.32258065 21.33870968 10.32258065 20 13 C19.34 13 18.68 13 18 13 C18.433125 14.15628906 18.433125 14.15628906 18.875 15.3359375 C19.24625 16.33882813 19.6175 17.34171875 20 18.375 C20.556875 19.87160156 20.556875 19.87160156 21.125 21.3984375 C22 24 22 24 22 26 C19.36 26 16.72 26 14 26 C13.74476563 25.15115234 13.74476563 25.15115234 13.484375 24.28515625 C13.24203125 23.55167969 12.9996875 22.81820313 12.75 22.0625 C12.51796875 21.33160156 12.2859375 20.60070312 12.046875 19.84765625 C11.70140625 19.23792969 11.3559375 18.62820313 11 18 C9.68 17.67 8.36 17.34 7 17 C7 19.97 7 22.94 7 26 C5.0085944 26.38133299 3.00720923 26.71325582 1 27 C0 26 0 26 -0.11352539 23.49975586 C-0.10828857 22.41573486 -0.10305176 21.33171387 -0.09765625 20.21484375 C-0.09443359 19.04501953 -0.09121094 17.87519531 -0.08789062 16.66992188 C-0.07951172 15.43822266 -0.07113281 14.20652344 -0.0625 12.9375 C-0.05798828 11.70193359 -0.05347656 10.46636719 -0.04882812 9.19335938 C-0.03699608 6.12885883 -0.02051173 3.06445279 0 0 Z M7 7 C7 8.32 7 9.64 7 11 C8.98 11 10.96 11 13 11 C13 9.68 13 8.36 13 7 C11.02 7 9.04 7 7 7 Z " fill="#07D6F7" transform="translate(362,327)"/>
<path d="M0 0 C6.6 0 13.2 0 20 0 C20 1.98 20 3.96 20 6 C17.11788698 6.96070434 15.30149956 7.10581883 12.3125 7.0625 C11.10013672 7.04896484 11.10013672 7.04896484 9.86328125 7.03515625 C8.94095703 7.01775391 8.94095703 7.01775391 8 7 C8 7.99 8 8.98 8 10 C11.63 10 15.26 10 19 10 C19 11.98 19 13.96 19 16 C15.04 16.33 11.08 16.66 7 17 C7 17.99 7 18.98 7 20 C8.37285156 19.98259766 8.37285156 19.98259766 9.7734375 19.96484375 C11.55621094 19.95130859 11.55621094 19.95130859 13.375 19.9375 C14.55835938 19.92589844 15.74171875 19.91429687 16.9609375 19.90234375 C20 20 20 20 22 21 C21.01 23.475 21.01 23.475 20 26 C17.60458732 26.19585135 15.20907226 26.38192107 12.8125 26.5625 C12.13896484 26.61857422 11.46542969 26.67464844 10.77148438 26.73242188 C6.82031623 27.02153174 3.96244565 26.79248913 0 26 C0 17.42 0 8.84 0 0 Z " fill="#04DAFA" transform="translate(337,327)"/>
<path d="M0 0 C2.31 0 4.62 0 7 0 C7.33 2.97 7.66 5.94 8 9 C8.4846875 8.3503125 8.969375 7.700625 9.46875 7.03125 C14.87852238 0.28984135 14.87852238 0.28984135 18.3125 -0.59765625 C20.5 -0.5625 20.5 -0.5625 24 0 C24 3 24 3 22.50390625 4.68359375 C21.21236468 5.85039891 19.92069853 7.01706617 18.62890625 8.18359375 C16.77207856 10.254157 16.03648311 11.20643638 16 14 C17.68138784 16.57846176 17.68138784 16.57846176 20 19.0625 C22.3125 21.66015625 22.3125 21.66015625 24 24 C23.67 24.99 23.34 25.98 23 27 C15.93909841 26.7606474 15.93909841 26.7606474 13.35546875 24.66796875 C10 20.69362392 10 20.69362392 10 18 C9.34 18.33 8.68 18.66 8 19 C7.53476937 20.89533342 7.53476937 20.89533342 7.375 23.0625 C7.189375 25.0115625 7.189375 25.0115625 7 27 C5.00045254 27.04254356 2.99958364 27.04080783 1 27 C0 26 0 26 -0.11352539 23.49975586 C-0.10828857 22.41573486 -0.10305176 21.33171387 -0.09765625 20.21484375 C-0.09443359 19.04501953 -0.09121094 17.87519531 -0.08789062 16.66992188 C-0.07951172 15.43822266 -0.07113281 14.20652344 -0.0625 12.9375 C-0.05798828 11.70193359 -0.05347656 10.46636719 -0.04882812 9.19335938 C-0.03699608 6.12885883 -0.02051173 3.06445279 0 0 Z " fill="#11D4F5" transform="translate(205,327)"/>
<path d="M0 0 C1.51400391 0.01740234 1.51400391 0.01740234 3.05859375 0.03515625 C4.07050781 0.04417969 5.08242187 0.05320313 6.125 0.0625 C7.29869141 0.07990234 7.29869141 0.07990234 8.49609375 0.09765625 C8.54562081 4.4392745 8.58187329 8.780742 8.60595703 13.12255859 C8.61599966 14.59882472 8.6296364 16.07507104 8.64697266 17.55126953 C8.67129796 19.67615659 8.68259415 21.8007801 8.69140625 23.92578125 C8.70187988 25.20356445 8.71235352 26.48134766 8.72314453 27.79785156 C8.51057419 30.88720724 8.32602699 32.62501844 6.49609375 35.09765625 C3.37109375 35.84765625 3.37109375 35.84765625 0.49609375 36.09765625 C-3.34226775 32.08786725 -3.995226 29.5843687 -3.9296875 24.08203125 C-3.92639938 23.42559631 -3.92311127 22.76916138 -3.91972351 22.09283447 C-3.90935028 20.71445704 -3.88948123 19.33612159 -3.8605957 17.95800781 C-3.81625123 15.84025281 -3.79911655 13.72363204 -3.78710938 11.60546875 C-3.67246649 0.14323192 -3.67246649 0.14323192 0 0 Z " fill="#05D5F9" transform="translate(247.50390625,241.90234375)"/>
<path d="M0 0 C0 3.10551666 -0.5393715 4.35261084 -2 7 C-0.35 6.34 1.3 5.68 3 5 C1.95599951 16.07887091 0.52164296 27.11122464 -1.05630493 38.1255188 C-1.26836407 39.62231963 -1.47458665 41.11995923 -1.67489624 42.61837769 C-1.96230612 44.75607186 -2.27146682 46.8895779 -2.5859375 49.0234375 C-2.7617334 50.27044434 -2.9375293 51.51745117 -3.11865234 52.80224609 C-4.09991271 56.36250877 -5.23465418 57.64162192 -8 60 C-9.28780295 62.09900132 -9.28780295 62.09900132 -10.25 64.25 C-10.58515625 64.95640625 -10.9203125 65.6628125 -11.265625 66.390625 C-11.62914062 67.18726563 -11.62914062 67.18726563 -12 68 C-13.23406601 64.29780198 -12.64442843 61.44436307 -12.0390625 57.69140625 C-11.929039 56.96944565 -11.8190155 56.24748505 -11.70565796 55.50364685 C-11.35212274 53.18884329 -10.98928081 50.87563493 -10.625 48.5625 C-10.15371032 45.54374194 -9.68715332 42.52431555 -9.2265625 39.50390625 C-9.11436874 38.76846085 -9.00217499 38.03301544 -8.88658142 37.27528381 C-8.11021758 32.05843293 -7.59400939 26.85536003 -7.2109375 21.59399414 C-6.90519381 17.83412527 -6.35447739 14.14825266 -5.6875 10.4375 C-5.58244141 9.75365234 -5.47738281 9.06980469 -5.36914062 8.36523438 C-4.78664357 5.11534646 -4.34467563 3.32165462 -1.89453125 1.03515625 C-1.26933594 0.69355469 -0.64414062 0.35195312 0 0 Z " fill="#1C1E1E" transform="translate(327,215)"/>
<path d="M0 0 C6.75 3.75 6.75 3.75 9 6 C9.31884766 8.40966797 9.31884766 8.40966797 9.4140625 11.4921875 C9.45281494 12.6560498 9.49156738 13.81991211 9.53149414 15.01904297 C9.56235107 16.29150879 9.59320801 17.56397461 9.625 18.875 C9.68192017 20.83590576 9.68192017 20.83590576 9.73999023 22.83642578 C10.18330442 39.21971258 10.09193705 55.61257495 10 72 C5.05 72.495 5.05 72.495 0 73 C-0.804375 71.39125 -0.804375 71.39125 -1.625 69.75 C-3.84950887 65.93434937 -5.9430902 63.95332694 -10 62 C-14.88648393 60.82885922 -19.18394371 60.30699407 -23.8125 62.5 C-27 64 -27 64 -29.875 63.8125 C-32 63 -32 63 -33 61 C-31.02 61 -29.04 61 -27 61 C-27 60.34 -27 59.68 -27 59 C-24.83340626 58.97261328 -22.66670825 58.95343168 -20.5 58.9375 C-19.21609375 58.9271875 -17.9321875 58.916875 -16.609375 58.90625 C-13.74354943 58.98068703 -11.4927549 59.25747812 -8.75 59.9375 C-2.90501732 60.03491638 0.64883798 56.64753545 5 53 C7.17368303 51.23643491 7.17368303 51.23643491 7.24050903 49.05111694 C7.23606781 48.256138 7.23162659 47.46115906 7.22705078 46.64208984 C7.22682419 45.29091568 7.22682419 45.29091568 7.22659302 43.91244507 C7.21627045 42.93844757 7.20594788 41.96445007 7.1953125 40.9609375 C7.19106766 39.46694931 7.19106766 39.46694931 7.18673706 37.94277954 C7.1755184 34.75339882 7.15041081 31.56429622 7.125 28.375 C7.11497238 26.21614988 7.10584615 24.05729537 7.09765625 21.8984375 C7.07557361 16.59886301 7.04207958 11.29945137 7 6 C6.34 6 5.68 6 5 6 C5 5.34 5 4.68 5 4 C4.01 4.33 3.02 4.66 2 5 C2 4.01 2 3.02 2 2 C1.34 2 0.68 2 0 2 C0 1.34 0 0.68 0 0 Z " fill="#18A7BE" transform="translate(228,233)"/>
<path d="M0 0 C6.93 0 13.86 0 21 0 C21 2.31 21 4.62 21 7 C20 8 20 8 17.49609375 8.09765625 C15.98208984 8.08025391 15.98208984 8.08025391 14.4375 8.0625 C13.42558594 8.05347656 12.41367188 8.04445313 11.37109375 8.03515625 C10.19740234 8.01775391 10.19740234 8.01775391 9 8 C9 8.99 9 9.98 9 11 C12.63 11 16.26 11 20 11 C20 12.98 20 14.96 20 17 C15.05 17.495 15.05 17.495 10 18 C9.855625 19.464375 9.71125 20.92875 9.5625 22.4375 C9.125 26.875 9.125 26.875 8 28 C5 28.125 5 28.125 2 28 C0.19605125 26.19605125 0.76294211 23.43322201 0.68359375 20.99609375 C0.64169922 19.78115234 0.59980469 18.56621094 0.55664062 17.31445312 C0.51732422 16.03505859 0.47800781 14.75566406 0.4375 13.4375 C0.39431641 12.15423828 0.35113281 10.87097656 0.30664062 9.54882812 C0.20015281 6.36602555 0.09953579 3.18302757 0 0 Z " fill="#10D4F3" transform="translate(240,326)"/>
<path d="M0 0 C0 0.66 0 1.32 0 2 C1.98 2 3.96 2 6 2 C6 2.99 6 3.98 6 5 C5.34 5 4.68 5 4 5 C4 5.99 4 6.98 4 8 C6.475 8.99 6.475 8.99 9 10 C9 10.33 9 10.66 9 11 C5.39670111 11.22573595 1.79245301 11.42759125 -1.8125 11.625 C-2.83666016 11.68945312 -3.86082031 11.75390625 -4.91601562 11.8203125 C-5.89892578 11.871875 -6.88183594 11.9234375 -7.89453125 11.9765625 C-8.80050049 12.02893066 -9.70646973 12.08129883 -10.63989258 12.13525391 C-13 12 -13 12 -16 10 C-16 9.01 -16 8.02 -16 7 C-27.13757985 7.75938044 -36.50785982 13.63153825 -45.56811523 19.69702148 C-46.21594971 20.12313721 -46.86378418 20.54925293 -47.53125 20.98828125 C-48.10423828 21.37540283 -48.67722656 21.76252441 -49.26757812 22.16137695 C-51 23 -51 23 -55 23 C-52.3310967 19.34261399 -49.95013947 17.18297181 -46 15 C-45.34 14.34 -44.68 13.68 -44 13 C-43.195625 12.690625 -42.39125 12.38125 -41.5625 12.0625 C-39.02248498 11.2339326 -39.02248498 11.2339326 -37.8125 9.625 C-35.08751074 7.18190618 -31.82903565 6.1644586 -28.4375 4.9375 C-27.71804199 4.67437012 -26.99858398 4.41124023 -26.25732422 4.14013672 C-17.41012723 0.98056536 -9.40935537 -0.36035829 0 0 Z " fill="#212A2B" transform="translate(314,207)"/>
<path d="M0 0 C0.33 0 0.66 0 1 0 C3.82908199 18.96293244 6.60199383 37.86609461 8 57 C3.99097581 55.6636586 3.19108105 53.50572968 1 50 C0.67 49.67 0.34 49.34 0 49 C-0.44505101 46.54719006 -0.83588057 44.10681708 -1.19140625 41.640625 C-1.30097153 40.89923279 -1.4105368 40.15784058 -1.52342224 39.39398193 C-1.75487144 37.82056957 -1.98422585 36.24684788 -2.21166992 34.67285156 C-2.55914099 32.27319752 -2.91480022 29.87486233 -3.27148438 27.4765625 C-3.49528728 25.94798915 -3.71860989 24.41934538 -3.94140625 22.890625 C-4.10075401 21.81847748 -4.10075401 21.81847748 -4.26332092 20.72467041 C-4.77898678 17.12050406 -5.12006083 13.6416974 -5 10 C-3.35 9.34 -1.7 8.68 0 8 C0 5.36 0 2.72 0 0 Z " fill="#182528" transform="translate(177,221)"/>
<path d="M0 0 C20.95631416 -1.05662088 35.56318601 6.40623256 52 19 C52.92941406 19.69738281 53.85882813 20.39476562 54.81640625 21.11328125 C55.53699219 21.73589844 56.25757813 22.35851562 57 23 C57 23.66 57 24.32 57 25 C51.55791766 24.65986985 48.06331802 21.29703472 44 18 C43.67 18.66 43.34 19.32 43 20 C40.525 19.01 40.525 19.01 38 18 C38 18.99 38 19.98 38 21 C38.66 21 39.32 21 40 21 C40 21.66 40 22.32 40 23 C40.66 23 41.32 23 42 23 C41.67 23.66 41.34 24.32 41 25 C40.05640625 24.46890625 39.1128125 23.9378125 38.140625 23.390625 C30.29026682 19.04608259 22.68061358 15.45708243 14 13 C17.91736581 11.8299903 20.97959015 12.30415983 25 13 C25 13.66 25 14.32 25 15 C26.65 14.67 28.3 14.34 30 14 C29.49474135 11.52849509 29.49474135 11.52849509 28 9 C24.92327548 7.39562328 24.92327548 7.39562328 21.1875 6.375 C20.52548584 6.17044189 19.86347168 5.96588379 19.18139648 5.75512695 C12.86573645 3.84861201 6.45846908 2.339615 0 1 C0 0.67 0 0.34 0 0 Z " fill="#1F2121" transform="translate(187,208)"/>
<path d="M0 0 C0.33 0 0.66 0 1 0 C0.95573277 4.32406886 0.885784 8.64674672 0.79248047 12.9699707 C0.76433389 14.4392545 0.74308791 15.90868795 0.72900391 17.37817383 C0.7074847 19.49638114 0.66079666 21.61280153 0.609375 23.73046875 C0.58842773 25.00301514 0.56748047 26.27556152 0.54589844 27.58666992 C-0.07848111 31.49071751 -1.29627985 33.18087716 -4 36 C-7.49829669 34.8339011 -8.21531238 34.16273755 -10 31 C-10.34057617 27.88378906 -10.34057617 27.88378906 -10.29296875 24.265625 C-10.28330078 22.97011719 -10.27363281 21.67460937 -10.26367188 20.33984375 C-10.23860783 18.97655646 -10.21321302 17.61327521 -10.1875 16.25 C-10.17244518 14.87110816 -10.15875817 13.49220065 -10.14648438 12.11328125 C-10.11111909 8.74179085 -10.06175904 5.37109346 -10 2 C-8.515 2.99 -8.515 2.99 -7 4 C-3.85778033 3.68493373 -3.85778033 3.68493373 -1 3 C-0.67 2.01 -0.34 1.02 0 0 Z " fill="#09A0BA" transform="translate(255,273)"/>
<path d="M0 0 C9.24 0 18.48 0 28 0 C28 1.65 28 3.3 28 5 C27.01 5 26.02 5 25 5 C24.731875 5.5775 24.46375 6.155 24.1875 6.75 C22.93085105 9.13101907 21.83218848 11.01716491 20 13 C16.2507869 13.95937478 12.76961304 13.8305013 9 13 C6.94265981 11.37556706 5.66214086 9.80719428 4.21875 7.62890625 C3.00592134 5.68521999 3.00592134 5.68521999 0 5 C0 3.35 0 1.7 0 0 Z " fill="#1E1E1E" transform="translate(235,187)"/>
<path d="M0 0 C0.33 0.99 0.66 1.98 1 3 C1.66 3.33 2.32 3.66 3 4 C3 4.66 3 5.32 3 6 C1.60201172 6.52787109 1.60201172 6.52787109 0.17578125 7.06640625 C-7.68137935 10.09006555 -15.04545385 13.44352064 -22.390625 17.58203125 C-25 19 -25 19 -28 20 C-28 19.01 -28 18.02 -28 17 C-28.99 17 -29.98 17 -31 17 C-30.12743287 12.97011758 -29.43578172 11.3291792 -26.09375 8.8046875 C-24.90746903 8.14024369 -23.70869551 7.49773852 -22.5 6.875 C-21.56039429 6.36851929 -21.56039429 6.36851929 -20.60180664 5.85180664 C-6.36560015 -1.68928932 -6.36560015 -1.68928932 0 0 Z " fill="#1E1E1F" transform="translate(298,214)"/>
<path d="M0 0 C3.63 0 7.26 0 11 0 C11 0.33 11 0.66 11 1 C9.35 1.33 7.7 1.66 6 2 C7.12277344 2.24234375 8.24554688 2.4846875 9.40234375 2.734375 C27.30038779 6.69595792 27.30038779 6.69595792 32 10 C33.5625 12.75 33.5625 12.75 34 15 C33 16 33 16 30.4375 16.0625 C29.633125 16.041875 28.82875 16.02125 28 16 C28 15.34 28 14.68 28 14 C27.13761719 13.95101562 26.27523437 13.90203125 25.38671875 13.8515625 C14.88730415 13.20851493 4.45406825 12.15906246 -6 11 C-6 10.67 -6 10.34 -6 10 C-3.36 9.67 -0.72 9.34 2 9 C2.33 7.35 2.66 5.7 3 4 C2.01 3.67 1.02 3.34 0 3 C0 2.01 0 1.02 0 0 Z " fill="#1D1F1F" transform="translate(184,207)"/>
<path d="M0 0 C1.32 0 2.64 0 4 0 C4 0.66 4 1.32 4 2 C6.97 2.495 6.97 2.495 10 3 C10 25.11 10 47.22 10 70 C10.99 70 11.98 70 13 70 C13.02792452 67.81257903 13.04679456 65.62504283 13.0625 63.4375 C13.07410156 62.21933594 13.08570313 61.00117188 13.09765625 59.74609375 C13.06974003 55.81433839 12.79127926 51.92051024 12.5 48 C11.92785435 39.84425927 11.88620039 31.73462427 11.9375 23.5625 C11.94253579 22.1373714 11.94709494 20.71224104 11.95117188 19.28710938 C11.96198818 15.85803507 11.97913239 12.42902968 12 9 C12.66 8.67 13.32 8.34 14 8 C15.00338722 29.67689996 15.11661973 51.30514251 15 73 C13.02 72.67 11.04 72.34 9 72 C8.99048813 71.18425003 8.98097626 70.36850006 8.97117615 69.5280304 C8.87531732 61.83210342 8.74635814 54.13777521 8.58038235 46.4430666 C8.49621723 42.48721065 8.42477558 38.53198319 8.38256836 34.57543945 C8.3413464 30.75541181 8.26649808 26.9373769 8.16850471 23.11839867 C8.13703473 21.66300464 8.1175937 20.20729814 8.11050224 18.75158119 C8.38826012 10.88953334 8.38826012 10.88953334 5.36819458 4.00253296 C3.27103061 2.43370715 3.27103061 2.43370715 0 1 C0 0.67 0 0.34 0 0 Z " fill="#0F373D" transform="translate(229,233)"/>
<path d="M0 0 C0.02502455 5.84919943 0.04301096 11.69836658 0.05493164 17.54760742 C0.05990981 19.53068587 0.06669476 21.51376075 0.07543945 23.49682617 C0.12503221 35.04610395 0.00017639 46.48838698 -1 58 C-3.475 58.495 -3.475 58.495 -6 59 C-6.25 51.375 -6.25 51.375 -4 48 C-3.73126728 45.85304075 -3.73126728 45.85304075 -3.82055664 43.46850586 C-3.83039078 42.55423325 -3.84022491 41.63996063 -3.85035706 40.69798279 C-3.87009079 39.71354691 -3.88982452 38.72911102 -3.91015625 37.71484375 C-3.93057094 35.63737206 -3.95074598 33.55989801 -3.97070312 31.48242188 C-4.01430017 28.20131345 -4.06278034 24.9203635 -4.11645508 21.6394043 C-4.16455253 18.47705599 -4.1945417 15.31492329 -4.22265625 12.15234375 C-4.24441422 11.16588364 -4.26617218 10.17942352 -4.28858948 9.16307068 C-4.29527145 8.25195023 -4.30195343 7.34082977 -4.30883789 6.40209961 C-4.32787926 5.19655678 -4.32787926 5.19655678 -4.3473053 3.96665955 C-4.17538918 2.99316307 -4.17538918 2.99316307 -4 2 C-1 0 -1 0 0 0 Z " fill="#142225" transform="translate(263,245)"/>
<path d="M0 0 C1.71395649 2.57093474 2.9522834 4.96423503 4.25 7.75 C6.60225419 12.53876824 9.36548013 16.11190897 13 20 C10.94766315 22.2477975 9.99332739 23.0022242 7 24 C7.33 24.99 7.66 25.98 8 27 C11.50294871 28.71567661 11.50294871 28.71567661 15 30 C15 32.64 15 35.28 15 38 C19.62 38 24.24 38 29 38 C29 38.33 29 38.66 29 39 C23.72 39 18.44 39 13 39 C12.67 36.69 12.34 34.38 12 32 C10.39163341 30.19983201 10.39163341 30.19983201 8.25 29.0625 C2.93323235 25.51162466 0.00996362 21.02989087 -2 15 C-2.38612745 9.70197223 -2.55903682 4.79819403 0 0 Z " fill="#DC8D12" transform="translate(228,141)"/>
<path d="M0 0 C4.95 0 9.9 0 15 0 C14.34 1.32 13.68 2.64 13 4 C9.375 4.75 9.375 4.75 6 5 C6 5.60328125 6 6.2065625 6 6.828125 C6 10.55208333 6 14.27604167 6 18 C6.98267859 19.20561184 6.98267859 19.20561184 8.84765625 19.09765625 C10.8984375 19.06510417 12.94921875 19.03255208 15 19 C15.33 19.66 15.66 20.32 16 21 C15.195625 21.28875 14.39125 21.5775 13.5625 21.875 C10.8673532 22.73262568 10.8673532 22.73262568 10 25 C7.03 25 4.06 25 1 25 C-0.27861615 22.44276771 -0.11336609 20.63262898 -0.09765625 17.7734375 C-0.09443359 16.7421875 -0.09121094 15.7109375 -0.08789062 14.6484375 C-0.07951172 13.56820313 -0.07113281 12.48796875 -0.0625 11.375 C-0.05798828 10.28703125 -0.05347656 9.1990625 -0.04882812 8.078125 C-0.0370179 5.38539338 -0.01908205 2.69268991 0 0 Z " fill="#03D8FB" transform="translate(309,329)"/>
<path d="M0 0 C1.134375 0.020625 2.26875 0.04125 3.4375 0.0625 C4.48366643 3.2009993 4.47919366 5.11288303 4.31640625 8.38671875 C4.26806641 9.41474609 4.21972656 10.44277344 4.16992188 11.50195312 C4.11384766 12.57380859 4.05777344 13.64566406 4 14.75 C3.94779297 15.83345703 3.89558594 16.91691406 3.84179688 18.03320312 C3.71208784 20.70992591 3.57712067 23.38627888 3.4375 26.0625 C1.4460944 26.44383299 -0.55529077 26.77575582 -2.5625 27.0625 C-5.18707268 24.43792732 -4.05560913 17.11191604 -4.1875 13.5625 C-4.2390625 12.38300781 -4.290625 11.20351563 -4.34375 9.98828125 C-4.38757813 8.86808594 -4.43140625 7.74789063 -4.4765625 6.59375 C-4.5173291 5.55798828 -4.5580957 4.52222656 -4.60009766 3.45507812 C-4.53934964 -0.41070469 -4.00082311 0.07018988 0 0 Z " fill="#11D5F3" transform="translate(268.5625,326.9375)"/>
<path d="M0 0 C2.01822917 0.06510417 4.03645833 0.13020833 6.0546875 0.1953125 C6.0546875 3.1953125 6.0546875 3.1953125 4.55859375 4.87890625 C3.26705218 6.04571141 1.97538603 7.21237867 0.68359375 8.37890625 C-1.17323394 10.4494695 -1.90882939 11.40174888 -1.9453125 14.1953125 C-0.26392466 16.77377426 -0.26392466 16.77377426 2.0546875 19.2578125 C4.3671875 21.85546875 4.3671875 21.85546875 6.0546875 24.1953125 C5.7246875 25.1853125 5.3946875 26.1753125 5.0546875 27.1953125 C-2.05524908 26.9542977 -2.05524908 26.9542977 -4.58984375 24.79296875 C-5.9453125 23.1328125 -5.9453125 23.1328125 -7.9453125 20.1953125 C-6.9553125 19.8653125 -5.9653125 19.5353125 -4.9453125 19.1953125 C-4.9453125 16.5553125 -4.9453125 13.9153125 -4.9453125 11.1953125 C-6.5953125 10.8653125 -8.2453125 10.5353125 -9.9453125 10.1953125 C-8.98898251 8.90216189 -8.03017399 7.61084397 -7.0703125 6.3203125 C-6.53664062 5.60101563 -6.00296875 4.88171875 -5.453125 4.140625 C-2.4330696 0.2442841 -2.4330696 0.2442841 0 0 Z " fill="#19D2EE" transform="translate(222.9453125,326.8046875)"/>
<path d="M0 0 C13 0 13 0 19 2 C21 4 21 4 21.25 7.5 C21 11 21 11 19 13 C18.93941406 12.36191406 18.87882812 11.72382813 18.81640625 11.06640625 C18.69072266 9.82697266 18.69072266 9.82697266 18.5625 8.5625 C18.48128906 7.73878906 18.40007812 6.91507812 18.31640625 6.06640625 C18.21069185 4.01337975 18.21069185 4.01337975 17 3 C14.67182036 2.63239269 12.3381615 2.29758419 10 2 C9.67 2.99 9.34 3.98 9 5 C11.64 5 14.28 5 17 5 C15.68 7.64 14.36 10.28 13 13 C10.36 12.67 7.72 12.34 5 12 C4.87625 12.61875 4.7525 13.2375 4.625 13.875 C4 16 4 16 2 18 C1.54188325 19.97235333 1.54188325 19.97235333 1.375 22.125 C1.25125 23.40375 1.1275 24.6825 1 26 C0.67 26 0.34 26 0 26 C0 17.42 0 8.84 0 0 Z M7 7 C7 8.32 7 9.64 7 11 C8.98 11 10.96 11 13 11 C13 9.68 13 8.36 13 7 C11.02 7 9.04 7 7 7 Z " fill="#18D1F1" transform="translate(362,327)"/>
<path d="M0 0 C1.75570312 0.01353516 1.75570312 0.01353516 3.546875 0.02734375 C4.43890625 0.03894531 5.3309375 0.05054688 6.25 0.0625 C2.91299043 2.28717305 0.32843134 2.88356561 -3.5625 3.8125 C-15.67172361 6.91262518 -26.0797952 11.87042113 -36.42163086 18.81103516 C-39.90640366 21.11305711 -41.46020071 22.0625 -45.75 22.0625 C-43.0810967 18.40511399 -40.70013947 16.24547181 -36.75 14.0625 C-36.09 13.4025 -35.43 12.7425 -34.75 12.0625 C-33.945625 11.753125 -33.14125 11.44375 -32.3125 11.125 C-29.75705148 10.26257938 -29.75705148 10.26257938 -28.31811523 8.59423828 C-25.69630888 6.03325228 -22.20577697 5.14656377 -18.8125 3.9375 C-18.09642578 3.67324219 -17.38035156 3.40898437 -16.64257812 3.13671875 C-10.87428767 1.03041065 -6.21284094 -0.06212841 0 0 Z " fill="#505051" transform="translate(304.75,207.9375)"/>
<path d="M0 0 C0.33 0 0.66 0 1 0 C0.85978195 2.64624284 0.71310224 5.29184578 0.5625 7.9375 C0.50352539 9.06961914 0.50352539 9.06961914 0.44335938 10.22460938 C0.11328125 15.88671875 0.11328125 15.88671875 -1 17 C-1.14421154 18.40197402 -1.22686124 19.81042831 -1.28125 21.21875 C-1.31863281 22.06824219 -1.35601562 22.91773438 -1.39453125 23.79296875 C-1.42933594 24.68628906 -1.46414063 25.57960937 -1.5 26.5 C-1.56859443 28.26059038 -1.64128952 30.02102741 -1.71875 31.78125 C-1.74904297 32.56564453 -1.77933594 33.35003906 -1.81054688 34.15820312 C-2 36 -2 36 -3 37 C-3.04063832 38.66617115 -3.042721 40.33388095 -3 42 C-2.01 41.34 -1.02 40.68 0 40 C1 41 1 41 1.01953125 43.58203125 C0.95121094 44.64808594 0.88289063 45.71414063 0.8125 46.8125 C0.75707031 47.87082031 0.70164062 48.92914063 0.64453125 50.01953125 C-0.12634072 53.5842301 -1.33433426 54.60339211 -4 57 C-5.28780295 59.09900132 -5.28780295 59.09900132 -6.25 61.25 C-6.58515625 61.95640625 -6.9203125 62.6628125 -7.265625 63.390625 C-7.62914062 64.18726563 -7.62914062 64.18726563 -8 65 C-9.23406601 61.29780198 -8.64442843 58.44436307 -8.0390625 54.69140625 C-7.929039 53.96944565 -7.8190155 53.24748505 -7.70565796 52.50364685 C-7.35212274 50.18884329 -6.98928081 47.87563493 -6.625 45.5625 C-6.15371031 42.54374188 -5.6872247 39.52430465 -5.2265625 36.50390625 C-5.11418747 35.76832489 -5.00181244 35.03274353 -4.8860321 34.27487183 C-4.10937254 29.06213339 -3.60788662 23.86462742 -3.22851562 18.60717773 C-2.89180093 14.76553648 -2.20510477 11.02558708 -1.4375 7.25 C-1.29892578 6.54101562 -1.16035156 5.83203125 -1.01757812 5.1015625 C-0.68414485 3.399903 -0.34297239 1.69976255 0 0 Z " fill="#132D32" transform="translate(323,218)"/>
<path d="M0 0 C0.99 0.66 1.98 1.32 3 2 C3.1875 5.4375 3.1875 5.4375 3 9 C3 9.99 3 10.98 3 12 C3.33 12.33 3.66 12.66 4 13 C4.36759816 16.89654046 4.57929325 19.16324309 2.3125 22.4375 C-0.38410809 24.25953249 -1.81126451 24.35430394 -5 24 C-4.67 23.34 -4.34 22.68 -4 22 C-2.35 22 -0.7 22 1 22 C0.67 20.68 0.34 19.36 0 18 C0.66 17.67 1.32 17.34 2 17 C2 16.01 2 15.02 2 14 C0.68 13.67 -0.64 13.34 -2 13 C-2.33 15.31 -2.66 17.62 -3 20 C-5.33294775 20.04241723 -7.66702567 20.04092937 -10 20 C-11 19 -11 19 -11.0625 15.9375 C-11.041875 14.968125 -11.02125 13.99875 -11 13 C-9.35 12.34 -7.7 11.68 -6 11 C-7.65 10.67 -9.3 10.34 -11 10 C-11 8.35 -11 6.7 -11 5 C-10.67 5.99 -10.34 6.98 -10 8 C-8.35 8 -6.7 8 -5 8 C-5 7.01 -5 6.02 -5 5 C-5.66 4.67 -6.32 4.34 -7 4 C-4.69 3.34 -2.38 2.68 0 2 C0 1.34 0 0.68 0 0 Z M-10 14 C-10 15.32 -10 16.64 -10 18 C-8.02 18 -6.04 18 -4 18 C-4.33 16.68 -4.66 15.36 -5 14 C-6.65 14 -8.3 14 -10 14 Z " fill="#18CEEF" transform="translate(136,329)"/>
<path d="M0 0 C1.65 0 3.3 0 5 0 C5 8.25 5 16.5 5 25 C-2 25 -2 25 -4 24 C-4.75 21.5625 -4.75 21.5625 -5 19 C-4.34 18.34 -3.68 17.68 -3 17 C-1.15989971 13.22051344 -0.65022875 9.86180268 -0.375 5.6875 C-0.30023438 4.61886719 -0.22546875 3.55023438 -0.1484375 2.44921875 C-0.09945313 1.64097656 -0.05046875 0.83273437 0 0 Z " fill="#05D7F8" transform="translate(297,329)"/>
<path d="M0 0 C2.47923801 -0.02685095 4.9581884 -0.04676547 7.4375 -0.0625 C8.14455078 -0.07087891 8.85160156 -0.07925781 9.58007812 -0.08789062 C11.38693559 -0.09653588 13.19387603 -0.05220011 15 0 C16.65773063 1.65773063 16.19257511 3.64813277 16.25292969 5.93115234 C16.29737213 7.50816422 16.29737213 7.50816422 16.3427124 9.11703491 C16.36883606 10.26177277 16.39495972 11.40651062 16.421875 12.5859375 C16.46371918 14.33772812 16.46371918 14.33772812 16.50640869 16.12490845 C16.56292131 18.60143868 16.61652453 21.07803671 16.66748047 23.5546875 C16.74950458 27.35206431 16.85301528 31.1484831 16.95703125 34.9453125 C17.00914664 37.34632558 17.05997068 39.74736711 17.109375 42.1484375 C17.14359558 43.28912689 17.17781616 44.42981628 17.21307373 45.60507202 C17.23009338 46.66271759 17.24711304 47.72036316 17.26464844 48.81005859 C17.28605896 49.74191986 17.30746948 50.67378113 17.32952881 51.63388062 C17 54 17 54 14 57 C14 38.85 14 20.7 14 2 C9.38 2 4.76 2 0 2 C0 1.34 0 0.68 0 0 Z " fill="#072F36" transform="translate(243,239)"/>
<path d="M0 0 C0.33 0.66 0.66 1.32 1 2 C1.66 2.33 2.32 2.66 3 3 C2.45730469 3.31710938 1.91460937 3.63421875 1.35546875 3.9609375 C-4.19672774 7.58237017 -6.10610685 10.58712778 -7.625 17.0234375 C-7.74875 17.67570312 -7.8725 18.32796875 -8 19 C-8.66 19 -9.32 19 -10 19 C-10 19.99 -10 20.98 -10 22 C-12.97 22 -15.94 22 -19 22 C-19.33 20.35 -19.66 18.7 -20 17 C-21.98 17 -23.96 17 -26 17 C-26 16.67 -26 16.34 -26 16 C-21.05 16 -16.1 16 -11 16 C-11 13.69 -11 11.38 -11 9 C-9.5390625 7.22265625 -9.5390625 7.22265625 -7.625 6.0625 C-6.99851562 5.66160156 -6.37203125 5.26070312 -5.7265625 4.84765625 C-4 4 -4 4 -2 4 C-1.34 2.68 -0.68 1.36 0 0 Z " fill="#1D1D1B" transform="translate(268,164)"/>
<path d="M0 0 C0.33 0 0.66 0 1 0 C1 5.94 1 11.88 1 18 C-0.98 18 -2.96 18 -5 18 C-5.33 17.01 -5.66 16.02 -6 15 C-6.99 14.67 -7.98 14.34 -9 14 C-9 13.34 -9 12.68 -9 12 C-10.32 11.34 -11.64 10.68 -13 10 C-12.31292969 9.52949219 -11.62585938 9.05898438 -10.91796875 8.57421875 C-10.01691406 7.95160156 -9.11585938 7.32898438 -8.1875 6.6875 C-7.29417969 6.07261719 -6.40085938 5.45773437 -5.48046875 4.82421875 C-3.43686528 3.32128517 -1.76105799 1.80550109 0 0 Z " fill="#07A1BC" transform="translate(236,283)"/>
<path d="M0 0 C5.61 0 11.22 0 17 0 C17 1.32 17 2.64 17 4 C14.59454362 5.20272819 13.05003047 5.10071472 10.375 5.0625 C9.14910156 5.04896484 9.14910156 5.04896484 7.8984375 5.03515625 C6.95871094 5.01775391 6.95871094 5.01775391 6 5 C5.87753906 5.63421875 5.75507813 6.2684375 5.62890625 6.921875 C5 9 5 9 2.9375 10.25 C2.298125 10.4975 1.65875 10.745 1 11 C0.67 10.01 0.34 9.02 0 8 C0 12.95 0 17.9 0 23 C-0.33 23 -0.66 23 -1 23 C-1.02706445 20.10410348 -1.04687029 17.20846205 -1.0625 14.3125 C-1.07087891 13.49587891 -1.07925781 12.67925781 -1.08789062 11.83789062 C-1.09111328 11.04189453 -1.09433594 10.24589844 -1.09765625 9.42578125 C-1.10551147 8.33390503 -1.10551147 8.33390503 -1.11352539 7.2199707 C-1 5 -1 5 0 0 Z " fill="#06DCFA" transform="translate(339,329)"/>
<path d="M0 0 C2.4375 0.375 2.4375 0.375 5 1 C6.30459914 3.60919828 6.1326594 5.58942615 6.125 8.5 C6.12757813 9.4796875 6.13015625 10.459375 6.1328125 11.46875 C6 14 6 14 5 16 C3.68 16 2.36 16 1 16 C1 16.99 1 17.98 1 19 C-0.65 19.33 -2.3 19.66 -4 20 C-4 19.01 -4 18.02 -4 17 C-3.34 17 -2.68 17 -2 17 C-1.93941406 15.94039063 -1.87882813 14.88078125 -1.81640625 13.7890625 C-1.73199873 12.40102779 -1.64735083 11.01300768 -1.5625 9.625 C-1.50352539 8.57699219 -1.50352539 8.57699219 -1.44335938 7.5078125 C-1.11328125 2.2265625 -1.11328125 2.2265625 0 0 Z " fill="#0FD3F6" transform="translate(194,332)"/>
<path d="M0 0 C3 0.125 3 0.125 4 1.125 C4.08737645 2.97869611 4.10698153 4.83567541 4.09765625 6.69140625 C4.09443359 7.81611328 4.09121094 8.94082031 4.08789062 10.09960938 C4.07951172 11.28361328 4.07113281 12.46761719 4.0625 13.6875 C4.05798828 14.87537109 4.05347656 16.06324219 4.04882812 17.28710938 C4.03699675 20.23312226 4.02051287 23.17903681 4 26.125 C3.67 26.125 3.34 26.125 3 26.125 C3 18.205 3 10.285 3 2.125 C1.35 2.125 -0.3 2.125 -2 2.125 C-1.96519531 2.91003906 -1.93039062 3.69507813 -1.89453125 4.50390625 C-1.72863578 10.94223061 -1.92423244 15.44665988 -5 21.125 C-5.66 22.445 -6.32 23.765 -7 25.125 C-8.98 21.165 -10.96 17.205 -13 13.125 C-12.01 13.125 -11.02 13.125 -10 13.125 C-9.87625 13.764375 -9.7525 14.40375 -9.625 15.0625 C-9.315625 16.0834375 -9.315625 16.0834375 -9 17.125 C-8.34 17.455 -7.68 17.785 -7 18.125 C-7.33 15.155 -7.66 12.185 -8 9.125 C-7.01 10.115 -6.02 11.105 -5 12.125 C-4.93941406 11.34253906 -4.87882812 10.56007813 -4.81640625 9.75390625 C-4.73261719 8.74199219 -4.64882813 7.73007812 -4.5625 6.6875 C-4.48128906 5.67816406 -4.40007812 4.66882813 -4.31640625 3.62890625 C-3.8577552 -0.00066568 -3.73575468 0.15565645 0 0 Z " fill="#2DC9E8" transform="translate(299,326.875)"/>
<path d="M0 0 C2 3.75 2 3.75 2 6 C4.64 6 7.28 6 10 6 C10.33 4.35 10.66 2.7 11 1 C11.93423645 4.01031744 12.04449911 4.86650268 11 8 C10.34 8.66 9.68 9.32 9 10 C10.65 10 12.3 10 14 10 C14 9.01 14 8.02 14 7 C14.99 7 15.98 7 17 7 C16.02703346 9.65354511 15.34207577 10.79877896 12.875 12.25 C7.41440663 13.67450262 3.04252051 13.85646376 -1.9375 11.1875 C-5 9 -5 9 -6 6 C-5.34 6 -4.68 6 -4 6 C-3.67 6.33 -3.34 6.66 -3 7 C-2.34 6.67 -1.68 6.34 -1 6 C-0.34227572 2.97065509 -0.34227572 2.97065509 0 0 Z " fill="#14D2F0" transform="translate(181,341)"/>
<path d="M0 0 C0.33 0 0.66 0 1 0 C1.09631665 8.93604515 1.02530768 17.7323246 0.22265625 26.640625 C-0.20451042 33.08559575 -0.07458437 39.5443084 0 46 C4.65052872 46.26932521 4.65052872 46.26932521 9 45 C8.34 46.98 7.68 48.96 7 51 C5.5199159 50.88637738 4.04089926 50.75877092 2.5625 50.625 C1.73878906 50.55539062 0.91507812 50.48578125 0.06640625 50.4140625 C-0.61550781 50.27742188 -1.29742187 50.14078125 -2 50 C-6.34035685 41.3192863 -2.43717384 25.0380194 -1.5 15.5625 C-1.35482419 14.04107699 -1.21028996 12.51959262 -1.06640625 10.99804688 C-0.71829184 7.33129781 -0.36163908 3.66544295 0 0 Z " fill="#2BB4D0" transform="translate(265,255)"/>
<path d="M0 0 C1.32 0.33 2.64 0.66 4 1 C4.84888195 6.37625234 5.0024305 10.65370398 4 16 C2.68 16.33 1.36 16.66 0 17 C0 16.34 0 15.68 0 15 C-0.99 14.67 -1.98 14.34 -3 14 C-4.125 6.375 -4.125 6.375 -3 3 C-2.01 3 -1.02 3 0 3 C0 2.01 0 1.02 0 0 Z " fill="#09D7F9" transform="translate(177,332)"/>
<path d="M0 0 C1.32 0 2.64 0 4 0 C4 0.66 4 1.32 4 2 C6.97 2.495 6.97 2.495 10 3 C10 25.11 10 47.22 10 70 C9.67 70 9.34 70 9 70 C8.99048813 69.20930618 8.98097626 68.41861237 8.97117615 67.60395813 C8.87530679 60.14346039 8.74634018 52.68461093 8.58038235 45.22536945 C8.49622611 41.39058254 8.42478181 37.5564434 8.38256836 33.72094727 C8.34133828 30.01759771 8.26648242 26.31630224 8.16850471 22.61403465 C8.13704101 21.20330458 8.11759509 19.79225242 8.11050224 18.38118935 C8.37925921 10.71394939 8.37925921 10.71394939 5.36819458 4.02938843 C3.26821084 2.462294 3.26821084 2.462294 0 1 C0 0.67 0 0.34 0 0 Z " fill="#08272C" transform="translate(229,233)"/>
<path d="M0 0 C3.2578125 -0.29296875 3.2578125 -0.29296875 7.125 -0.1875 C9.04699219 -0.14689453 9.04699219 -0.14689453 11.0078125 -0.10546875 C11.99523437 -0.07066406 12.98265625 -0.03585937 14 0 C14.33 0.99 14.66 1.98 15 3 C10.73383684 4.13764351 7.43513689 5 3 5 C2.67 7.64 2.34 10.28 2 13 C0.68 12.67 -0.64 12.34 -2 12 C-2.05422947 10.5629191 -2.09289723 9.12524538 -2.125 7.6875 C-2.14820312 6.88699219 -2.17140625 6.08648437 -2.1953125 5.26171875 C-2 3 -2 3 0 0 Z " fill="#02D8FA" transform="translate(122,329)"/>
<path d="M0 0 C12.78660364 -0.46031773 22.33608199 0.53772019 33 8 C33.99 8.66 34.98 9.32 36 10 C36 10.66 36 11.32 36 12 C31.98109435 10.70204232 28.09165428 9.23168996 24.1875 7.625 C16.32269447 4.55736173 8.23925157 2.76625872 0 1 C0 0.67 0 0.34 0 0 Z " fill="#AEACAE" transform="translate(187,208)"/>
<path d="M0 0 C11.13151078 2.14067515 22.92566091 11.38104663 31 19 C31 19.66 31 20.32 31 21 C26.55183344 20.468154 24.02612439 18.82902235 20.5 16.125 C17.78326044 14.05692017 15.19361342 12.10931544 12.21875 10.4296875 C10 9 10 9 9 6 C6.91187542 4.54355243 6.91187542 4.54355243 4.4375 3.3125 C3.61121094 2.87550781 2.78492188 2.43851563 1.93359375 1.98828125 C1.29550781 1.66214844 0.65742188 1.33601562 0 1 C0 0.67 0 0.34 0 0 Z " fill="#5E5C5E" transform="translate(213,212)"/>
<path d="M0 0 C15.32142857 0 15.32142857 0 21 3 C22.5 5.1875 22.5 5.1875 23 7 C21.824375 7.12375 21.824375 7.12375 20.625 7.25 C17.85250896 7.72806339 17.85250896 7.72806339 16.6875 10.0625 C16.3471875 11.0215625 16.3471875 11.0215625 16 12 C15.7525 11.38125 15.505 10.7625 15.25 10.125 C13.79371361 7.64931313 12.62187494 7.04874998 10 6 C10.639375 5.87625 11.27875 5.7525 11.9375 5.625 C12.618125 5.41875 13.29875 5.2125 14 5 C14.33 4.34 14.66 3.68 15 3 C8.07 2.505 8.07 2.505 1 2 C1.33 9.92 1.66 17.84 2 26 C1.34 26 0.68 26 0 26 C0 17.42 0 8.84 0 0 Z " fill="#2EC8E6" transform="translate(308,327)"/>
<path d="M0 0 C2.475 0.495 2.475 0.495 5 1 C4.33333333 3.66666667 3.66666667 6.33333333 3 9 C1.35 9.33 -0.3 9.66 -2 10 C-2 10.66 -2 11.32 -2 12 C-5.96 12 -9.92 12 -14 12 C-14.33 10.02 -14.66 8.04 -15 6 C-14.67 6.99 -14.34 7.98 -14 9 C-13.34 9 -12.68 9 -12 9 C-12 8.34 -12 7.68 -12 7 C-8.37 7 -4.74 7 -1 7 C-0.67 4.69 -0.34 2.38 0 0 Z " fill="#03DAF9" transform="translate(134,342)"/>
<path d="M0 0 C5.4939759 2.69879518 5.4939759 2.69879518 6.875 6.25 C6.91625 6.8275 6.9575 7.405 7 8 C6.34 8 5.68 8 5 8 C5 7.01 5 6.02 5 5 C-0.32932432 3.29915181 -5.43109483 2.47986031 -11 2 C-11 2.99 -11 3.98 -11 5 C-8.36 4.67 -5.72 4.34 -3 4 C-2.67 4.66 -2.34 5.32 -2 6 C-3.98 6.33 -5.96 6.66 -8 7 C-8.66 8.98 -9.32 10.96 -10 13 C-10.61875 12.1028125 -10.61875 12.1028125 -11.25 11.1875 C-12.9907299 9.01158763 -14.71695821 7.57451158 -17 6 C-11.32480739 0.17546022 -8.07657129 -0.90289388 0 0 Z " fill="#15D1EF" transform="translate(162,327)"/>
<path d="M0 0 C3.57011026 3.732388 4.10913442 8.0949989 5 13 C2.36 13 -0.28 13 -3 13 C-3.25523437 12.16855469 -3.25523437 12.16855469 -3.515625 11.3203125 C-4.90825986 6.74877023 -4.90825986 6.74877023 -8.1875 3.5 C-8.785625 3.335 -9.38375 3.17 -10 3 C-7.69 3.33 -5.38 3.66 -3 4 C-3 3.01 -3 2.02 -3 1 C-1 2 -1 2 0 3 C0 2.01 0 1.02 0 0 Z " fill="#10D3F7" transform="translate(379,340)"/>
<path d="M0 0 C6.19887485 -0.37952295 10.4477112 0.1647887 16 3 C16 3.99 16 4.98 16 6 C16.66 6 17.32 6 18 6 C18 8.31 18 10.62 18 13 C11.61310782 10.95137421 11.61310782 10.95137421 9.8671875 8.2421875 C9.15326039 6.5301487 8.56654702 4.76629365 8 3 C5.36 3 2.72 3 0 3 C0 2.01 0 1.02 0 0 Z " fill="#13CFEF" transform="translate(151,329)"/>
<path d="M0 0 C0 10.89 0 21.78 0 33 C-0.99 32.34 -1.98 31.68 -3 31 C-2.835 30.38125 -2.67 29.7625 -2.5 29.125 C-1.79924683 24.74529271 -1.92265749 20.42571011 -2 16 C-2.66 16.33 -3.32 16.66 -4 17 C-4.08076963 14.54101345 -4.14037143 12.08466258 -4.1875 9.625 C-4.21263672 8.92632812 -4.23777344 8.22765625 -4.26367188 7.5078125 C-4.29296875 5.4765625 -4.29296875 5.4765625 -4 2 C-1 0 -1 0 0 0 Z " fill="#11191A" transform="translate(263,245)"/>
<path d="M0 0 C-3.35774035 2.23849356 -6.86189724 3.69520025 -10.5625 5.25 C-16.40186145 7.73986997 -21.84087663 10.4678911 -27.1796875 13.93359375 C-29 15 -29 15 -31 15 C-29.2378332 9.71349959 -23.6354325 7.7193744 -19 5 C-17.69482422 4.22462891 -17.69482422 4.22462891 -16.36328125 3.43359375 C-10.60941099 0.26309381 -6.5543378 -0.52857563 0 0 Z " fill="#091E22" transform="translate(301,219)"/>
<path d="M0 0 C4.29841143 2.3759723 6.96875001 4.79687502 9.6875 8.875 C9.6875 9.535 9.6875 10.195 9.6875 10.875 C8.6975 10.875 7.7075 10.875 6.6875 10.875 C6.6875 9.555 6.6875 8.235 6.6875 6.875 C6.0275 6.875 5.3675 6.875 4.6875 6.875 C4.3575 7.865 4.0275 8.855 3.6875 9.875 C3.0275 9.875 2.3675 9.875 1.6875 9.875 C1.3575 8.555 1.0275 7.235 0.6875 5.875 C1.6775 5.875 2.6675 5.875 3.6875 5.875 C3.0275 5.545 2.3675 5.215 1.6875 4.875 C1.6875 4.215 1.6875 3.555 1.6875 2.875 C-5.74909188 0.85829712 -12.62854457 0.6612269 -20.3125 0.875 C-14.9959724 -4.4415276 -6.23042314 -2.91001799 0 0 Z " fill="#D99B36" transform="translate(259.3125,130.125)"/>
<path d="M0 0 C0.66 0.33 1.32 0.66 2 1 C1.8125 4.3125 1.8125 4.3125 1 8 C-1.0625 9.625 -1.0625 9.625 -4 11 C-4.59167969 11.47050781 -5.18335938 11.94101562 -5.79296875 12.42578125 C-7.85533424 14.01886597 -9.52956749 15.15299457 -12 16 C-15.38276559 15.28783882 -18.05568645 13.76548124 -21 12 C-22.32872005 11.32418549 -23.66068833 10.6545735 -25 10 C-20.1666528 9.91666643 -15.76307437 10.04738513 -11 11 C-11 10.34 -11 9.68 -11 9 C-7.7 8.67 -4.4 8.34 -1 8 C-0.67 5.36 -0.34 2.72 0 0 Z " fill="#269CAE" transform="translate(313,282)"/>
<path d="M0 0 C6.6 0 13.2 0 20 0 C20 1.98 20 3.96 20 6 C19.67 4.68 19.34 3.36 19 2 C13.39 2 7.78 2 2 2 C2 9.92 2 17.84 2 26 C1.34 26 0.68 26 0 26 C0 17.42 0 8.84 0 0 Z " fill="#37C9E3" transform="translate(337,327)"/>
<path d="M0 0 C0.33 0.66 0.66 1.32 1 2 C-2.75 5 -2.75 5 -5 5 C-5.28875 5.78375 -5.5775 6.5675 -5.875 7.375 C-7 10 -7 10 -9 12 C-9.24212873 13.98128508 -9.24212873 13.98128508 -9.125 16.125 C-9.08375 17.40375 -9.0425 18.6825 -9 20 C-9.66 20 -10.32 20 -11 20 C-11.33 23.63 -11.66 27.26 -12 31 C-12.33 31 -12.66 31 -13 31 C-14.21510401 23.97939903 -15.6465564 15.07555104 -11.58203125 8.81640625 C-8.15642781 5.30005835 -4.17978513 2.54864947 0 0 Z " fill="#1CCAE5" transform="translate(279,230)"/>
<path d="M0 0 C0 3 0 3 -1.53125 4.82421875 C-2.50578125 5.74654297 -2.50578125 5.74654297 -3.5 6.6875 C-4.1496875 7.31011719 -4.799375 7.93273437 -5.46875 8.57421875 C-5.9740625 9.04472656 -6.479375 9.51523437 -7 10 C-7.33 9.34 -7.66 8.68 -8 8 C-8.99 8 -9.98 8 -11 8 C-11.21620175 5.3335118 -11.30894168 3.55995679 -10 1.1875 C-6.76011038 -0.73618446 -3.7174181 -0.18282384 0 0 Z " fill="#0DD2F5" transform="translate(229,327)"/>
<path d="M0 0 C2.49505962 2.49505962 2.35948376 3.67328888 2.625 7.125 C2.69976562 8.03507812 2.77453125 8.94515625 2.8515625 9.8828125 C2.92503906 10.93082031 2.92503906 10.93082031 3 12 C4.32 11.67 5.64 11.34 7 11 C7 14 7 17 7 20 C8.32 20.66 9.64 21.32 11 22 C11 22.66 11 23.32 11 24 C4.43942505 22.10472279 4.43942505 22.10472279 2 19 C0.12906745 12.8069131 -0.24256893 6.42807668 0 0 Z " fill="#1CB9D4" transform="translate(184,270)"/>
<path d="M0 0 C3.63 0 7.26 0 11 0 C11 0.33 11 0.66 11 1 C9.35 1.33 7.7 1.66 6 2 C6.37125 2.5775 6.7425 3.155 7.125 3.75 C7.41375 4.4925 7.7025 5.235 8 6 C7.34 7.32 6.68 8.64 6 10 C9.63 10.66 13.26 11.32 17 12 C13.49911058 12.87522236 11.87377564 13.05306882 8.453125 12.66015625 C7.60878906 12.56669922 6.76445312 12.47324219 5.89453125 12.37695312 C4.58548828 12.22129883 4.58548828 12.22129883 3.25 12.0625 C2.36183594 11.96259766 1.47367188 11.86269531 0.55859375 11.75976562 C-1.62840871 11.51284599 -3.81444667 11.25938365 -6 11 C-6 10.67 -6 10.34 -6 10 C-3.36 9.67 -0.72 9.34 2 9 C2.33 7.35 2.66 5.7 3 4 C2.01 3.67 1.02 3.34 0 3 C0 2.01 0 1.02 0 0 Z " fill="#0D343C" transform="translate(184,207)"/>
<path d="M0 0 C0.33 0 0.66 0 1 0 C1.44534366 6.95230941 1.67289916 11.59696035 -3 17 C-3.66 16.67 -4.32 16.34 -5 16 C-4.67 14.68 -4.34 13.36 -4 12 C-4.99 11.67 -5.98 11.34 -7 11 C-7 11.66 -7 12.32 -7 13 C-7.66 12.67 -8.32 12.34 -9 12 C-8.01 9.36 -7.02 6.72 -6 4 C-3.525 4.99 -3.525 4.99 -1 6 C-0.67 4.02 -0.34 2.04 0 0 Z " fill="#1CCFF0" transform="translate(169,335)"/>
<path d="M0 0 C2 2 2 2 2.1953125 5.2578125 C2.16050781 7.17207031 2.16050781 7.17207031 2.125 9.125 C2.10695313 10.40632813 2.08890625 11.68765625 2.0703125 13.0078125 C2.04710937 13.99523437 2.02390625 14.98265625 2 16 C0.35 16.33 -1.3 16.66 -3 17 C-2.88630789 14.54066009 -2.75957349 12.0832091 -2.625 9.625 C-2.5940625 8.92632812 -2.563125 8.22765625 -2.53125 7.5078125 C-2.2265625 2.2265625 -2.2265625 2.2265625 0 0 Z " fill="#02D7FA" transform="translate(282,337)"/>
<path d="M0 0 C0.28875 0.598125 0.5775 1.19625 0.875 1.8125 C2.04742026 4.19327792 2.04742026 4.19327792 4 7 C4.1953125 9.69921875 4.1953125 9.69921875 4.125 12.6875 C4.10695312 13.68136719 4.08890625 14.67523438 4.0703125 15.69921875 C4.03550781 16.83810547 4.03550781 16.83810547 4 18 C3.071875 16.824375 3.071875 16.824375 2.125 15.625 C0.10141339 13.03162353 0.10141339 13.03162353 -2 11 C-2.74713966 8.35411443 -3.06745073 5.74861744 -3 3 C-1.5625 1 -1.5625 1 0 0 Z " fill="#222324" transform="translate(179,259)"/>
<path d="M0 0 C2.125 0.375 2.125 0.375 4 1 C4.0270043 2.45823212 4.04639787 3.91660675 4.0625 5.375 C4.07410156 6.18710937 4.08570313 6.99921875 4.09765625 7.8359375 C4 10 4 10 3 12 C1.35 11.67 -0.3 11.34 -2 11 C-2.05399736 9.54207116 -2.09279177 8.08357288 -2.125 6.625 C-2.15980469 5.40683594 -2.15980469 5.40683594 -2.1953125 4.1640625 C-2 2 -2 2 0 0 Z " fill="#04D6FB" transform="translate(327,333)"/>
<path d="M0 0 C0.33 0.66 0.66 1.32 1 2 C1.66 2.33 2.32 2.66 3 3 C-0.99613521 6.71069698 -3.37082652 8.59791618 -9 9 C-8.938125 9.928125 -8.87625 10.85625 -8.8125 11.8125 C-9 15 -9 15 -10.0625 16.71875 C-13.09431941 18.72366284 -15.64382256 18.04511882 -19.1875 17.6875 C-20.45980469 17.56761719 -21.73210937 17.44773438 -23.04296875 17.32421875 C-24.01878906 17.21722656 -24.99460938 17.11023438 -26 17 C-26 16.67 -26 16.34 -26 16 C-21.05 16 -16.1 16 -11 16 C-11 13.69 -11 11.38 -11 9 C-9.5390625 7.22265625 -9.5390625 7.22265625 -7.625 6.0625 C-6.99851562 5.66160156 -6.37203125 5.26070312 -5.7265625 4.84765625 C-4 4 -4 4 -2 4 C-1.34 2.68 -0.68 1.36 0 0 Z " fill="#311D02" transform="translate(268,164)"/>
<path d="M0 0 C-0.11409682 2.10478604 -0.24165361 4.20884577 -0.375 6.3125 C-0.44460938 7.48425781 -0.51421875 8.65601563 -0.5859375 9.86328125 C-1 13 -1 13 -3 16 C-2.67 11.05 -2.34 6.1 -2 1 C-3.959375 1.144375 -5.91875 1.28875 -7.9375 1.4375 C-9.03964844 1.51871094 -10.14179688 1.59992188 -11.27734375 1.68359375 C-13.91109903 1.70418084 -13.91109903 1.70418084 -15 3 C-17.34723966 3.397493 -19.70328548 3.74368723 -22.0625 4.0625 C-23.35285156 4.23910156 -24.64320313 4.41570312 -25.97265625 4.59765625 C-26.97167969 4.73042969 -27.97070312 4.86320313 -29 5 C-28 3 -28 3 -25.83984375 2.1484375 C-17.10103837 -0.1803424 -8.95964751 -0.306993 0 0 Z " fill="#26B1CA" transform="translate(323,218)"/>
<path d="M0 0 C1.05239592 1.57859387 2.09336394 3.16971972 3.0078125 4.83203125 C5.31005284 8.9132755 7.37372042 11.46917964 11.3125 14.0625 C13.39453125 15.48046875 13.39453125 15.48046875 15 17 C15.5 20.875 15.5 20.875 15 24 C14.67 24 14.34 24 14 24 C13.67 22.02 13.34 20.04 13 18 C11.02 17.34 9.04 16.68 7 16 C7 15.34 7 14.68 7 14 C6.01 14.33 5.02 14.66 4 15 C1.54510684 9.87674471 0.49658297 5.66104589 0 0 Z " fill="#361F0E" transform="translate(226,156)"/>
<path d="M0 0 C0.66 0 1.32 0 2 0 C2 0.99 2 1.98 2 3 C5.63 3 9.26 3 13 3 C13 4.98 13 6.96 13 9 C9.7 9.33 6.4 9.66 3 10 C2.67 12.97 2.34 15.94 2 19 C1.67 19 1.34 19 1 19 C1 15.37 1 11.74 1 8 C4.3 8 7.6 8 11 8 C11 7.01 11 6.02 11 5 C10.37351562 5.01160156 9.74703125 5.02320313 9.1015625 5.03515625 C8.28429687 5.04417969 7.46703125 5.05320312 6.625 5.0625 C5.81289062 5.07410156 5.00078125 5.08570313 4.1640625 5.09765625 C2 5 2 5 0 4 C0 2.68 0 1.36 0 0 Z " fill="#26CAE5" transform="translate(247,334)"/>
<path d="M0 0 C0.66 0 1.32 0 2 0 C2.33 0.66 2.66 1.32 3 2 C3.99 2.33 4.98 2.66 6 3 C6.33 3.99 6.66 4.98 7 6 C10.50294871 7.71567661 10.50294871 7.71567661 14 9 C14 11.64 14 14.28 14 17 C18.62 17 23.24 17 28 17 C28 17.33 28 17.66 28 18 C22.72 18 17.44 18 12 18 C11.67 15.69 11.34 13.38 11 11 C9.32792436 9.0977843 9.32792436 9.0977843 7.125 7.875 C3.74161195 5.61940797 1.77112082 3.76363175 0 0 Z " fill="#B57E27" transform="translate(229,162)"/>
<path d="M0 0 C3.96 0 7.92 0 12 0 C12 1.98 12 3.96 12 6 C8.04 6 4.08 6 0 6 C1.32 5.67 2.64 5.34 4 5 C4 4.34 4 3.68 4 3 C2.68 2.34 1.36 1.68 0 1 C0 0.67 0 0.34 0 0 Z " fill="#18CEEF" transform="translate(344,337)"/>
<path d="M0 0 C0.33 0.66 0.66 1.32 1 2 C3.31 2 5.62 2 8 2 C8 2.66 8 3.32 8 4 C6.02 4 4.04 4 2 4 C1.34 6.97 0.68 9.94 0 13 C-0.33 13 -0.66 13 -1 13 C-1.33 10.69 -1.66 8.38 -2 6 C-2.99 5.67 -3.98 5.34 -5 5 C-5 5.99 -5 6.98 -5 8 C-5.66 8 -6.32 8 -7 8 C-5.98823563 4.59679258 -5.35156418 3.24274669 -2.375 1.1875 C-1.59125 0.795625 -0.8075 0.40375 0 0 Z " fill="#0CD3F4" transform="translate(182,327)"/>
<path d="M0 0 C2.31 0 4.62 0 7 0 C2.9693752 4.42068526 -1.61537138 8.31776927 -7 11 C-7.99 10.67 -8.98 10.34 -10 10 C-7.32654333 6.33637419 -4.92461366 4.22748343 -1 2 C-0.67 1.34 -0.34 0.68 0 0 Z " fill="#58575C" transform="translate(269,220)"/>
<path d="M0 0 C1.75570313 0.01353516 1.75570313 0.01353516 3.546875 0.02734375 C4.43890625 0.03894531 5.3309375 0.05054688 6.25 0.0625 C2.87779599 2.310636 -0.38804748 3.23118014 -4.25 4.25 C-5.26513672 4.53520508 -5.26513672 4.53520508 -6.30078125 4.82617188 C-9.64960881 5.72117411 -11.39298405 6.18150532 -14.75 5.0625 C-10.10815018 -0.07669087 -6.77865552 -0.06778656 0 0 Z " fill="#B5B5B5" transform="translate(304.75,207.9375)"/>
<path d="M0 0 C8.00945568 -0.30372936 14.69065285 -0.50848663 22 3 C19 4 19 4 16.4375 3 C11.82731418 1.65885503 7.67740738 2.00172373 3 3 C2.01 3.66 1.02 4.32 0 5 C-2.625 4.75 -2.625 4.75 -5 4 C-5.33 3.34 -5.66 2.68 -6 2 C-4.02 2 -2.04 2 0 2 C0 1.34 0 0.68 0 0 Z " fill="#2CB9D0" transform="translate(201,292)"/>
<path d="M0 0 C2.475 0.99 2.475 0.99 5 2 C5 2.66 5 3.32 5 4 C4.01 4 3.02 4 2 4 C2 4.66 2 5.32 2 6 C1.34 6 0.68 6 0 6 C0.061875 7.3303125 0.061875 7.3303125 0.125 8.6875 C0 12 0 12 -0.9375 14.25 C-2.53269551 18.37874131 -2.67614006 22.61084561 -3 27 C-3.33 27 -3.66 27 -4 27 C-4.18904378 20.50949678 -4.20128837 15.16360745 -2 9 C-2.2784375 7.4221875 -2.2784375 7.4221875 -2.5625 5.8125 C-2.706875 4.884375 -2.85125 3.95625 -3 3 C-1.5625 1.125 -1.5625 1.125 0 0 Z " fill="#291D15" transform="translate(229,129)"/>
<path d="M0 0 C1.32 0 2.64 0 4 0 C4 0.66 4 1.32 4 2 C6.97 2.495 6.97 2.495 10 3 C9.67 13.89 9.34 24.78 9 36 C8.67 36 8.34 36 8 36 C8.00636475 35.11739502 8.01272949 34.23479004 8.01928711 33.32543945 C8.02642889 30.03481222 8.00230473 26.74744413 7.95727539 23.45727539 C7.94417489 22.0364372 7.94336585 20.61542836 7.95532227 19.19458008 C8.35704848 11.0988642 8.35704848 11.0988642 5.37939453 3.96240234 C3.28027783 2.40915621 3.28027783 2.40915621 0 1 C0 0.67 0 0.34 0 0 Z " fill="#00333F" transform="translate(229,233)"/>
<path d="M0 0 C2 3.75 2 3.75 2 6 C4.97 6.495 4.97 6.495 8 7 C8 7.33 8 7.66 8 8 C5.36 8.33 2.72 8.66 0 9 C3.44450737 11.29633824 5.93812283 11.54016485 10 12 C10 12.33 10 12.66 10 13 C3.58520003 13.4501614 0.26793297 12.76280927 -5 9 C-5.33 8.01 -5.66 7.02 -6 6 C-5.34 6 -4.68 6 -4 6 C-3.67 6.33 -3.34 6.66 -3 7 C-2.34 6.67 -1.68 6.34 -1 6 C-0.34227572 2.97065509 -0.34227572 2.97065509 0 0 Z " fill="#2DD2EF" transform="translate(181,341)"/>
<path d="M0 0 C1.32 0.33 2.64 0.66 4 1 C3.875 2.875 3.875 2.875 3 5 C-0.01427603 6.40666215 -2.05977053 7.14845728 -5.375 6.625 C-5.91125 6.41875 -6.4475 6.2125 -7 6 C-7 5.01 -7 4.02 -7 3 C-5.68 3 -4.36 3 -3 3 C-2.67 2.34 -2.34 1.68 -2 1 C-1.34 1.33 -0.68 1.66 0 2 C0 1.34 0 0.68 0 0 Z " fill="#06D6F9" transform="translate(162,346)"/>
<path d="M0 0 C0.33 0 0.66 0 1 0 C1.33 10.56 1.66 21.12 2 32 C3.65 32 5.3 32 7 32 C7 32.66 7 33.32 7 34 C3.535 34.495 3.535 34.495 0 35 C0 23.45 0 11.9 0 0 Z " fill="#2B6774" transform="translate(256,271)"/>
<path d="M0 0 C1.32 0 2.64 0 4 0 C4.35233161 5.37305699 4.35233161 5.37305699 4 8 C2 10 2 10 0 11 C-0.66 10.67 -1.32 10.34 -2 10 C-2 8.35 -2 6.7 -2 5 C-1.67 5 -1.34 5 -1 5 C-0.67 3.35 -0.34 1.7 0 0 Z " fill="#04D7FB" transform="translate(267,329)"/>
<path d="M0 0 C0.33 0 0.66 0 1 0 C1.50373171 4.24956641 2.00234046 8.49971856 2.5 12.75 C2.64308594 13.9565625 2.78617188 15.163125 2.93359375 16.40625 C3.06894531 17.56640625 3.20429688 18.7265625 3.34375 19.921875 C3.53227539 21.52434082 3.53227539 21.52434082 3.72460938 23.15917969 C4 26 4 26 4 30 C3.34 30 2.68 30 2 30 C1.90912109 28.71802734 1.90912109 28.71802734 1.81640625 27.41015625 C1.73261719 26.30542969 1.64882812 25.20070313 1.5625 24.0625 C1.48128906 22.96035156 1.40007812 21.85820312 1.31640625 20.72265625 C1.29581916 18.08890097 1.29581916 18.08890097 0 17 C-0.07325168 14.13732433 -0.09238205 11.299281 -0.0625 8.4375 C-0.05798828 7.63119141 -0.05347656 6.82488281 -0.04882812 5.99414062 C-0.03700518 3.99606244 -0.01906914 1.99802217 0 0 Z " fill="#07404B" transform="translate(181,248)"/>
<path d="M0 0 C1.53579241 4.60737722 -0.52024255 7.95991666 -2.1875 12.375 C-2.49236328 13.22578125 -2.79722656 14.0765625 -3.11132812 14.953125 C-4.84052521 19.60781904 -6.56833113 23.30201536 -10 27 C-9.43449764 22.6173567 -7.72977604 19.02721979 -5.83984375 15.0859375 C-4.81325686 12.91095885 -4.81325686 12.91095885 -5 10 C-4.34 10 -3.68 10 -3 10 C-2.95101563 9.36191406 -2.90203125 8.72382813 -2.8515625 8.06640625 C-2.77679688 7.24011719 -2.70203125 6.41382813 -2.625 5.5625 C-2.55539062 4.73878906 -2.48578125 3.91507813 -2.4140625 3.06640625 C-2.27742188 2.38449219 -2.14078125 1.70257813 -2 1 C-1.34 0.67 -0.68 0.34 0 0 Z " fill="#0BCEEF" transform="translate(318,234)"/>
<path d="M0 0 C0.66 0 1.32 0 2 0 C2.226875 0.639375 2.45375 1.27875 2.6875 1.9375 C3.85250896 4.27193661 3.85250896 4.27193661 6.625 4.75 C7.40875 4.8325 8.1925 4.915 9 5 C9.33 3.68 9.66 2.36 10 1 C11.32 1.66 12.64 2.32 14 3 C13.01 3.33 12.02 3.66 11 4 C11 4.66 11 5.32 11 6 C13.64 6 16.28 6 19 6 C15.27214076 8.48523949 12.31604537 8.52216806 8 8 C4.14890018 6.6449834 2.49817767 5.9737109 0.625 2.3125 C0.41875 1.549375 0.2125 0.78625 0 0 Z " fill="#2CCEEA" transform="translate(145,346)"/>
<path d="M0 0 C3.63 0 7.26 0 11 0 C11 1.32 11 2.64 11 4 C6.545 4.495 6.545 4.495 2 5 C1.34 3.35 0.68 1.7 0 0 Z " fill="#02D9FA" transform="translate(344,349)"/>
<path d="M0 0 C3.82504319 2.4907258 7.56944283 4.97303779 11 8 C11 8.66 11 9.32 11 10 C5.97307937 9.54300722 2.85103739 7.00758252 -1 4 C-0.67 2.68 -0.34 1.36 0 0 Z " fill="#504F4F" transform="translate(233,223)"/>
<path d="M0 0 C1.875 0.25 1.875 0.25 4 1 C5.25 3.0625 5.25 3.0625 6 5 C6.66 5 7.32 5 8 5 C8 5.66 8 6.32 8 7 C12.455 6.505 12.455 6.505 17 6 C17 6.99 17 7.98 17 9 C13.7 9.33 10.4 9.66 7 10 C6.401875 8.906875 5.80375 7.81375 5.1875 6.6875 C3.70955303 4.08925871 2.30177067 1.95650507 0 0 Z " fill="#4199AA" transform="translate(221,296)"/>
<path d="M0 0 C3.08129692 1.12585849 5.3651115 2.91445862 7.984375 4.87890625 C8.96921875 5.61238281 9.9540625 6.34585938 10.96875 7.1015625 C11.71640625 7.66746094 12.4640625 8.23335937 13.234375 8.81640625 C12.244375 9.31140625 12.244375 9.31140625 11.234375 9.81640625 C10.244375 9.48640625 9.254375 9.15640625 8.234375 8.81640625 C8.234375 8.15640625 8.234375 7.49640625 8.234375 6.81640625 C7.491875 6.71328125 6.749375 6.61015625 5.984375 6.50390625 C3.0169764 5.7620566 1.55908921 4.75366809 -0.765625 2.81640625 C-1.755625 2.15640625 -2.745625 1.49640625 -3.765625 0.81640625 C-1.765625 -0.18359375 -1.765625 -0.18359375 0 0 Z " fill="#282A29" transform="translate(220.765625,212.18359375)"/>
<path d="M0 0 C0.66 0.33 1.32 0.66 2 1 C4.52641324 8.57923973 3.21976654 15.88968223 0 23 C-0.33 23 -0.66 23 -1 23 C-0.125 15.125 -0.125 15.125 1 14 C1.16666667 11 1.16666667 11 1 8 C0.67 7.67 0.34 7.34 0 7 C-0.04092937 4.66702567 -0.04241723 2.33294775 0 0 Z " fill="#DFA23E" transform="translate(269,141)"/>
<path d="M0 0 C6.19887485 -0.37952295 10.4477112 0.1647887 16 3 C15.01 3.99 14.02 4.98 13 6 C12.67 5.34 12.34 4.68 12 4 C7.88769156 3.32585108 4.16980357 3 0 3 C0 2.01 0 1.02 0 0 Z " fill="#04D6FC" transform="translate(151,329)"/>
<path d="M0 0 C1.32 0.33 2.64 0.66 4 1 C4.33 3.31 4.66 5.62 5 8 C2.525 9.485 2.525 9.485 0 11 C0 7.37 0 3.74 0 0 Z " fill="#02D7F8" transform="translate(194,332)"/>
<path d="M0 0 C1.95825873 -0.02694851 3.91662226 -0.04637218 5.875 -0.0625 C6.96554687 -0.07410156 8.05609375 -0.08570313 9.1796875 -0.09765625 C12 0 12 0 14 1 C13.34 2.65 12.68 4.3 12 6 C11.34 6 10.68 6 10 6 C9.67 5.01 9.34 4.02 9 3 C6.03 2.67 3.06 2.34 0 2 C0 1.34 0 0.68 0 0 Z " fill="#23CCE7" transform="translate(345,347)"/>
<path d="M0 0 C1 2 1 2 0.44140625 3.9453125 C0.15136719 4.66460937 -0.13867188 5.38390625 -0.4375 6.125 C-0.72496094 6.84945313 -1.01242187 7.57390625 -1.30859375 8.3203125 C-1.53675781 8.87460937 -1.76492188 9.42890625 -2 10 C-2.66 9.01 -3.32 8.02 -4 7 C-4 11.95 -4 16.9 -4 22 C-4.33 22 -4.66 22 -5 22 C-5.13548815 19.26916098 -5.23429855 16.54508193 -5.3125 13.8125 C-5.35439453 13.04357422 -5.39628906 12.27464844 -5.43945312 11.48242188 C-5.53491887 7.03371827 -5.43312555 5.52445124 -2.48046875 1.94921875 C-1.66191406 1.30597656 -0.84335937 0.66273438 0 0 Z " fill="#0AD1F5" transform="translate(343,330)"/>
<path d="M0 0 C0.33 0 0.66 0 1 0 C1.05406122 1.93719378 1.09282025 3.87481921 1.125 5.8125 C1.14820313 6.89144531 1.17140625 7.97039062 1.1953125 9.08203125 C1 12 1 12 -1 15 C-3.125 15.6875 -3.125 15.6875 -5 16 C-5 15.34 -5 14.68 -5 14 C-5.66 13.34 -6.32 12.68 -7 12 C-5.125 10.9375 -5.125 10.9375 -3 10 C-2.34 10.33 -1.68 10.66 -1 11 C-0.67 7.37 -0.34 3.74 0 0 Z " fill="#19D1F2" transform="translate(331,334)"/>
<path d="M0 0 C1.134375 0.020625 2.26875 0.04125 3.4375 0.0625 C4.59691038 3.54073115 4.14570884 5.52145578 3.4375 9.0625 C3.1075 9.0625 2.7775 9.0625 2.4375 9.0625 C2.4375 6.7525 2.4375 4.4425 2.4375 2.0625 C1.1175 2.0625 -0.2025 2.0625 -1.5625 2.0625 C-1.5625 4.0425 -1.5625 6.0225 -1.5625 8.0625 C-2.2225 7.7325 -2.8825 7.4025 -3.5625 7.0625 C-4.25 4.0625 -4.25 4.0625 -4.5625 1.0625 C-3.5625 0.0625 -3.5625 0.0625 0 0 Z " fill="#27CFE9" transform="translate(268.5625,326.9375)"/>
<path d="M0 0 C0.99 0.33 1.98 0.66 3 1 C2.01 1.495 2.01 1.495 1 2 C1 2.66 1 3.32 1 4 C-5.25 7.125 -5.25 7.125 -10 6 C-9.34 4.68 -8.68 3.36 -8 2 C-7.4225 2.226875 -6.845 2.45375 -6.25 2.6875 C-3.88518244 3.28115446 -3.88518244 3.28115446 -1.9375 1.5 C-1.298125 1.005 -0.65875 0.51 0 0 Z " fill="#363434" transform="translate(266,227)"/>
<path d="M0 0 C0.66 0 1.32 0 2 0 C2.05807043 3.10408807 2.09361914 6.2080364 2.125 9.3125 C2.14175781 10.19357422 2.15851563 11.07464844 2.17578125 11.98242188 C2.18222656 12.82998047 2.18867188 13.67753906 2.1953125 14.55078125 C2.20578613 15.33106689 2.21625977 16.11135254 2.22705078 16.9152832 C2 19 2 19 0 22 C-0.66 22 -1.32 22 -2 22 C-1.67 20.96875 -1.34 19.9375 -1 18.875 C0.58615091 12.68677744 0.16023253 6.33808671 0 0 Z " fill="#382308" transform="translate(271,142)"/>
<path d="M0 0 C0.66 0.33 1.32 0.66 2 1 C-0.475 5.455 -0.475 5.455 -3 10 C-4.32 9.67 -5.64 9.34 -7 9 C-5.44499019 5.18315774 -2.96404505 2.80804268 0 0 Z " fill="#222222" transform="translate(269,113)"/>
<path d="M0 0 C0.99 0.66 1.98 1.32 3 2 C3.51171005 5.94747752 3.60947751 8.1196436 1.3125 11.4375 C-1.38410809 13.25953249 -2.81126451 13.35430394 -6 13 C-5.67 12.34 -5.34 11.68 -5 11 C-3.35 11 -1.7 11 0 11 C-0.33 9.68 -0.66 8.36 -1 7 C-0.34 6.67 0.32 6.34 1 6 C0.67 4.02 0.34 2.04 0 0 Z " fill="#26CFEE" transform="translate(137,340)"/>
<path d="M0 0 C5.09636993 -0.36258758 8.90042893 -0.54014017 13.5625 1.75 C15.9392256 3.94390056 16.77347501 4.82865008 17 8 C16.34 8 15.68 8 15 8 C15 7.01 15 6.02 15 5 C12.69 4.34 10.38 3.68 8 3 C8 2.34 8 1.68 8 1 C5.36 1 2.72 1 0 1 C0 0.67 0 0.34 0 0 Z " fill="#2EC6E0" transform="translate(152,327)"/>
<path d="M0 0 C0.66 0.33 1.32 0.66 2 1 C1.8125 4.3125 1.8125 4.3125 1 8 C-2.0071642 10.42243783 -5.39410995 11.66066941 -9 13 C-7.8125 10.5 -7.8125 10.5 -6 8 C-3.3125 7.6875 -3.3125 7.6875 -1 8 C-0.67 5.36 -0.34 2.72 0 0 Z " fill="#30929F" transform="translate(313,282)"/>
<path d="M0 0 C0.33 0 0.66 0 1 0 C1.33 3.3 1.66 6.6 2 10 C1.01 10.495 1.01 10.495 0 11 C-1.13350534 13.01669827 -1.13350534 13.01669827 -2 15 C-2.3690205 4.44191344 -2.3690205 4.44191344 0 0 Z " fill="#BB7D21" transform="translate(228,141)"/>
<path d="M0 0 C-0.66 0 -1.32 0 -2 0 C-2 0.66 -2 1.32 -2 2 C-1.34 2 -0.68 2 0 2 C-0.33 3.65 -0.66 5.3 -1 7 C-2.32 6.34 -3.64 5.68 -5 5 C-5 4.01 -5 3.02 -5 2 C-5.66 2 -6.32 2 -7 2 C-7 1.34 -7 0.68 -7 0 C-3.86650268 -1.04449911 -3.01031744 -0.93423645 0 0 Z " fill="#272426" transform="translate(303,212)"/>
<path d="M0 0 C2.05078125 0.03255208 4.1015625 0.06510417 6.15234375 0.09765625 C6.15234375 1.08765625 6.15234375 2.07765625 6.15234375 3.09765625 C5.16234375 3.75765625 4.17234375 4.41765625 3.15234375 5.09765625 C3.15234375 4.10765625 3.15234375 3.11765625 3.15234375 2.09765625 C-0.92729906 3.39920631 -0.92729906 3.39920631 -4.84765625 5.09765625 C-2.44354091 0.12915121 -2.44354091 0.12915121 0 0 Z " fill="#35C4DB" transform="translate(222.84765625,326.90234375)"/>
<path d="M0 0 C0.66 0 1.32 0 2 0 C2 0.66 2 1.32 2 2 C3.32 2 4.64 2 6 2 C6 3.32 6 4.64 6 6 C4.35 6.33 2.7 6.66 1 7 C0.67 4.69 0.34 2.38 0 0 Z " fill="#06D5F6" transform="translate(219,346)"/>
<path d="M0 0 C0.66 0 1.32 0 2 0 C2 0.66 2 1.32 2 2 C2.66 2 3.32 2 4 2 C3.34 4.31 2.68 6.62 2 9 C1.5875 8.38125 1.175 7.7625 0.75 7.125 C-1.05573879 4.93231719 -2.4090534 4.07211583 -5 3 C-4.360625 2.87625 -3.72125 2.7525 -3.0625 2.625 C-2.0415625 2.315625 -2.0415625 2.315625 -1 2 C-0.67 1.34 -0.34 0.68 0 0 Z " fill="#16D0F5" transform="translate(323,330)"/>
<path d="M0 0 C-0.33 1.32 -0.66 2.64 -1 4 C0.32 4.33 1.64 4.66 3 5 C0.18185434 6.40907283 -1.17277204 5.50872691 -4.125 4.5625 C-5.03507813 4.27503906 -5.94515625 3.98757812 -6.8828125 3.69140625 C-7.58148438 3.46324219 -8.28015625 3.23507813 -9 3 C-3 0 -3 0 0 0 Z " fill="#262825" transform="translate(211,206)"/>
<path d="M0 0 C0.33 1.32 0.66 2.64 1 4 C-2.50776784 5.60355101 -5.14354879 6.22036864 -9 6 C-3.2 0 -3.2 0 0 0 Z " fill="#474749" transform="translate(280,215)"/>
<path d="M0 0 C0.66 0.99 1.32 1.98 2 3 C1.67 3.66 1.34 4.32 1 5 C-2.45043117 6.15014372 -5.35282355 7 -9 7 C-6.03 4.69 -3.06 2.38 0 0 Z " fill="#2A292C" transform="translate(275,214)"/>
<path d="M0 0 C0 0.33 0 0.66 0 1 C-1.98 1.33 -3.96 1.66 -6 2 C-6.66 3.98 -7.32 5.96 -8 8 C-8.33 8 -8.66 8 -9 8 C-9 5.36 -9 2.72 -9 0 C-5.67465243 -1.10844919 -3.37817425 -0.84454356 0 0 Z " fill="#22D0EC" transform="translate(160,332)"/>
<path d="M0 0 C0.721875 0.309375 1.44375 0.61875 2.1875 0.9375 C4.80307309 1.92560539 7.25118982 2.5287754 10 3 C10 4.32 10 5.64 10 7 C6.4124787 5.66749209 3.1635377 4.169283 0 2 C0 1.34 0 0.68 0 0 Z " fill="#727271" transform="translate(223,219)"/>
<path d="M0 0 C0.78375 0.04125 1.5675 0.0825 2.375 0.125 C1.4159375 0.681875 1.4159375 0.681875 0.4375 1.25 C-2.26358072 3.70552793 -2.30907005 5.57078805 -2.625 9.125 C-3.285 9.125 -3.945 9.125 -4.625 9.125 C-4.75 5.75 -4.75 5.75 -4.625 2.125 C-2.625 0.125 -2.625 0.125 0 0 Z " fill="#C48A2D" transform="translate(259.625,169.875)"/>
<path d="M0 0 C1.64826111 2.96687001 2.44271087 5.65626525 3 9 C0.36 9 -2.28 9 -5 9 C-5.33 8.34 -5.66 7.68 -6 7 C-3.03 7.495 -3.03 7.495 0 8 C0 5.36 0 2.72 0 0 Z " fill="#2BC9E8" transform="translate(381,344)"/>
<path d="M0 0 C0 2.31 0 4.62 0 7 C-1.98 6.01 -3.96 5.02 -6 4 C-2.25 0 -2.25 0 0 0 Z " fill="#05D5FA" transform="translate(169,335)"/>
<path d="M0 0 C-1.0975223 2.99324263 -1.67682892 3.84610901 -4.625 5.25 C-5.40875 5.4975 -6.1925 5.745 -7 6 C-7 3 -7 3 -5.75 1.3125 C-4 0 -4 0 0 0 Z " fill="#7D7A7F" transform="translate(267,225)"/>
<path d="M0 0 C0 0.99 0 1.98 0 3 C0.66 3 1.32 3 2 3 C2 3.66 2 4.32 2 5 C2.66 5 3.32 5 4 5 C3.67 5.66 3.34 6.32 3 7 C0.03 5.35 -2.94 3.7 -6 2 C-3 0 -3 0 0 0 Z " fill="#0B3038" transform="translate(225,226)"/>
<path d="M0 0 C0.33 0.66 0.66 1.32 1 2 C1.66 2.33 2.32 2.66 3 3 C0.03 5.475 0.03 5.475 -3 8 C-3.66 7.67 -4.32 7.34 -5 7 C-4.67 6.01 -4.34 5.02 -4 4 C-3.34 4 -2.68 4 -2 4 C-1.34 2.68 -0.68 1.36 0 0 Z " fill="#2F220F" transform="translate(268,164)"/>
<path d="M0 0 C0.33 0.66 0.66 1.32 1 2 C1.99 1.67 2.98 1.34 4 1 C3.67 1.99 3.34 2.98 3 4 C1.02 4.33 -0.96 4.66 -3 5 C-3.66 4.01 -4.32 3.02 -5 2 C-3.35 2 -1.7 2 0 2 C0 1.34 0 0.68 0 0 Z " fill="#09CEEC" transform="translate(251,273)"/>
<path d="M0 0 C3.63 0.33 7.26 0.66 11 1 C11 1.66 11 2.32 11 3 C11.99 3.33 12.98 3.66 14 4 C12 5 12 5 9.1796875 4.22265625 C8.08914062 3.83980469 6.99859375 3.45695313 5.875 3.0625 C4.77929688 2.68222656 3.68359375 2.30195313 2.5546875 1.91015625 C1.71164063 1.60980469 0.86859375 1.30945313 0 1 C0 0.67 0 0.34 0 0 Z " fill="#05414D" transform="translate(201,220)"/>
<path d="M0 0 C0.33 0 0.66 0 1 0 C1.10807131 1.93627769 1.1856225 3.87427756 1.25 5.8125 C1.29640625 6.89144531 1.3428125 7.97039062 1.390625 9.08203125 C1 12 1 12 -1.015625 13.88671875 C-1.67046875 14.25410156 -2.3253125 14.62148438 -3 15 C-3 13.68 -3 12.36 -3 11 C-2.01 11 -1.02 11 0 11 C0 7.37 0 3.74 0 0 Z " fill="#0DD0F2" transform="translate(235,272)"/>
<path d="M0 0 C2 3.75 2 3.75 2 6 C4.97 6.495 4.97 6.495 8 7 C8 7.33 8 7.66 8 8 C5.36 8 2.72 8 0 8 C0 5.36 0 2.72 0 0 Z " fill="#26C9E8" transform="translate(181,341)"/>
<path d="M0 0 C0.33 0.66 0.66 1.32 1 2 C-0.65 3.32 -2.3 4.64 -4 6 C-7.875 4.25 -7.875 4.25 -9 2 C-6.525 2.99 -6.525 2.99 -4 4 C-3.67 3.01 -3.34 2.02 -3 1 C-2.01 0.67 -1.02 0.34 0 0 Z " fill="#4797A6" transform="translate(255,305)"/>
<path d="M0 0 C1.32 0 2.64 0 4 0 C4 0.66 4 1.32 4 2 C6.97 2.495 6.97 2.495 10 3 C9.67 3.99 9.34 4.98 9 6 C5.56404834 4.47291037 2.88087546 2.40072955 0 0 Z " fill="#0A2E37" transform="translate(229,233)"/>
<path d="M0 0 C3.96 1.98 3.96 1.98 8 4 C8 4.66 8 5.32 8 6 C2.25 4.125 2.25 4.125 0 3 C0 2.01 0 1.02 0 0 Z " fill="#999297" transform="translate(215,214)"/>
<path d="M0 0 C3.63 0 7.26 0 11 0 C11 0.33 11 0.66 11 1 C9.35 1.33 7.7 1.66 6 2 C6 2.33 6 2.66 6 3 C4.02 3 2.04 3 0 3 C0 2.01 0 1.02 0 0 Z " fill="#575558" transform="translate(184,207)"/>
<path d="M0 0 C-0.66 1.32 -1.32 2.64 -2 4 C-2.99 4 -3.98 4 -5 4 C-5 4.99 -5 5.98 -5 7 C-5.66 7 -6.32 7 -7 7 C-4.60526316 0 -4.60526316 0 0 0 Z " fill="#25CDE9" transform="translate(182,328)"/>
<path d="M0 0 C2 3.75 2 3.75 2 6 C0.68 6.33 -0.64 6.66 -2 7 C-2.6875 5.1875 -2.6875 5.1875 -3 3 C-1.5625 1.25 -1.5625 1.25 0 0 Z " fill="#1C1B1A" transform="translate(179,259)"/>
<path d="M0 0 C2.97 0 5.94 0 9 0 C9 0.99 9 1.98 9 3 C2.84765625 2.4140625 2.84765625 2.4140625 1 2 C0.67 1.34 0.34 0.68 0 0 Z " fill="#242424" transform="translate(197,144)"/>
<path d="M0 0 C0 1.32 0 2.64 0 4 C-1.98 4.33 -3.96 4.66 -6 5 C-3.74193548 0 -3.74193548 0 0 0 Z " fill="#ACACAE" transform="translate(296,209)"/>
<path d="M0 0 C0.99 0.495 0.99 0.495 2 1 C2.40729228 3.32156597 2.74438677 5.6568787 3 8 C2.01 7.67 1.02 7.34 0 7 C0 4.69 0 2.38 0 0 Z " fill="#D49737" transform="translate(269,141)"/>
<path d="M0 0 C1 3 1 3 1 6 C-0.9375 5.6875 -0.9375 5.6875 -3 5 C-3.33 4.01 -3.66 3.02 -4 2 C-2.68 1.34 -1.36 0.68 0 0 Z " fill="#122930" transform="translate(218,221)"/>
<path d="M0 0 C0.66 0.33 1.32 0.66 2 1 C1.67 2.32 1.34 3.64 1 5 C-0.65 5 -2.3 5 -4 5 C-2.25 1.125 -2.25 1.125 0 0 Z " fill="#6D6F6E" transform="translate(290,210)"/>
<path d="M0 0 C1.98 0 3.96 0 6 0 C5.34 1.32 4.68 2.64 4 4 C2.68 2.68 1.36 1.36 0 0 Z " fill="#181818" transform="translate(246,202)"/>
<path d="" fill="#404040" transform="translate(0,0)"/>
<path d="" fill="#555555" transform="translate(0,0)"/>
</svg>
