<?xml version="1.0" encoding="UTF-8"?>
<svg version="1.1" xmlns="http://www.w3.org/2000/svg" width="500" height="500">
<path d="M0 0 C24.3501688 -1.39545614 48.46987791 8.19961621 66.75 24 C67.84010395 24.99261498 68.92640225 25.98955506 70 27 C71.03125 26.195625 72.0625 25.39125 73.125 24.5625 C89.999411 12.01030655 107.93280878 2.85334418 129 0 C129.97582031 -0.22945312 130.95164062 -0.45890625 131.95703125 -0.6953125 C135.54618153 -1.23540351 137.56766837 -1.28603818 141 0 C145.4466474 4.85404005 148.22051095 11.09247639 151 17 C151.33 17.66 151.66 18.32 152 19 C152.31091419 26.32184299 151.43839261 33.31257786 150.390625 40.55078125 C150.1385025 42.31532906 150.1385025 42.31532906 149.88128662 44.11552429 C149.52498807 46.58770214 149.1650823 49.05936252 148.80175781 51.53051758 C148.24953587 55.31568132 147.72216382 59.10381075 147.1953125 62.89257812 C146.84527214 65.29970101 146.49376074 67.70661053 146.140625 70.11328125 C145.98627991 71.2455867 145.83193481 72.37789215 145.6729126 73.54450989 C145.51304871 74.59627914 145.35318481 75.6480484 145.18847656 76.73168945 C145.05523987 77.65496536 144.92200317 78.57824127 144.784729 79.52949524 C143.8206994 82.56447894 142.33002418 83.88166856 140 86 C138.75739168 88.35068512 138.75739168 88.35068512 137.875 90.875 C137.5346875 91.75414062 137.194375 92.63328125 136.84375 93.5390625 C135.90298842 96.09598413 135.90298842 96.09598413 135.375 99.25 C133.0864969 103.82700621 128.5555685 105.91787631 124 108 C121 108 121 108 117.4375 106.4375 C112.47696798 104.53170737 108.11244301 104.63446148 103 106 C99.15405202 107.87255894 96.60987706 109.76376272 94.69921875 113.63671875 C93 116 93 116 90.109375 116.56640625 C88.44648438 116.56447266 88.44648438 116.56447266 86.75 116.5625 C80.81876303 116.77362301 77.88023692 117.78112033 73 121 C68.6149161 121 68.19442551 120.57614961 65 118 C61.57767028 116.85922343 58.91326783 116.90184883 55.3125 116.9375 C54.13300781 116.94652344 52.95351562 116.95554687 51.73828125 116.96484375 C50.83464844 116.97644531 49.93101562 116.98804688 49 117 C48.505 115.948125 48.01 114.89625 47.5 113.8125 C44.93912758 109.39162551 41.7349001 106.88892291 37 105 C31.97369313 104.06425138 28.09877917 104.86629581 23.4375 106.8125 C20.65123369 107.87137879 19.57085529 108.22415784 16.76171875 107.12109375 C14.625 105.75 14.625 105.75 12.7265625 104.296875 C10.92001916 102.79727631 10.92001916 102.79727631 8 102 C6.88747225 98.90762695 6.14785466 95.777988 5.35546875 92.58984375 C4.11141482 89.29507269 3.29079879 88.07944691 1.0612793 85.56103516 C-2.95551683 80.2984596 -3.52256868 74.87067344 -4.3359375 68.43359375 C-4.50501617 67.24073257 -4.67409485 66.0478714 -4.84829712 64.81886292 C-5.37951765 61.02777294 -5.8770832 57.23309131 -6.375 53.4375 C-6.73099583 50.8831732 -7.08904845 48.32913215 -7.44921875 45.77539062 C-11.02304614 19.97927112 -11.02304614 19.97927112 -7.8125 14.16015625 C-7.36132812 13.32548828 -6.91015625 12.49082031 -6.4453125 11.63085938 C-5.96835938 10.78330078 -5.49140625 9.93574219 -5 9.0625 C-4.52304688 8.18787109 -4.04609375 7.31324219 -3.5546875 6.41210938 C-2.38262253 4.26723047 -1.19767491 2.13065093 0 0 Z M22 13 C24.69035475 14.79356984 27.38377913 16.17448591 30.29467773 17.5637207 C38.69494588 21.59675638 46.8075099 26.01216341 54 32 C54.495 33.485 54.495 33.485 55 35 C59.50108834 39.93515556 64.13598252 43.54750259 70.9375 44.0625 C78.25314057 43.58868908 83.18047068 39.23547369 88 34 C88.495 32.515 88.495 32.515 89 31 C91.21868888 29.27666011 93.40408566 27.71839644 95.75 26.1875 C96.41870117 25.74535156 97.08740234 25.30320313 97.77636719 24.84765625 C103.11585476 21.397293 108.54165093 18.65879612 114.390625 16.15625 C117.15361421 15.02041125 117.15361421 15.02041125 120 13 C101.69177357 14.27731812 82.24550646 26.93812644 70 40 C69.29875 39.05125 68.5975 38.1025 67.875 37.125 C57.3745808 25.03730813 41.17635967 17.36102289 26 13 C24.68 13 23.36 13 22 13 Z M99 40 C97.03979285 41.28882122 95.08189123 42.58114957 93.125 43.875 C92.03445313 44.59429687 90.94390625 45.31359375 89.8203125 46.0546875 C87.01572502 47.86388308 87.01572502 47.86388308 85 50 C84.72172748 52.6215642 84.72172748 52.6215642 84.8046875 55.6640625 C84.81113281 56.78554687 84.81757813 57.90703125 84.82421875 59.0625 C84.84097656 60.238125 84.85773438 61.41375 84.875 62.625 C84.88402344 63.80835938 84.89304687 64.99171875 84.90234375 66.2109375 C84.92597188 69.14082523 84.95891486 72.0703134 85 75 C85.33 75 85.66 75 86 75 C86.06731323 74.08504761 86.06731323 74.08504761 86.13598633 73.15161133 C86.34815433 70.37070451 86.58013024 67.59178868 86.8125 64.8125 C86.88275391 63.85279297 86.95300781 62.89308594 87.02539062 61.90429688 C87.59693447 55.29725004 88.40373638 51.34277016 93.48046875 46.76171875 C94.37378906 46.07722656 95.26710938 45.39273438 96.1875 44.6875 C97.53908203 43.64142578 97.53908203 43.64142578 98.91796875 42.57421875 C99.60503906 42.05472656 100.29210937 41.53523438 101 41 C100.34 40.67 99.68 40.34 99 40 Z M84 82 C84 83.98 84 85.96 84 88 C84.33 88 84.66 88 85 88 C85 86.02 85 84.04 85 82 C84.67 82 84.34 82 84 82 Z " fill="#01D6FB" transform="translate(179,189)"/>
<path d="M0 0 C24.3501688 -1.39545614 48.46987791 8.19961621 66.75 24 C67.84010395 24.99261498 68.92640225 25.98955506 70 27 C71.03125 26.195625 72.0625 25.39125 73.125 24.5625 C89.999411 12.01030655 107.93280878 2.85334418 129 0 C129.97582031 -0.22945312 130.95164062 -0.45890625 131.95703125 -0.6953125 C135.54618153 -1.23540351 137.56766837 -1.28603818 141 0 C145.4466474 4.85404005 148.22051095 11.09247639 151 17 C151.33 17.66 151.66 18.32 152 19 C152.31091419 26.32184299 151.43839261 33.31257786 150.390625 40.55078125 C150.1385025 42.31532906 150.1385025 42.31532906 149.88128662 44.11552429 C149.52498807 46.58770214 149.1650823 49.05936252 148.80175781 51.53051758 C148.24953587 55.31568132 147.72216382 59.10381075 147.1953125 62.89257812 C146.84527214 65.29970101 146.49376074 67.70661053 146.140625 70.11328125 C145.98627991 71.2455867 145.83193481 72.37789215 145.6729126 73.54450989 C145.51304871 74.59627914 145.35318481 75.6480484 145.18847656 76.73168945 C145.05523987 77.65496536 144.92200317 78.57824127 144.784729 79.52949524 C143.82036236 82.56553999 142.33720645 83.8873059 140 86 C138.76487921 88.13309192 138.76487921 88.13309192 138 90 C137.34 90 136.68 90 136 90 C136.37168109 81.31035236 137.24064359 72.91658579 138.76831055 64.359375 C140.12967667 56.59802332 141.07339119 48.79487824 141.99755859 40.97094727 C142.17279053 39.50419556 142.17279053 39.50419556 142.3515625 38.0078125 C142.50359131 36.70287842 142.50359131 36.70287842 142.65869141 35.37158203 C142.9724023 33.19176255 143.42174503 31.12313595 144 29 C129.85650506 29.33876635 118.3192175 31.87838141 105.375 37.75 C104.37243164 38.1977478 104.37243164 38.1977478 103.34960938 38.65454102 C101.17613936 39.68514737 99.09522563 40.81811222 97 42 C96.02659668 42.5151416 95.05319336 43.0302832 94.05029297 43.56103516 C88.12579112 47.12688077 88.12579112 47.12688077 85.14111328 53.10742188 C84.95047657 56.75483424 85.08728589 60.2344574 85.375 63.875 C85.49118393 66.30969882 85.6032367 68.74459867 85.7109375 71.1796875 C85.77369873 72.35192871 85.83645996 73.52416992 85.90112305 74.73193359 C86.01113589 78.36806181 85.75617433 81.80983384 85.31152344 85.41357422 C84.94065547 88.49270844 84.69986659 91.57163373 84.46484375 94.6640625 C84.37783203 95.80488281 84.29082031 96.94570313 84.20117188 98.12109375 C84.11416016 99.27738281 84.02714844 100.43367188 83.9375 101.625 C83.84662109 102.81996094 83.75574219 104.01492188 83.66210938 105.24609375 C83.44034971 108.16398409 83.21966899 111.08195165 83 114 C81.35 114.33 79.7 114.66 78 115 C78 94.21 78 73.42 78 52 C73.38 52 68.76 52 64 52 C64.10828125 54.42279297 64.10828125 54.42279297 64.21875 56.89453125 C65.02591103 76.27215115 65.1111482 95.60891361 65 115 C63.02 114.67 61.04 114.34 59 114 C58.99937057 113.21596802 58.99874115 112.43193604 58.99809265 111.62414551 C58.98242198 104.20826098 58.91408848 96.79556264 58.78763103 89.38080597 C58.72445352 85.56915043 58.68114864 81.75948919 58.68432617 77.94726562 C58.686648 74.2626492 58.63537568 70.58220891 58.54801369 66.89866638 C58.52401783 65.49876796 58.51883404 64.09840758 58.53342247 62.69837952 C58.66459992 54.34231207 58.66459992 54.34231207 54.60598755 47.39167786 C51.81727076 45.32866054 49.06597005 43.61619228 46 42 C45.19796143 41.55318375 44.39592285 41.10636749 43.56958008 40.64601135 C41.57866139 39.56603391 39.56733823 38.61195357 37.5 37.6875 C36.76499268 37.35411621 36.02998535 37.02073242 35.27270508 36.67724609 C23.10770209 31.27978625 11.15368107 30.07664957 -2 29 C-1.8146167 29.94182129 -1.6292334 30.88364258 -1.43823242 31.85400391 C0.44087653 41.54715146 2.00930638 51.25864888 3.36254883 61.03857422 C3.69033297 63.39536928 4.02953057 65.75035214 4.36914062 68.10546875 C5.45156268 75.77446071 6.28786312 83.23547575 6 91 C4.66666667 89.33333333 3.33333333 87.66666667 2 86 C1.00661621 85.05519775 1.00661621 85.05519775 -0.00683594 84.09130859 C-3.08493443 79.31731507 -3.39740875 74.28962775 -4.140625 68.7265625 C-4.31253357 67.52945648 -4.48444214 66.33235046 -4.66156006 65.09896851 C-5.02177248 62.56996424 -5.37431771 60.03985767 -5.71972656 57.50878906 C-6.2474044 53.64401046 -6.79731205 49.7829234 -7.3515625 45.921875 C-7.69922171 43.46112153 -8.04561786 41.00018921 -8.390625 38.5390625 C-8.55306702 37.38781891 -8.71550903 36.23657532 -8.88287354 35.05044556 C-10.94782465 19.84293218 -10.94782465 19.84293218 -7.8125 14.16015625 C-7.36132812 13.32548828 -6.91015625 12.49082031 -6.4453125 11.63085938 C-5.96835938 10.78330078 -5.49140625 9.93574219 -5 9.0625 C-4.52304688 8.18787109 -4.04609375 7.31324219 -3.5546875 6.41210938 C-2.38262253 4.26723047 -1.19767491 2.13065093 0 0 Z M22 13 C24.69035475 14.79356984 27.38377913 16.17448591 30.29467773 17.5637207 C38.69494588 21.59675638 46.8075099 26.01216341 54 32 C54.495 33.485 54.495 33.485 55 35 C59.50108834 39.93515556 64.13598252 43.54750259 70.9375 44.0625 C78.25314057 43.58868908 83.18047068 39.23547369 88 34 C88.495 32.515 88.495 32.515 89 31 C91.21868888 29.27666011 93.40408566 27.71839644 95.75 26.1875 C96.41870117 25.74535156 97.08740234 25.30320313 97.77636719 24.84765625 C103.11585476 21.397293 108.54165093 18.65879612 114.390625 16.15625 C117.15361421 15.02041125 117.15361421 15.02041125 120 13 C101.69177357 14.27731812 82.24550646 26.93812644 70 40 C69.29875 39.05125 68.5975 38.1025 67.875 37.125 C57.3745808 25.03730813 41.17635967 17.36102289 26 13 C24.68 13 23.36 13 22 13 Z " fill="#1D1D1D" transform="translate(179,189)"/>
<path d="M0 0 C18.21716173 -0.81704878 35.63366725 4.10951511 51 14 C52.13489868 14.48581543 52.13489868 14.48581543 53.29272461 14.98144531 C56.44119927 16.68877598 57.98783554 18.00016832 60 21 C61.52450233 27.16807079 61.25013732 33.63362611 61.1184082 39.94238281 C61.06261474 42.99372484 61.09756083 46.03460123 61.14257812 49.0859375 C61.13303563 51.03649247 61.11823724 52.98703027 61.09765625 54.9375 C61.11724144 56.29403687 61.11724144 56.29403687 61.13722229 57.67797852 C61.00817442 61.56956321 60.79782793 64.04327003 58.25338745 67.09448242 C56.24076152 68.87236205 54.19448204 70.45492369 52 72 C50.989375 72.804375 49.97875 73.60875 48.9375 74.4375 C44.25187927 77.00112697 38.8257607 76.10508856 33.66015625 75.921875 C30.20723984 75.99557652 28.17550946 76.44818977 25.0625 77.8125 C22.38355784 78.91142334 21.51726315 79.20526315 18.78515625 78.12109375 C16.625 76.75 16.625 76.75 14.7265625 75.296875 C12.92001916 73.79727631 12.92001916 73.79727631 10 73 C8.16063129 68.05077079 7.60325276 63.1844695 7.1875 57.9375 C6.24183103 47.33511605 4.84421624 36.79880922 3.4375 26.25 C3.32554291 25.41008514 3.21358582 24.57017029 3.09823608 23.70480347 C2.46337008 18.94665566 2.46337008 18.94665566 1.82452393 14.18904114 C1.18888937 9.4625602 0.58547039 4.73296793 0 0 Z " fill="#02D5FA" transform="translate(177,218)"/>
<path d="M0 0 C2.39073445 3.82517513 2.55966552 7.59665524 3 12 C6.23793945 12.94036453 6.23793945 12.94036453 10 13 C12.99142283 10.97381051 12.99142283 10.97381051 15.4375 8.0625 C16.73494141 6.65677734 16.73494141 6.65677734 18.05859375 5.22265625 C18.69925781 4.48917969 19.33992188 3.75570312 20 3 C21.21043818 6.63131453 20.68837497 7.23958382 19.0625 10.5625 C17.46846703 13.64952238 17.46846703 13.64952238 17 17 C19.07216547 18.4181658 19.07216547 18.4181658 22 19 C24.77781084 18.0654591 27.18870271 16.57728982 29.6875 15.0625 C32.10213957 13.63765548 34.51156854 12.29869618 37 11 C37.99 11.495 37.99 11.495 39 12 C38.03835938 12.83402344 37.07671875 13.66804688 36.0859375 14.52734375 C34.84755212 15.66253035 33.61064907 16.79933554 32.375 17.9375 C31.41980469 18.75444336 31.41980469 18.75444336 30.4453125 19.58789062 C28.33198574 21.46397855 28.33198574 21.46397855 26 25 C26.99 29.455 26.99 29.455 28 34 C36.25 34 44.5 34 53 34 C50.62346092 36.37653908 49.46764109 36.48175161 46.2109375 37.0703125 C45.26992188 37.24433594 44.32890625 37.41835937 43.359375 37.59765625 C42.37453125 37.77167969 41.3896875 37.94570312 40.375 38.125 C39.38242187 38.30675781 38.38984375 38.48851562 37.3671875 38.67578125 C34.91272771 39.12419217 32.45651761 39.56300291 30 40 C29.34 43.96 28.68 47.92 28 52 C28.82757813 52.23460937 29.65515625 52.46921875 30.5078125 52.7109375 C34.64334686 54.23747703 38.14159766 56.30971173 41.875 58.625 C42.56335938 59.04523438 43.25171875 59.46546875 43.9609375 59.8984375 C45.64391658 60.92692472 47.32242532 61.962721 49 63 C48.67 63.66 48.34 64.32 48 65 C47.12263184 64.68192383 47.12263184 64.68192383 46.22753906 64.35742188 C43.57067719 63.3983801 40.91042674 62.44910541 38.25 61.5 C37.32960938 61.16613281 36.40921875 60.83226562 35.4609375 60.48828125 C34.57148438 60.17246094 33.68203125 59.85664063 32.765625 59.53125 C31.94868164 59.23798828 31.13173828 58.94472656 30.29003906 58.64257812 C27.75453756 57.81989139 27.75453756 57.81989139 24 58 C22.73960764 59.48661663 21.48344043 60.97910329 20.3046875 62.53125 C18.50344064 64.55900096 16.5713898 65.2653172 14 66 C14 69.3 14 72.6 14 76 C9.52084672 76.02886338 5.04171709 76.04675187 0.5625 76.0625 C-0.71689453 76.07087891 -1.99628906 76.07925781 -3.31445312 76.08789062 C-4.52939453 76.09111328 -5.74433594 76.09433594 -6.99609375 76.09765625 C-8.12200928 76.10289307 -9.2479248 76.10812988 -10.40795898 76.11352539 C-13 76 -13 76 -14 75 C-14.07179964 73.48071962 -14.08392007 71.95832518 -14.0625 70.4375 C-14.05347656 69.61121094 -14.04445312 68.78492188 -14.03515625 67.93359375 C-14.02355469 67.29550781 -14.01195312 66.65742188 -14 66 C-14.91265625 65.58427734 -14.91265625 65.58427734 -15.84375 65.16015625 C-18 64 -18 64 -20.5 61.4375 C-23.01915844 58.98132052 -23.66335355 58.39698731 -27 58 C-29.54208561 58.49666309 -29.54208561 58.49666309 -32.203125 59.43359375 C-33.1828125 59.75263672 -34.1625 60.07167969 -35.171875 60.40039062 C-36.69554687 60.91375977 -36.69554687 60.91375977 -38.25 61.4375 C-39.28125 61.77587891 -40.3125 62.11425781 -41.375 62.46289062 C-43.9198666 63.2993977 -46.46117074 64.14537912 -49 65 C-49 64.34 -49 63.68 -49 63 C-47.90300781 62.39671875 -46.80601562 61.7934375 -45.67578125 61.171875 C-44.22121872 60.3648274 -42.76679917 59.55752208 -41.3125 58.75 C-40.59126953 58.35425781 -39.87003906 57.95851562 -39.12695312 57.55078125 C-35.11815718 55.31757072 -31.49663299 53.00696644 -28 50 C-28.2475 49.2265625 -28.2475 49.2265625 -28.5 48.4375 C-29.15049 45.26636124 -29.0620734 42.22781666 -29 39 C-29.66644531 38.95101562 -30.33289063 38.90203125 -31.01953125 38.8515625 C-44.88191229 37.72706166 -44.88191229 37.72706166 -51 36 C-51.33 35.34 -51.66 34.68 -52 34 C-44.08 34 -36.16 34 -28 34 C-25.86263944 27.73258967 -25.86263944 27.73258967 -26 24 C-27.95469673 21.99003655 -29.89467671 20.14991616 -32 18.3125 C-32.57234375 17.80138672 -33.1446875 17.29027344 -33.734375 16.76367188 C-35.14967213 15.5016986 -36.57400269 14.24986967 -38 13 C-37.67 12.34 -37.34 11.68 -37 11 C-35.97519531 11.60070312 -34.95039063 12.20140625 -33.89453125 12.8203125 C-32.53439252 13.5894944 -31.17368516 14.35767143 -29.8125 15.125 C-29.13896484 15.52332031 -28.46542969 15.92164062 -27.77148438 16.33203125 C-23.63767337 18.72823289 -23.63767337 18.72823289 -19.01171875 18.2421875 C-18.34785156 17.83226563 -17.68398437 17.42234375 -17 17 C-17 13.77205487 -17.63594515 12.31243504 -19 9.4375 C-21 5.20833333 -21 5.20833333 -21 3 C-17.55824169 4.14725277 -16.70880725 5.25284652 -14.4375 8 C-12.07789673 10.94959179 -12.07789673 10.94959179 -9 13 C-6.98072489 12.39421747 -4.97746603 11.73080266 -3 11 C-2.86722656 10.28972656 -2.73445313 9.57945313 -2.59765625 8.84765625 C-2.42105469 7.92855469 -2.24445313 7.00945312 -2.0625 6.0625 C-1.88847656 5.14597656 -1.71445313 4.22945313 -1.53515625 3.28515625 C-1 1 -1 1 0 0 Z " fill="#F7A726" transform="translate(249,110)"/>
<path d="M0 0 C28.34999266 -1.05468723 28.34999266 -1.05468723 42 5 C43.12148437 5.49628906 44.24296875 5.99257812 45.3984375 6.50390625 C50.90764554 9.21925225 55.44133937 12.26667703 59.91870117 16.42114258 C66.03185844 22.06899386 66.03185844 22.06899386 73.875 24.4375 C81.91714545 23.70931639 87.63557345 17.50356668 93.39453125 12.36279297 C98.48691319 8.04015368 104.88623859 5.52898564 111 3 C111.78761719 2.67386719 112.57523437 2.34773437 113.38671875 2.01171875 C123.13312988 -1.29986378 133.84647691 -0.2620004 144 0 C144 0.33 144 0.66 144 1 C142.98164063 1.07476562 141.96328125 1.14953125 140.9140625 1.2265625 C120.74212715 2.98588303 102.70517944 10.19118358 86.44140625 22.26171875 C84.74924161 23.96545179 84.74924161 23.96545179 84.77734375 26.64453125 C84.85082031 27.42183594 84.92429687 28.19914062 85 29 C85 29.33 85 29.66 85 30 C85.65257873 31.672233 86.31867549 33.33927151 87 35 C87.33 35 87.66 35 88 35 C88.19965213 38.79112678 88.38245284 42.58289559 88.5625 46.375 C88.64661133 47.96634766 88.64661133 47.96634766 88.73242188 49.58984375 C88.99379813 55.27042112 88.9778824 60.71442458 88.30493164 66.36083984 C87.68046518 71.76554954 87.34570497 77.20040946 86.9375 82.625 C86.84662109 83.81996094 86.75574219 85.01492188 86.66210938 86.24609375 C86.44034971 89.16398409 86.21966899 92.08195165 86 95 C84.35 95.33 82.7 95.66 81 96 C81 75.21 81 54.42 81 33 C76.38 33 71.76 33 67 33 C67.10828125 35.42279297 67.10828125 35.42279297 67.21875 37.89453125 C68.02591103 57.27215115 68.1111482 76.60891361 68 96 C66.02 95.67 64.04 95.34 62 95 C61.99937057 94.21596802 61.99874115 93.43193604 61.99809265 92.62414551 C61.98242198 85.20826098 61.91408848 77.79556264 61.78763103 70.38080597 C61.72445352 66.56915043 61.68114864 62.75948919 61.68432617 58.94726562 C61.686648 55.2626492 61.63537568 51.58220891 61.54801369 47.89866638 C61.52401783 46.49876796 61.51883404 45.09840758 61.53342247 43.69837952 C61.66459992 35.34231207 61.66459992 35.34231207 57.60598755 28.39167786 C54.81727076 26.32866054 52.06597005 24.61619228 49 23 C48.19796646 22.55318375 47.39593292 22.10636749 46.56959534 21.64601135 C44.57868312 20.56604575 42.56728539 19.61204007 40.5 18.6875 C39.76571777 18.35411621 39.03143555 18.02073242 38.27490234 17.67724609 C26.42431203 12.41523997 14.80744105 11.12811657 2 10 C2 9.01 2 8.02 2 7 C3.32 6.67 4.64 6.34 6 6 C5.34 5.67 4.68 5.34 4 5 C4 4.01 4 3.02 4 2 C2.68 2 1.36 2 0 2 C0 1.34 0 0.68 0 0 Z " fill="#08323A" transform="translate(176,208)"/>
<path d="M0 0 C2.39073445 3.82517513 2.55966552 7.59665524 3 12 C6.23793945 12.94036453 6.23793945 12.94036453 10 13 C12.99142283 10.97381051 12.99142283 10.97381051 15.4375 8.0625 C16.73494141 6.65677734 16.73494141 6.65677734 18.05859375 5.22265625 C18.69925781 4.48917969 19.33992188 3.75570312 20 3 C21.21043818 6.63131453 20.68837497 7.23958382 19.0625 10.5625 C17.46846703 13.64952238 17.46846703 13.64952238 17 17 C19.07216547 18.4181658 19.07216547 18.4181658 22 19 C24.77781084 18.0654591 27.18870271 16.57728982 29.6875 15.0625 C32.10213957 13.63765548 34.51156854 12.29869618 37 11 C37.99 11.495 37.99 11.495 39 12 C38.03835938 12.83402344 37.07671875 13.66804688 36.0859375 14.52734375 C34.84755212 15.66253035 33.61064907 16.79933554 32.375 17.9375 C31.41980469 18.75444336 31.41980469 18.75444336 30.4453125 19.58789062 C28.33198574 21.46397855 28.33198574 21.46397855 26 25 C26.99 29.455 26.99 29.455 28 34 C36.25 34 44.5 34 53 34 C50.62346092 36.37653908 49.46764109 36.48175161 46.2109375 37.0703125 C45.26992188 37.24433594 44.32890625 37.41835937 43.359375 37.59765625 C42.37453125 37.77167969 41.3896875 37.94570312 40.375 38.125 C39.38242187 38.30675781 38.38984375 38.48851562 37.3671875 38.67578125 C34.91272771 39.12419217 32.45651761 39.56300291 30 40 C29.34 43.96 28.68 47.92 28 52 C28.82757813 52.23460937 29.65515625 52.46921875 30.5078125 52.7109375 C34.64334686 54.23747703 38.14159766 56.30971173 41.875 58.625 C42.56335938 59.04523438 43.25171875 59.46546875 43.9609375 59.8984375 C45.64391658 60.92692472 47.32242532 61.962721 49 63 C48.67 63.66 48.34 64.32 48 65 C47.12263184 64.68192383 47.12263184 64.68192383 46.22753906 64.35742188 C43.57067719 63.3983801 40.91042674 62.44910541 38.25 61.5 C37.32960938 61.16613281 36.40921875 60.83226562 35.4609375 60.48828125 C34.57148438 60.17246094 33.68203125 59.85664063 32.765625 59.53125 C31.94868164 59.23798828 31.13173828 58.94472656 30.29003906 58.64257812 C27.75453756 57.81989139 27.75453756 57.81989139 24 58 C22.73960764 59.48661663 21.48344043 60.97910329 20.3046875 62.53125 C18.50344064 64.55900096 16.5713898 65.2653172 14 66 C14 69.3 14 72.6 14 76 C9.52084672 76.02886338 5.04171709 76.04675187 0.5625 76.0625 C-0.71689453 76.07087891 -1.99628906 76.07925781 -3.31445312 76.08789062 C-4.52939453 76.09111328 -5.74433594 76.09433594 -6.99609375 76.09765625 C-8.12200928 76.10289307 -9.2479248 76.10812988 -10.40795898 76.11352539 C-13 76 -13 76 -14 75 C-14.07179964 73.48071962 -14.08392007 71.95832518 -14.0625 70.4375 C-14.05347656 69.61121094 -14.04445312 68.78492188 -14.03515625 67.93359375 C-14.02355469 67.29550781 -14.01195312 66.65742188 -14 66 C-14.91265625 65.58427734 -14.91265625 65.58427734 -15.84375 65.16015625 C-18 64 -18 64 -20.5 61.4375 C-23.01915844 58.98132052 -23.66335355 58.39698731 -27 58 C-29.54208561 58.49666309 -29.54208561 58.49666309 -32.203125 59.43359375 C-33.1828125 59.75263672 -34.1625 60.07167969 -35.171875 60.40039062 C-36.69554687 60.91375977 -36.69554687 60.91375977 -38.25 61.4375 C-39.28125 61.77587891 -40.3125 62.11425781 -41.375 62.46289062 C-43.9198666 63.2993977 -46.46117074 64.14537912 -49 65 C-49 64.34 -49 63.68 -49 63 C-47.90300781 62.39671875 -46.80601562 61.7934375 -45.67578125 61.171875 C-44.22121872 60.3648274 -42.76679917 59.55752208 -41.3125 58.75 C-40.59126953 58.35425781 -39.87003906 57.95851562 -39.12695312 57.55078125 C-35.11815718 55.31757072 -31.49663299 53.00696644 -28 50 C-28.2475 49.2265625 -28.2475 49.2265625 -28.5 48.4375 C-29.15049 45.26636124 -29.0620734 42.22781666 -29 39 C-29.66644531 38.95101562 -30.33289063 38.90203125 -31.01953125 38.8515625 C-44.88191229 37.72706166 -44.88191229 37.72706166 -51 36 C-51.33 35.34 -51.66 34.68 -52 34 C-44.08 34 -36.16 34 -28 34 C-25.86263944 27.73258967 -25.86263944 27.73258967 -26 24 C-27.95469673 21.99003655 -29.89467671 20.14991616 -32 18.3125 C-32.57234375 17.80138672 -33.1446875 17.29027344 -33.734375 16.76367188 C-35.14967213 15.5016986 -36.57400269 14.24986967 -38 13 C-37.67 12.34 -37.34 11.68 -37 11 C-35.97519531 11.60070312 -34.95039063 12.20140625 -33.89453125 12.8203125 C-32.53439252 13.5894944 -31.17368516 14.35767143 -29.8125 15.125 C-29.13896484 15.52332031 -28.46542969 15.92164062 -27.77148438 16.33203125 C-23.63767337 18.72823289 -23.63767337 18.72823289 -19.01171875 18.2421875 C-18.34785156 17.83226563 -17.68398437 17.42234375 -17 17 C-17 13.77205487 -17.63594515 12.31243504 -19 9.4375 C-21 5.20833333 -21 5.20833333 -21 3 C-17.55824169 4.14725277 -16.70880725 5.25284652 -14.4375 8 C-12.07789673 10.94959179 -12.07789673 10.94959179 -9 13 C-6.98072489 12.39421747 -4.97746603 11.73080266 -3 11 C-2.86722656 10.28972656 -2.73445313 9.57945313 -2.59765625 8.84765625 C-2.42105469 7.92855469 -2.24445313 7.00945312 -2.0625 6.0625 C-1.88847656 5.14597656 -1.71445313 4.22945313 -1.53515625 3.28515625 C-1 1 -1 1 0 0 Z M-13 22 C-13.886875 22.53625 -14.77375 23.0725 -15.6875 23.625 C-20.35686601 28.42056509 -23.2534542 34.26971321 -23.625 41 C-23.26831317 47.29155932 -20.75317345 53.06098734 -16.4375 57.66796875 C-14.10150033 59.65940847 -11.55216829 61.29855447 -9 63 C-8.67 65.31 -8.34 67.62 -8 70 C-2.72 70 2.56 70 8 70 C8.33 67.69 8.66 65.38 9 63 C11.6875 61 11.6875 61 15 59 C20.70060183 53.5542486 23.00882191 48.5905653 23.4375 40.6875 C23.30089548 34.77332786 21.71913076 30.59527214 18 26 C11.81155595 20.185857 6.07660409 17.50231033 -2.4375 17.6796875 C-6.52107514 18.19013439 -9.57225332 19.80193823 -13 22 Z " fill="#1E1C1A" transform="translate(249,110)"/>
<path d="M0 0 C4.62 0 9.24 0 14 0 C14.33 20.46 14.66 40.92 15 62 C16.32 62 17.64 62 19 62 C18.97679687 60.90945313 18.95359375 59.81890625 18.9296875 58.6953125 C18.77158994 47.64577495 19.5503012 36.95040343 21 26 C21.33 26 21.66 26 22 26 C22.15956375 37.70134149 21.66408409 49.31923512 21 61 C23.31 61.33 25.62 61.66 28 62 C28.33 60.35 28.66 58.7 29 57 C30.98 56.505 30.98 56.505 33 56 C33 55.34 33 54.68 33 54 C36.4019487 51.90649311 39.05272412 51.82057837 43 52 C42.2265625 52.3403125 42.2265625 52.3403125 41.4375 52.6875 C39.34610318 53.81363675 37.40494506 54.98697558 35.4375 56.3125 C34.56931641 56.89451172 34.56931641 56.89451172 33.68359375 57.48828125 C31.80398055 58.99125821 31.80398055 58.99125821 30.67578125 61.6328125 C29 64 29 64 26.109375 64.56640625 C24.44648438 64.56447266 24.44648438 64.56447266 22.75 64.5625 C16.81876303 64.77362301 13.88023692 65.78112033 9 69 C4.6149161 69 4.19442551 68.57614961 1 66 C-2.42232972 64.85922343 -5.08673217 64.90184883 -8.6875 64.9375 C-9.86699219 64.94652344 -11.04648438 64.95554687 -12.26171875 64.96484375 C-13.16535156 64.97644531 -14.06898438 64.98804688 -15 65 C-15.53625 63.9275 -16.0725 62.855 -16.625 61.75 C-18.81079739 57.87374779 -21.16583981 56.17850011 -25 54 C-24.443125 53.72929687 -23.88625 53.45859375 -23.3125 53.1796875 C-20.82061948 51.90849169 -18.41100379 50.54366991 -16 49.125 C-15.154375 48.63257813 -14.30875 48.14015625 -13.4375 47.6328125 C-10.83465309 45.88923877 -8.91473924 44.49261099 -7 42 C-6.30220618 38.50727748 -6.30220618 38.50727748 -6.25 34.75 C-6.19328125 33.48671875 -6.1365625 32.2234375 -6.078125 30.921875 C-6.05234375 29.95765625 -6.0265625 28.9934375 -6 28 C-5.67 28 -5.34 28 -5 28 C-5 39.22 -5 50.44 -5 62 C-3.02 62.33 -1.04 62.66 1 63 C0.96970703 62.08637695 0.93941406 61.17275391 0.90820312 60.23144531 C0.25488731 40.14449689 -0.14436986 20.09949225 0 0 Z " fill="#38ACBF" transform="translate(243,241)"/>
<path d="M0 0 C0.97062413 3.12448954 0.98517915 5.44998938 0.51171875 8.67578125 C0.31896362 10.03098877 0.31896362 10.03098877 0.12231445 11.41357422 C-0.02117432 12.37021973 -0.16466309 13.32686523 -0.3125 14.3125 C-0.59637667 16.30077804 -0.88023075 18.2890593 -1.1640625 20.27734375 C-1.44230184 22.18495517 -1.72092091 24.09251125 -2 26 C-3.54786644 35.6452203 -3.54786644 35.6452203 -4 45.375 C-4 49.79623349 -4.3759476 53.85909152 -6 58 C-8.125 59.75 -8.125 59.75 -11 61 C-11.59039062 61.46792969 -12.18078125 61.93585938 -12.7890625 62.41796875 C-14.85125608 64.01596338 -16.52657683 65.15336232 -19 66 C-21.58386437 65.40001793 -23.55993142 64.41086102 -25.87890625 63.1328125 C-28.52659618 61.71876079 -31.03242939 61.30436622 -34 61 C-30.90230501 56.83569941 -27.77460397 52.70190119 -24.5625 48.625 C-23.37068529 47.08666647 -22.18324462 45.54493512 -21 44 C-20.40960938 43.22914063 -19.81921875 42.45828125 -19.2109375 41.6640625 C-10.05876492 29.20581877 -5.33353333 14.3646843 0 0 Z " fill="#0AA0B9" transform="translate(320,232)"/>
<path d="M0 0 C28.34999266 -1.05468723 28.34999266 -1.05468723 42 5 C43.12148437 5.49628906 44.24296875 5.99257812 45.3984375 6.50390625 C53.88179857 10.68513528 61.28228979 16.37024672 68 23 C68 23.66 68 24.32 68 25 C64.28424636 24.67213938 63.01388452 24.01265034 60.1875 21.4375 C57.65348395 19.13505199 56.04634899 18.6633635 52.625 18.6875 C51.42875 18.790625 50.2325 18.89375 49 19 C49 19.66 49 20.32 49 21 C51.31 20.67 53.62 20.34 56 20 C56.0825 21.11375 56.165 22.2275 56.25 23.375 C56.57873787 27.05753944 56.57873787 27.05753944 59.0625 28.4375 C59.701875 28.623125 60.34125 28.80875 61 29 C60.67 29.66 60.34 30.32 60 31 C59.40316406 30.5153125 58.80632812 30.030625 58.19140625 29.53125 C41.11974482 16.34066465 23.12340529 11.86061083 2 10 C2 9.01 2 8.02 2 7 C3.32 6.67 4.64 6.34 6 6 C5.34 5.67 4.68 5.34 4 5 C4 4.01 4 3.02 4 2 C2.68 2 1.36 2 0 2 C0 1.34 0 0.68 0 0 Z " fill="#202221" transform="translate(176,208)"/>
<path d="M0 0 C1.53445094 3.06890187 0.54984289 5.70094266 0 9 C-0.66 9 -1.32 9 -2 9 C3.07271725 20.90137509 10.4125813 28.04379395 22.34765625 32.96875 C24.21857669 33.68148159 26.10765235 34.3462799 28 35 C28 35.66 28 36.32 28 37 C27.01 37.495 27.01 37.495 26 38 C25.67 40.31 25.34 42.62 25 45 C19.72 45 14.44 45 9 45 C8.67 42.69 8.34 40.38 8 38 C6.39163341 36.19983201 6.39163341 36.19983201 4.25 35.0625 C-1.06676765 31.51162466 -3.99003638 27.02989087 -6 21 C-7.00532599 13.1728191 -5.09577961 7.64724887 -1 1 C-0.67 0.67 -0.34 0.34 0 0 Z " fill="#DD8E11" transform="translate(232,135)"/>
<path d="M0 0 C3.07846056 -0.37695435 5.93138163 -0.50811538 9 0 C10.59375 1.3359375 10.59375 1.3359375 12.0625 3 C14.75379364 5.73614854 15.98209003 5.99834101 19.921875 6.36328125 C22.80468661 6.37622171 25.67209735 6.25791473 28.55078125 6.11328125 C32 6 32 6 34 7 C34 8.98 34 10.96 34 13 C32.39318359 13.07347656 32.39318359 13.07347656 30.75390625 13.1484375 C29.35674361 13.22345294 27.9596095 13.2990013 26.5625 13.375 C25.85544922 13.4059375 25.14839844 13.436875 24.41992188 13.46875 C22.60760812 13.57280629 20.80182012 13.77919892 19 14 C17.584787 16.830426 17.87021089 19.21579051 17.8671875 22.37890625 C17.86525391 23.6848877 17.86332031 24.99086914 17.86132812 26.33642578 C17.86543642 27.74511857 17.87000222 29.15381009 17.875 30.5625 C17.87588623 31.26840271 17.87677246 31.97430542 17.87768555 32.70159912 C17.8914265 41.97383458 18.1051365 51.19145581 18.77734375 60.44140625 C19.12272634 65.96146838 19.08652654 71.47191529 19 77 C17.35 77 15.7 77 14 77 C13.98382629 76.18202942 13.96765259 75.36405884 13.95098877 74.52130127 C13.7950723 66.81072999 13.62048792 59.10091443 13.42494583 51.39125443 C13.32507417 47.42764524 13.23241673 43.46414119 13.15625 39.5 C13.08247103 35.67395924 12.98973727 31.84880416 12.88387299 28.02352142 C12.84682275 26.56445612 12.81659249 25.10520109 12.79331207 23.64585114 C12.75951582 21.60054441 12.70144906 19.55725726 12.63769531 17.51269531 C12.61104797 16.34909485 12.58440063 15.18549438 12.5569458 13.9866333 C11.88957471 10.40784211 10.65878345 9.37492581 8 7 C7.75 4.25 7.75 4.25 8 2 C5.69 2.33 3.38 2.66 1 3 C0.67 2.01 0.34 1.02 0 0 Z " fill="#142326" transform="translate(224,226)"/>
<path d="M0 0 C1.51400391 0.01740234 1.51400391 0.01740234 3.05859375 0.03515625 C4.07050781 0.04417969 5.08242187 0.05320313 6.125 0.0625 C7.29869141 0.07990234 7.29869141 0.07990234 8.49609375 0.09765625 C8.54562081 4.4392745 8.58187329 8.780742 8.60595703 13.12255859 C8.61599966 14.59882472 8.6296364 16.07507104 8.64697266 17.55126953 C8.67129796 19.67615659 8.68259415 21.8007801 8.69140625 23.92578125 C8.70187988 25.20356445 8.71235352 26.48134766 8.72314453 27.79785156 C8.51057419 30.88720724 8.32602699 32.62501844 6.49609375 35.09765625 C3.37109375 35.84765625 3.37109375 35.84765625 0.49609375 36.09765625 C-3.34226775 32.08786725 -3.995226 29.5843687 -3.9296875 24.08203125 C-3.92639938 23.42559631 -3.92311127 22.76916138 -3.91972351 22.09283447 C-3.90935028 20.71445704 -3.88948123 19.33612159 -3.8605957 17.95800781 C-3.81625123 15.84025281 -3.79911655 13.72363204 -3.78710938 11.60546875 C-3.67246649 0.14323192 -3.67246649 0.14323192 0 0 Z " fill="#04D5F9" transform="translate(247.50390625,241.90234375)"/>
<path d="M0 0 C2.31 0 4.62 0 7 0 C6.41409056 10.36618196 5.08669945 20.58408469 3.58081055 30.85083008 C3.31642294 32.67364395 3.05970638 34.49758537 2.81030273 36.32250977 C2.4457575 38.98974594 2.05947638 41.65301067 1.66796875 44.31640625 C1.50677803 45.53669273 1.50677803 45.53669273 1.34233093 46.78163147 C0.62110711 51.47393142 -0.16457852 53.89513499 -4 57 C-5.23512079 59.13309192 -5.23512079 59.13309192 -6 61 C-6.66 61 -7.32 61 -8 61 C-7.62831891 52.31035236 -6.75935641 43.91658579 -5.23168945 35.359375 C-3.87032333 27.59802332 -2.92660881 19.79487824 -2.00244141 11.97094727 C-1.88562012 10.99311279 -1.76879883 10.01527832 -1.6484375 9.0078125 C-1.49640869 7.70287842 -1.49640869 7.70287842 -1.34130859 6.37158203 C-1.0275977 4.19176255 -0.57825497 2.12313595 0 0 Z " fill="#1B1D1E" transform="translate(323,218)"/>
<path d="M0 0 C0.89332031 0.99193359 0.89332031 0.99193359 1.8046875 2.00390625 C3.89101075 4.36034303 3.89101075 4.36034303 7.125 3.9375 C10.29174932 3.23305313 10.29174932 3.23305313 12 0 C12.09889302 4.50229474 12.17147709 9.00395727 12.21972656 13.50708008 C12.2398398 15.03876762 12.2671345 16.57037839 12.30175781 18.10180664 C12.35029315 20.30374073 12.37296996 22.50465982 12.390625 24.70703125 C12.41127014 25.39150833 12.43191528 26.07598541 12.45318604 26.78120422 C12.45471503 30.02233932 12.40134072 31.58509211 10.10058594 33.96362305 C8 35 8 35 6 34.875 C3.52184997 33.79080936 1.93771026 32.92550617 0 31 C-0.45410156 27.8137207 -0.45410156 27.8137207 -0.390625 23.92578125 C-0.38496521 23.2419487 -0.37930542 22.55811615 -0.37347412 21.8535614 C-0.35110816 19.67249101 -0.30091765 17.49307247 -0.25 15.3125 C-0.229935 13.83270605 -0.21168422 12.3528863 -0.1953125 10.87304688 C-0.15124474 7.2481624 -0.08221822 3.62424244 0 0 Z " fill="#0C9FB7" transform="translate(244,273)"/>
<path d="M0 0 C0.33 0 0.66 0 1 0 C2.015625 7.109375 3.03125 14.21875 4.046875 21.328125 C4.15677765 22.09704071 4.2666803 22.86595642 4.37991333 23.65817261 C4.60064493 25.20410777 4.82092062 26.7501081 5.04074097 28.2961731 C5.55190815 31.88774348 6.06888303 35.47812275 6.60595703 39.06591797 C6.78755371 40.29197754 6.96915039 41.51803711 7.15625 42.78125 C7.31673828 43.84666016 7.47722656 44.91207031 7.64257812 46.00976562 C8.16130637 50.3495085 8.18090938 54.63807375 8 59 C6.66666667 57.33333333 5.33333333 55.66666667 4 54 C3.32420898 53.27828613 2.64841797 52.55657227 1.95214844 51.81298828 C-0.43768033 48.36931557 -0.97577659 45.24102763 -1.484375 41.1796875 C-1.58969543 40.43921173 -1.69501587 39.69873596 -1.80352783 38.93582153 C-2.13411794 36.58401799 -2.44208904 34.22986832 -2.75 31.875 C-2.97122624 30.28495663 -3.19386832 28.69510958 -3.41796875 27.10546875 C-5 15.71980168 -5 15.71980168 -5 12 C-4.34 12 -3.68 12 -3 12 C-3 11.34 -3 10.68 -3 10 C-2.34 9.67 -1.68 9.34 -1 9 C-0.53348793 6.87423218 -0.53348793 6.87423218 -0.375 4.4375 C-0.30023438 3.61121094 -0.22546875 2.78492188 -0.1484375 1.93359375 C-0.09945312 1.29550781 -0.05046875 0.65742188 0 0 Z " fill="#172427" transform="translate(177,221)"/>
<path d="M0 0 C9.24 0 18.48 0 28 0 C28 1.65 28 3.3 28 5 C27.01 5 26.02 5 25 5 C24.731875 5.5775 24.46375 6.155 24.1875 6.75 C22.93085105 9.13101907 21.83218848 11.01716491 20 13 C16.2507869 13.95937478 12.76961304 13.8305013 9 13 C6.94265981 11.37556706 5.66214086 9.80719428 4.21875 7.62890625 C3.00592134 5.68521999 3.00592134 5.68521999 0 5 C0 3.35 0 1.7 0 0 Z " fill="#1C1D1C" transform="translate(235,187)"/>
<path d="M0 0 C0.16865537 4.57128711 0.3290954 9.14276445 0.48217773 13.71459961 C0.53529982 15.26741139 0.59060264 16.82015026 0.64819336 18.37280273 C0.73094381 20.61426066 0.80565221 22.85587022 0.87890625 25.09765625 C0.90594131 25.78336197 0.93297638 26.46906769 0.96083069 27.17555237 C1.09460359 31.5699468 0.69373259 35.66545598 0 40 C-0.12909636 41.53856454 -0.23761999 43.07913414 -0.31640625 44.62109375 C-0.35830078 45.41064453 -0.40019531 46.20019531 -0.44335938 47.01367188 C-0.48267578 47.81353516 -0.52199219 48.61339844 -0.5625 49.4375 C-0.60568359 50.26443359 -0.64886719 51.09136719 -0.69335938 51.94335938 C-0.79838033 53.96209549 -0.89958559 55.98102951 -1 58 C-3.475 58.495 -3.475 58.495 -6 59 C-5.80824746 51.60212094 -5.60078399 44.20485988 -5.37313366 36.80799294 C-5.26792719 33.37345841 -5.16818263 29.93894441 -5.08081055 26.50390625 C-4.98017503 22.55675082 -4.85598039 18.61050857 -4.73046875 14.6640625 C-4.70220505 13.42757965 -4.67394135 12.1910968 -4.64482117 10.91714478 C-4.60500626 9.77611298 -4.56519135 8.63508118 -4.52416992 7.45947266 C-4.49530197 6.451315 -4.46643402 5.44315735 -4.43669128 4.40444946 C-4.29258316 3.61098114 -4.14847504 2.81751282 -4 2 C-1 0 -1 0 0 0 Z " fill="#191D1F" transform="translate(263,245)"/>
<path d="M0 0 C3.07846056 -0.37695435 5.93138163 -0.50811538 9 0 C10.59375 1.3359375 10.59375 1.3359375 12.0625 3 C14.75379364 5.73614854 15.98209003 5.99834101 19.921875 6.36328125 C22.80468661 6.37622171 25.67209735 6.25791473 28.55078125 6.11328125 C32 6 32 6 34 7 C34 8.98 34 10.96 34 13 C29.05 13.33 24.1 13.66 19 14 C18.34 15.98 17.68 17.96 17 20 C16.34 20 15.68 20 15 20 C14.67 20.66 14.34 21.32 14 22 C13.98582031 21.41992188 13.97164062 20.83984375 13.95703125 20.2421875 C13.69389276 15.93240578 13.44229609 12.99246358 10.4375 9.75 C8 7 8 7 7.6875 4.125 C7.790625 3.42375 7.89375 2.7225 8 2 C5.69 2.33 3.38 2.66 1 3 C0.67 2.01 0.34 1.02 0 0 Z " fill="#1F1F1F" transform="translate(224,226)"/>
<path d="M0 0 C3.6122332 1.31353934 6.77811817 3.03512126 10.0859375 4.98046875 C13.26837383 6.67560321 16.60119646 7.80743735 20 9 C20 9.33 20 9.66 20 10 C18.35 10 16.7 10 15 10 C15 12.31 15 14.62 15 17 C8.565 17.495 8.565 17.495 2 18 C2 15.03 2 12.06 2 9 C0.576875 8.9071875 0.576875 8.9071875 -0.875 8.8125 C-1.90625 8.544375 -2.9375 8.27625 -4 8 C-5.375 5.4375 -5.375 5.4375 -6 3 C-4.68 3 -3.36 3 -2 3 C-1.67 2.34 -1.34 1.68 -1 1 C-0.67 0.67 -0.34 0.34 0 0 Z " fill="#DD8D12" transform="translate(240,161)"/>
<path d="M0 0 C24.59122907 -1.10510916 42.76272151 4.15431313 61.61328125 20.64453125 C62.40089844 21.42183594 63.18851563 22.19914062 64 23 C64 23.66 64 24.32 64 25 C59.74538797 24.46249563 57.45620808 23.08897559 54.125 20.4375 C37.53393751 8.01650295 20.2928912 3.67064969 0 1 C0 0.67 0 0.34 0 0 Z " fill="#AFADAF" transform="translate(180,208)"/>
<path d="M0 0 C0.33 0 0.66 0 1 0 C1 10.89 1 21.78 1 33 C-1.64 33.66 -4.28 34.32 -7 35 C-7.48210937 34.44570313 -7.96421875 33.89140625 -8.4609375 33.3203125 C-9.09257812 32.59585938 -9.72421875 31.87140625 -10.375 31.125 C-11.00148437 30.40570313 -11.62796875 29.68640625 -12.2734375 28.9453125 C-13.47426834 27.5923402 -14.7208345 26.2791655 -16 25 C-15.25234375 24.54109375 -14.5046875 24.0821875 -13.734375 23.609375 C-12.74953125 22.99578125 -11.7646875 22.3821875 -10.75 21.75 C-9.77546875 21.14671875 -8.8009375 20.5434375 -7.796875 19.921875 C-5.08686486 18.05968926 -2.99063307 16.61731385 -1 14 C-0.30220618 10.50727748 -0.30220618 10.50727748 -0.25 6.75 C-0.19328125 5.48671875 -0.1365625 4.2234375 -0.078125 2.921875 C-0.05234375 1.95765625 -0.0265625 0.9934375 0 0 Z " fill="#0D96AC" transform="translate(237,269)"/>
<path d="M0 0 C0 0.33 0 0.66 0 1 C-1.01835937 1.07476562 -2.03671875 1.14953125 -3.0859375 1.2265625 C-23.2345445 2.98384841 -42.73471485 9.86710142 -57.94921875 23.53125 C-60 25 -60 25 -64 25 C-62.45925194 20.71572636 -59.21451142 18.54850623 -55.6875 15.9375 C-54.83381836 15.2868457 -54.83381836 15.2868457 -53.96289062 14.62304688 C-47.42515977 9.69160121 -40.56188035 6.12800673 -33 3 C-32.21238281 2.67386719 -31.42476563 2.34773437 -30.61328125 2.01171875 C-20.86687012 -1.29986378 -10.15352309 -0.2620004 0 0 Z " fill="#B3B4B3" transform="translate(320,208)"/>
<path d="M0 0 C2.31625061 1.11777771 4.62784605 2.24374092 6.9375 3.375 C7.59685547 3.69210938 8.25621094 4.00921875 8.93554688 4.3359375 C13.88671875 6.7734375 13.88671875 6.7734375 15 9 C13.02 9.33 11.04 9.66 9 10 C9 10.66 9 11.32 9 12 C12.465 11.505 12.465 11.505 16 11 C16.12375 12.670625 16.12375 12.670625 16.25 14.375 C16.57873787 18.05753944 16.57873787 18.05753944 19.0625 19.4375 C19.701875 19.623125 20.34125 19.80875 21 20 C20.67 20.66 20.34 21.32 20 22 C19.40316406 21.5153125 18.80632812 21.030625 18.19140625 20.53125 C12.47665076 16.11568855 6.77708314 12.68383595 0.25 9.625 C-0.45825928 9.29177734 -1.16651855 8.95855469 -1.89624023 8.61523438 C-6.19678475 6.65628179 -10.42547403 5.18554469 -15 4 C-10.26969248 2.77362398 -5.91220685 1.85965123 -1 2 C-0.67 1.34 -0.34 0.68 0 0 Z " fill="#1A2527" transform="translate(216,217)"/>
<path d="M0 0 C0.66 1.32 1.32 2.64 2 4 C2.66 3.67 3.32 3.34 4 3 C4 4.32 4 5.64 4 7 C3.01 7.66 2.02 8.32 1 9 C1.99 10.485 1.99 10.485 3 12 C-6.405 12.495 -6.405 12.495 -16 13 C-16.33 11.02 -16.66 9.04 -17 7 C-16.34 6.67 -15.68 6.34 -15 6 C-15.66 5.34 -16.32 4.68 -17 4 C-15.35 3.67 -13.7 3.34 -12 3 C-13.65 2.67 -15.3 2.34 -17 2 C-17 1.67 -17 1.34 -17 1 C-8.585 0.505 -8.585 0.505 0 0 Z " fill="#1E2628" transform="translate(320,206)"/>
<path d="M0 0 C8.54011956 0.44947998 16.01533633 3.14908583 24 6 C24 7.32 24 8.64 24 10 C22.63875 9.9690625 22.63875 9.9690625 21.25 9.9375 C18.15065303 9.85422971 18.15065303 9.85422971 15.875 10.625 C13.34827616 11.13034477 12.15045266 10.30563197 10 9 C10.99 8.67 11.98 8.34 13 8 C13.33 7.34 13.66 6.68 14 6 C13.071875 6.309375 13.071875 6.309375 12.125 6.625 C11.42375 6.74875 10.7225 6.8725 10 7 C9.34 6.34 8.68 5.68 8 5 C7.34 5.66 6.68 6.32 6 7 C3.375 7.125 3.375 7.125 1 7 C1 6.01 1 5.02 1 4 C0.34 3.67 -0.32 3.34 -1 3 C-0.67 2.01 -0.34 1.02 0 0 Z " fill="#1D201F" transform="translate(191,210)"/>
<path d="M0 0 C0.66 0 1.32 0 2 0 C2 0.66 2 1.32 2 2 C2.99 2.33 3.98 2.66 5 3 C4.85761163 5.04190981 4.71092972 7.08352045 4.5625 9.125 C4.48128906 10.26195312 4.40007812 11.39890625 4.31640625 12.5703125 C3.42372501 22.24653636 3.42372501 22.24653636 -1 26 C-1.66 26.66 -2.32 27.32 -3 28 C-3.37838364 18.54040912 -1.56858546 9.29846154 0 0 Z " fill="#1C1D1D" transform="translate(320,249)"/>
<path d="M0 0 C0.33 0 0.66 0 1 0 C1.15956375 11.70134149 0.66408409 23.31923512 0 35 C2.31 35.33 4.62 35.66 7 36 C7.33 34.35 7.66 32.7 8 31 C9.32 30.67 10.64 30.34 12 30 C12 29.34 12 28.68 12 28 C15.4019487 25.90649311 18.05272412 25.82057837 22 26 C21.2265625 26.3403125 21.2265625 26.3403125 20.4375 26.6875 C13.95006584 30.12646321 13.95006584 30.12646321 9.6875 35.8125 C9.130625 36.534375 8.57375 37.25625 8 38 C5.64770508 38.21362305 5.64770508 38.21362305 2.89453125 38.13671875 C1.9816333 38.11697998 1.06873535 38.09724121 0.12817383 38.0769043 C-0.57412354 38.05152588 -1.2764209 38.02614746 -2 38 C-2.24130116 25.15741598 -1.72221049 12.73205613 0 0 Z " fill="#33B1C8" transform="translate(264,267)"/>
<path d="M0 0 C0.66 0 1.32 0 2 0 C3.1782387 4.32020858 2.63336879 7.60160563 2 12 C1.75179104 15.14295879 1.59227528 18.28871107 1.4375 21.4375 C1.39431641 22.26443359 1.35113281 23.09136719 1.30664062 23.94335938 C1.20161967 25.96209549 1.10041441 27.98102951 1 30 C-0.65 30.33 -2.3 30.66 -4 31 C-3.67 21.1 -3.34 11.2 -3 1 C-0.57054439 4.64418341 -0.9171219 5.92923364 -1.375 10.1875 C-1.48585938 11.27417969 -1.59671875 12.36085938 -1.7109375 13.48046875 C-1.80632812 14.31191406 -1.90171875 15.14335937 -2 16 C-1.34 16 -0.68 16 0 16 C0 10.72 0 5.44 0 0 Z " fill="#12232B" transform="translate(261,273)"/>
<path d="M0 0 C3 2 3 2 3.39440918 3.88400269 C3.40282837 4.64915192 3.41124756 5.41430115 3.41992188 6.20263672 C3.44378967 7.5044136 3.44378967 7.5044136 3.46813965 8.83248901 C3.46834106 9.77206451 3.46854248 10.71164001 3.46875 11.6796875 C3.47636353 12.64399689 3.48397705 13.60830627 3.49182129 14.60183716 C3.5026402 16.64452522 3.50546815 18.68726869 3.50097656 20.72998047 C3.50000587 23.85608404 3.54157268 26.97972098 3.5859375 30.10546875 C3.5911455 32.08853654 3.59383268 34.07161288 3.59375 36.0546875 C3.61014526 36.99021454 3.62654053 37.92574158 3.64343262 38.88961792 C3.57405664 45.40683023 3.57405664 45.40683023 0.46289062 48.62158203 C-0.75624023 49.30389893 -0.75624023 49.30389893 -2 50 C-2 48.68 -2 47.36 -2 46 C-1.01 46 -0.02 46 1 46 C0.67 30.82 0.34 15.64 0 0 Z " fill="#1CBFDA" transform="translate(234,237)"/>
<path d="M0 0 C0.56203125 0.37898437 1.1240625 0.75796875 1.703125 1.1484375 C0.5834264 2.15436993 -0.5428162 3.1530224 -1.671875 4.1484375 C-2.61160156 4.98375 -2.61160156 4.98375 -3.5703125 5.8359375 C-5.296875 7.1484375 -5.296875 7.1484375 -7.296875 7.1484375 C-7.296875 10.4484375 -7.296875 13.7484375 -7.296875 17.1484375 C-10.596875 17.1484375 -13.896875 17.1484375 -17.296875 17.1484375 C-17.296875 16.4884375 -17.296875 15.8284375 -17.296875 15.1484375 C-13.831875 14.6534375 -13.831875 14.6534375 -10.296875 14.1484375 C-9.966875 12.8284375 -9.636875 11.5084375 -9.296875 10.1484375 C-9.956875 10.1484375 -10.616875 10.1484375 -11.296875 10.1484375 C-11.296875 8.1684375 -11.296875 6.1884375 -11.296875 4.1484375 C-9.89233857 3.25409593 -8.47265631 2.38350558 -7.046875 1.5234375 C-6.25796875 1.03617188 -5.4690625 0.54890625 -4.65625 0.046875 C-2.296875 -0.8515625 -2.296875 -0.8515625 0 0 Z " fill="#1C1C21" transform="translate(270.296875,168.8515625)"/>
<path d="M0 0 C11.32110494 1.21787644 21.64429269 9.76095403 30 17 C26.44464145 17 25.38058104 16.15851483 22.4375 14.25 C17.46862269 11.17609483 12.47446719 8.99960246 7 7 C5.45826618 6.41684419 3.91659382 5.83352583 2.375 5.25 C1.26125 4.8375 0.1475 4.425 -1 4 C-0.67 2.68 -0.34 1.36 0 0 Z " fill="#242523" transform="translate(205,205)"/>
<path d="M0 0 C-0.25439453 1.88647461 -0.25439453 1.88647461 -1 4 C-2.71826172 5.04907227 -2.71826172 5.04907227 -4.9296875 5.81640625 C-5.72503906 6.10580078 -6.52039063 6.39519531 -7.33984375 6.69335938 C-8.59474609 7.12358398 -8.59474609 7.12358398 -9.875 7.5625 C-11.52085524 8.13970118 -13.16421269 8.72408618 -14.8046875 9.31640625 C-15.53671387 9.56849854 -16.26874023 9.82059082 -17.02294922 10.08032227 C-19.19752622 11.09188457 -20.36011786 12.27411789 -22 14 C-25.0625 15.75 -25.0625 15.75 -28 17 C-28.66 16.67 -29.32 16.34 -30 16 C-23.60617624 10.85636524 -17.15943527 6.28170293 -9.9375 2.375 C-8.97348267 1.84326172 -8.97348267 1.84326172 -7.98999023 1.30078125 C-3.37184042 -1.12394681 -3.37184042 -1.12394681 0 0 Z " fill="#1C1A1B" transform="translate(296,205)"/>
<path d="M0 0 C1.18239258 0.00676758 1.18239258 0.00676758 2.38867188 0.01367188 C4.32164761 0.02538688 6.25458393 0.04332002 8.1875 0.0625 C7.8575 3.0325 7.5275 6.0025 7.1875 9.0625 C6.8575 9.0625 6.5275 9.0625 6.1875 9.0625 C6.1875 6.4225 6.1875 3.7825 6.1875 1.0625 C4.20793559 1.20283111 2.22884859 1.3499123 0.25 1.5 C-0.85214844 1.58121094 -1.95429688 1.66242188 -3.08984375 1.74609375 C-5.72359903 1.76668084 -5.72359903 1.76668084 -6.8125 3.0625 C-8.3903125 3.248125 -8.3903125 3.248125 -10 3.4375 C-14.65235825 4.20018168 -18.12742629 5.64921237 -21.75 8.6875 C-24.64037652 10.61441768 -27.40288411 10.73465232 -30.8125 11.0625 C-30.8125 10.4025 -30.8125 9.7425 -30.8125 9.0625 C-29.843125 8.77375 -28.87375 8.485 -27.875 8.1875 C-24.70585797 7.42035318 -24.70585797 7.42035318 -23.8125 5.0625 C-21.703125 4.02734375 -21.703125 4.02734375 -19.0625 3 C-17.77085937 2.48759766 -17.77085937 2.48759766 -16.453125 1.96484375 C-10.89521514 0.06561716 -5.81373672 -0.0633517 0 0 Z " fill="#2CB9D4" transform="translate(314.8125,217.9375)"/>
<path d="M0 0 C0.33 0 0.66 0 1 0 C1 5.61 1 11.22 1 17 C0.34 17 -0.32 17 -1 17 C-0.98839844 17.98742187 -0.97679687 18.97484375 -0.96484375 19.9921875 C-0.95582031 21.27351563 -0.94679688 22.55484375 -0.9375 23.875 C-0.92589844 25.15117187 -0.91429687 26.42734375 -0.90234375 27.7421875 C-1 31 -1 31 -2 33 C-2.28956845 34.80939382 -2.53369482 36.62617457 -2.75390625 38.4453125 C-2.88603516 39.52167969 -3.01816406 40.59804688 -3.15429688 41.70703125 C-3.28900391 42.83496094 -3.42371094 43.96289062 -3.5625 45.125 C-3.70107422 46.26066406 -3.83964844 47.39632812 -3.98242188 48.56640625 C-4.32491604 51.37722044 -4.66396195 54.18840787 -5 57 C-5.66 57 -6.32 57 -7 57 C-6.62844324 48.3132592 -5.75864644 39.92280851 -4.23388672 31.36816406 C-2.41247201 20.97082958 -1.24483612 10.47903844 0 0 Z " fill="#0A3A42" transform="translate(322,222)"/>
<path d="M0 0 C7.05151262 1.09831686 11.80655688 4.01628984 17.125 8.5625 C17.70531982 9.05790283 18.28563965 9.55330566 18.88354492 10.0637207 C20.30408419 11.32326695 21.65859337 12.65649085 23 14 C23 14.66 23 15.32 23 16 C18.62889809 15.4654048 16.19968766 13.9330904 12.75 11.25 C8.03075733 7.68975723 3.25371202 4.69820272 -2 2 C-1.34 1.34 -0.68 0.68 0 0 Z " fill="#A2A2A2" transform="translate(221,217)"/>
<path d="M0 0 C0.66 0 1.32 0 2 0 C2.33 0.66 2.66 1.32 3 2 C3.99 2.33 4.98 2.66 6 3 C6.33 3.99 6.66 4.98 7 6 C10.00847418 7.22520264 10.00847418 7.22520264 13 8 C13 10.97 13 13.94 13 17 C14.32 16.67 15.64 16.34 17 16 C18.58211573 15.93451508 20.16670081 15.91421619 21.75 15.9375 C22.54921875 15.94652344 23.3484375 15.95554688 24.171875 15.96484375 C24.77515625 15.97644531 25.3784375 15.98804688 26 16 C26 13.69 26 11.38 26 9 C27.65 9 29.3 9 31 9 C30.34 9.66 29.68 10.32 29 11 C28.67 13.31 28.34 15.62 28 18 C22.72 18 17.44 18 12 18 C11.67 15.69 11.34 13.38 11 11 C9.32792436 9.0977843 9.32792436 9.0977843 7.125 7.875 C3.74161195 5.61940797 1.77112082 3.76363175 0 0 Z " fill="#B27C26" transform="translate(229,162)"/>
<path d="M0 0 C0.66 0 1.32 0 2 0 C3 3.875 3 3.875 3 5 C3.65257873 6.672233 4.31867549 8.33927151 5 10 C5.33 10 5.66 10 6 10 C6.2260865 13.91585395 6.42778506 17.83259423 6.625 21.75 C6.68945312 22.86117187 6.75390625 23.97234375 6.8203125 25.1171875 C6.871875 26.18710937 6.9234375 27.25703125 6.9765625 28.359375 C7.02893066 29.34389648 7.08129883 30.32841797 7.13525391 31.34277344 C7 34 7 34 5 38 C4.67 29.75 4.34 21.5 4 13 C3.01 13.33 2.02 13.66 1 14 C0.92652344 12.93458984 0.92652344 12.93458984 0.8515625 11.84765625 C0.73941406 10.46900391 0.73941406 10.46900391 0.625 9.0625 C0.55539062 8.14597656 0.48578125 7.22945312 0.4140625 6.28515625 C0.27742188 5.53105469 0.14078125 4.77695313 0 4 C-0.66 3.67 -1.32 3.34 -2 3 C-1.34 3 -0.68 3 0 3 C0 2.01 0 1.02 0 0 Z " fill="#203136" transform="translate(258,233)"/>
<path d="M0 0 C0.66 0.33 1.32 0.66 2 1 C3.32860925 1.35169068 4.66158328 1.68770276 6 2 C5.67 2.99 5.34 3.98 5 5 C-0.86037621 6.13708792 -6.03529201 5.78512775 -11.9375 5.0625 C-13.24944336 4.91264648 -13.24944336 4.91264648 -14.58789062 4.75976562 C-16.72617914 4.51438825 -18.86323286 4.25829053 -21 4 C-21 3.01 -21 2.02 -21 1 C-19.3603125 1.2475 -19.3603125 1.2475 -17.6875 1.5 C-12.50960823 2.13913154 -7.20045839 2.51654385 -2 2 C-1.34 1.34 -0.68 0.68 0 0 Z " fill="#112E38" transform="translate(199,214)"/>
<path d="M0 0 C0.99 0.33 1.98 0.66 3 1 C3 1.99 3 2.98 3 4 C0.69921875 5.71875 0.69921875 5.71875 -2.3125 7.5 C-6.23296393 9.76476328 -6.23296393 9.76476328 -9.60546875 12.71875 C-11 14 -11 14 -15 14 C-13.44572016 9.66223861 -10.10268248 7.37649106 -6.5625 4.6875 C-5.68368164 3.98657227 -5.68368164 3.98657227 -4.78710938 3.27148438 C-3.06640625 1.94921875 -3.06640625 1.94921875 0 0 Z " fill="#909293" transform="translate(271,219)"/>
<path d="M0 0 C0 0.33 0 0.66 0 1 C-0.97839844 0.96519531 -1.95679688 0.93039062 -2.96484375 0.89453125 C-11.68561187 0.59404253 -11.68561187 0.59404253 -20.0625 2.75 C-22.125 3.59765625 -22.125 3.59765625 -24 4 C-27.5625 2.1875 -27.5625 2.1875 -30 0 C-28 -1 -28 -1 -25.1875 -0.4375 C-22.07650104 0.25926293 -22.07650104 0.25926293 -19.640625 -0.95703125 C-13.45688508 -3.39942557 -6.0174749 -2.60215131 0 0 Z " fill="#25C1DB" transform="translate(222,293)"/>
<path d="M0 0 C0.33 1.32 0.66 2.64 1 4 C-3.625 7 -3.625 7 -7 7 C-6.649375 7.7425 -6.29875 8.485 -5.9375 9.25 C-4.95490707 12.1322726 -4.9673198 13.21176345 -6 16 C-9.38005327 14.55140574 -11.4587228 12.62669829 -14 10 C-13.24074219 9.52949219 -12.48148438 9.05898438 -11.69921875 8.57421875 C-10.70535156 7.95160156 -9.71148437 7.32898438 -8.6875 6.6875 C-7.20830078 5.76517578 -7.20830078 5.76517578 -5.69921875 4.82421875 C-3.49827965 3.33675339 -1.76671012 1.9596614 0 0 Z " fill="#08A1B8" transform="translate(235,284)"/>
<path d="M0 0 C0.66 0.33 1.32 0.66 2 1 C-2.29 5.29 -6.58 9.58 -11 14 C-11.33 12.68 -11.66 11.36 -12 10 C-12.99 9.34 -13.98 8.68 -15 8 C-12.54665445 6.63603538 -10.08808766 5.28365831 -7.625 3.9375 C-6.92632812 3.54755859 -6.22765625 3.15761719 -5.5078125 2.75585938 C-3.70389816 1.77584822 -1.85416518 0.88124929 0 0 Z " fill="#1C1C1C" transform="translate(286,121)"/>
<path d="M0 0 C7.13664963 1.34653767 12.75719474 4.3507131 19 8 C16 9 16 9 13 8 C13 7.34 13 6.68 13 6 C11.7625 6.37125 11.7625 6.37125 10.5 6.75 C5.78555611 7.08674599 2.97885024 5.35297489 -1 3 C-0.67 2.01 -0.34 1.02 0 0 Z " fill="#C2BEC2" transform="translate(210,211)"/>
<path d="M0 0 C0.82638376 2.89234315 1 4.88742431 1 8 C1.66 8 2.32 8 3 8 C3 8.66 3 9.32 3 10 C-3 8 -9 6 -15 4 C-10.25818888 2.80702849 -5.92213617 1.85936754 -1 2 C-0.67 1.34 -0.34 0.68 0 0 Z " fill="#1A2429" transform="translate(216,217)"/>
<path d="M0 0 C0.33 0 0.66 0 1 0 C1.027193 1.58323688 1.04648306 3.16661062 1.0625 4.75 C1.07410156 5.63171875 1.08570313 6.5134375 1.09765625 7.421875 C1.00798201 9.78927482 0.58908819 11.72219234 0 14 C0.37907282 16.18703385 0.37907282 16.18703385 1 18 C0.29875 18.12375 -0.4025 18.2475 -1.125 18.375 C-4.17656387 19.03838345 -7.05340938 19.97211955 -10 21 C-9.60167969 20.5875 -9.20335937 20.175 -8.79296875 19.75 C-3.31830928 13.78248797 -1.00456879 8.03655035 0 0 Z " fill="#34250E" transform="translate(272,150)"/>
<path d="M0 0 C1.53445094 3.06890187 0.54984289 5.70094266 0 9 C-0.99 9.33 -1.98 9.66 -3 10 C-3.33 11.98 -3.66 13.96 -4 16 C-3.67 16 -3.34 16 -3 16 C-3 19.3 -3 22.6 -3 26 C-5.90346989 23.09653011 -6.20997332 20.39179306 -6.375 16.4375 C-6.3493062 10.61357187 -4.22058849 4.22058849 0 0 Z " fill="#D09633" transform="translate(232,135)"/>
<path d="M0 0 C0.33 0 0.66 0 1 0 C1.51156946 3.45672201 2.00706532 6.91557552 2.5 10.375 C2.64308594 11.34050781 2.78617188 12.30601562 2.93359375 13.30078125 C3.81865094 19.58047273 4.18794674 25.66027798 4 32 C1.41331224 29.41331224 1.65770694 28.03108979 1.4375 24.4375 C1.50202788 20.90583192 1.50202788 20.90583192 0 18 C-0.08631874 16.65732587 -0.10706473 15.31025678 -0.09765625 13.96484375 C-0.09443359 13.15595703 -0.09121094 12.34707031 -0.08789062 11.51367188 C-0.07951172 10.66353516 -0.07113281 9.81339844 -0.0625 8.9375 C-0.05798828 8.08349609 -0.05347656 7.22949219 -0.04882812 6.34960938 C-0.03700373 4.23304337 -0.01906769 2.11651315 0 0 Z " fill="#074550" transform="translate(181,248)"/>
<path d="M0 0 C-1.15727393 3.47182179 -1.57485955 3.6052036 -4.67578125 5.19140625 C-5.42150391 5.57876953 -6.16722656 5.96613281 -6.93554688 6.36523438 C-7.71994141 6.76033203 -8.50433594 7.15542969 -9.3125 7.5625 C-10.08529297 7.96146484 -10.85808594 8.36042969 -11.65429688 8.77148438 C-15.08966058 10.54085914 -18.54267766 12.27399868 -22 14 C-19.84219549 7.52658647 -10.65259618 4.13535051 -4.9453125 0.8828125 C-3 0 -3 0 0 0 Z " fill="#081B21" transform="translate(291,221)"/>
<path d="M0 0 C2.42574727 1.22150005 4.78820527 2.4930066 7.12109375 3.8828125 C6.79109375 4.5428125 6.46109375 5.2028125 6.12109375 5.8828125 C5.13109375 5.8828125 4.14109375 5.8828125 3.12109375 5.8828125 C2.46109375 4.8928125 1.80109375 3.9028125 1.12109375 2.8828125 C-3.16686942 1.79528561 -7.34817483 1.77535606 -11.75390625 1.8203125 C-12.90632812 1.82933594 -14.05875 1.83835938 -15.24609375 1.84765625 C-16.11492187 1.85925781 -16.98375 1.87085938 -17.87890625 1.8828125 C-13.29489665 -2.7011971 -5.71170319 -2.21648183 0 0 Z " fill="#D09637" transform="translate(256.87890625,129.1171875)"/>
<path d="M0 0 C1.05239592 1.57859387 2.09336394 3.16971972 3.0078125 4.83203125 C5.30726226 8.90832855 7.40111077 11.50125395 11.3125 14.125 C13.39453125 15.546875 13.39453125 15.546875 15 17 C15.5 20.375 15.5 20.375 15 23 C14.67 23 14.34 23 14 23 C13.34 21.02 12.68 19.04 12 17 C11.34 17 10.68 17 10 17 C10 16.34 10 15.68 10 15 C8.35 14.67 6.7 14.34 5 14 C5 13.01 5 12.02 5 11 C3.68 11.33 2.36 11.66 1 12 C0.67 8.04 0.34 4.08 0 0 Z " fill="#3A200B" transform="translate(226,156)"/>
<path d="M0 0 C-0.7734375 0.3403125 -0.7734375 0.3403125 -1.5625 0.6875 C-6.9318996 3.57871517 -11.26300474 6.36500976 -14 12 C-16.31 11.67 -18.62 11.34 -21 11 C-21 10.67 -21 10.34 -21 10 C-19.02 10 -17.04 10 -15 10 C-14.67 8.35 -14.34 6.7 -14 5 C-12.68 4.67 -11.36 4.34 -10 4 C-10 3.34 -10 2.68 -10 2 C-6.5980513 -0.09350689 -3.94727588 -0.17942163 0 0 Z " fill="#22BBD4" transform="translate(286,293)"/>
<path d="M0 0 C0.66 0.33 1.32 0.66 2 1 C1.01 1.33 0.02 1.66 -1 2 C-1 3.98 -1 5.96 -1 8 C-0.34 8 0.32 8 1 8 C0.67 9.32 0.34 10.64 0 12 C-1.32 12 -2.64 12 -4 12 C-4 11.34 -4 10.68 -4 10 C-8.62 10 -13.24 10 -18 10 C-18 9.67 -18 9.34 -18 9 C-13.05 9 -8.1 9 -3 9 C-3 6.69 -3 4.38 -3 2 C-2.01 1.34 -1.02 0.68 0 0 Z " fill="#2D1C08" transform="translate(260,171)"/>
<path d="M0 0 C0.33 0 0.66 0 1 0 C1.33 10.89 1.66 21.78 2 33 C3.32 33 4.64 33 6 33 C6 33.66 6 34.32 6 35 C3.03 35.495 3.03 35.495 0 36 C0 24.12 0 12.24 0 0 Z " fill="#2E6C76" transform="translate(256,270)"/>
<path d="M0 0 C0.33 0 0.66 0 1 0 C1.45654109 16.41011569 1.45654109 16.41011569 -1 22 C-3.66290859 24.18495064 -5.74787979 24.91595993 -9 26 C-9 25.34 -9 24.68 -9 24 C-8.02546875 23.65582031 -7.0509375 23.31164062 -6.046875 22.95703125 C-2.64600009 21.27957416 -2.64600009 21.27957416 -2.265625 17.63671875 C-2.26046875 16.33347656 -2.2553125 15.03023438 -2.25 13.6875 C-2.19000015 8.66251235 -1.83627648 4.69999337 0 0 Z " fill="#278D9E" transform="translate(315,268)"/>
<path d="M0 0 C0.309375 0.639375 0.61875 1.27875 0.9375 1.9375 C1.8345163 3.93610821 1.8345163 3.93610821 3 5 C3.07179964 6.51928038 3.08392007 8.04167482 3.0625 9.5625 C3.05347656 10.38878906 3.04445312 11.21507812 3.03515625 12.06640625 C3.01775391 13.02353516 3.01775391 13.02353516 3 14 C-3 8 -3 8 -3.25 5.625 C-3 3 -3 3 -1.5 1.1875 C-1.005 0.795625 -0.51 0.40375 0 0 Z " fill="#1D1D1F" transform="translate(180,262)"/>
<path d="M0 0 C4.77032364 0.36002443 7.25846164 1.16159159 11 4 C13.08333333 3.83333333 13.08333333 3.83333333 15 3 C15.99 2.67 16.98 2.34 18 2 C16.86695008 5.39914975 15.87481525 6.05254451 13 8 C8.33333333 5.66666667 3.66666667 3.33333333 -1 1 C-0.67 0.67 -0.34 0.34 0 0 Z " fill="#5597A2" transform="translate(238,303)"/>
<path d="M0 0 C1.53579241 4.60737722 -0.52024255 7.95991666 -2.1875 12.375 C-2.49236328 13.22578125 -2.79722656 14.0765625 -3.11132812 14.953125 C-4.84052521 19.60781904 -6.56833113 23.30201536 -10 27 C-9.36743278 23.10509172 -8.16637488 19.84801011 -6.5625 16.25 C-4.92626209 12.44621705 -3.61846005 8.87479865 -2.8125 4.8125 C-2.544375 3.554375 -2.27625 2.29625 -2 1 C-1.34 0.67 -0.68 0.34 0 0 Z " fill="#0BCEEF" transform="translate(318,234)"/>
<path d="M0 0 C-1.39851726 2.79703452 -3.13690964 2.86808055 -6 4 C-6.61875 4.515625 -7.2375 5.03125 -7.875 5.5625 C-10.79801642 7.53983464 -13.53519775 7.66684594 -17 8 C-17 7.34 -17 6.68 -17 6 C-16.030625 5.71125 -15.06125 5.4225 -14.0625 5.125 C-10.89335797 4.35785318 -10.89335797 4.35785318 -10 2 C-6.68902394 -0.20731737 -3.90590763 -0.17754126 0 0 Z " fill="#28C7E5" transform="translate(301,221)"/>
<path d="M0 0 C0.33 0.99 0.66 1.98 1 3 C0.67 3.66 0.34 4.32 0 5 C-0.99 5 -1.98 5 -3 5 C-3.33 11.93 -3.66 18.86 -4 26 C-4.66 26.33 -5.32 26.66 -6 27 C-5.91874075 23.76983274 -5.80593395 20.54150112 -5.6875 17.3125 C-5.66494141 16.40048828 -5.64238281 15.48847656 -5.61914062 14.54882812 C-5.36927211 8.30211519 -4.5433507 4.5433507 0 0 Z " fill="#27C0DC" transform="translate(271,236)"/>
<path d="M0 0 C4.66828714 0.49276364 7.65340387 2.62104789 11.25 5.4375 C11.79140625 5.84548828 12.3328125 6.25347656 12.890625 6.67382812 C16.8562405 9.712481 16.8562405 9.712481 18 12 C14.03132589 10.05657711 10.14583435 7.95916091 6.25 5.875 C5.55261719 5.50246094 4.85523438 5.12992188 4.13671875 4.74609375 C2.42422705 3.83120092 0.71207932 2.91566431 -1 2 C-0.67 1.34 -0.34 0.68 0 0 Z " fill="#313333" transform="translate(217,211)"/>
<path d="M0 0 C0.66 1.32 1.32 2.64 2 4 C2.66 3.67 3.32 3.34 4 3 C4 4.32 4 5.64 4 7 C2.02 7.33 0.04 7.66 -2 8 C-2.33 7.34 -2.66 6.68 -3 6 C-2.01 6 -1.02 6 0 6 C0 4.68 0 3.36 0 2 C-5.61 2 -11.22 2 -17 2 C-17 1.67 -17 1.34 -17 1 C-8.585 0.505 -8.585 0.505 0 0 Z " fill="#38393A" transform="translate(320,206)"/>
<path d="M0 0 C0.79664063 0.38478516 0.79664063 0.38478516 1.609375 0.77734375 C-0.58699603 2.97371478 -2.69899655 4.22218064 -5.390625 5.77734375 C-5.98875 6.14601562 -6.586875 6.5146875 -7.203125 6.89453125 C-8.89632806 7.9175081 -10.64148169 8.85326804 -12.390625 9.77734375 C-13.050625 9.44734375 -13.710625 9.11734375 -14.390625 8.77734375 C-12.48512904 7.24036352 -10.56838907 5.72343121 -8.640625 4.21484375 C-8.10179687 3.77720703 -7.56296875 3.33957031 -7.0078125 2.88867188 C-2.92568219 -0.27249001 -2.92568219 -0.27249001 0 0 Z " fill="#262628" transform="translate(280.390625,212.22265625)"/>
<path d="M0 0 C2.64 0 5.28 0 8 0 C4.94216092 2.40569331 1.77542004 4.36189615 -1.625 6.25 C-2.58664062 6.79140625 -3.54828125 7.3328125 -4.5390625 7.890625 C-5.75722656 8.43976563 -5.75722656 8.43976563 -7 9 C-7.66 8.67 -8.32 8.34 -9 8 C-8.67 7.01 -8.34 6.02 -8 5 C-7.21625 4.855625 -6.4325 4.71125 -5.625 4.5625 C-3.03578982 4.12201075 -3.03578982 4.12201075 -1 3 C-0.67 2.01 -0.34 1.02 0 0 Z " fill="#131414" transform="translate(273,207)"/>
<path d="M0 0 C1.69207001 0.9563874 3.36816893 1.94410931 5 3 C4.67 3.66 4.34 4.32 4 5 C2.01796291 4.38416344 0.0394228 3.75706166 -1.9375 3.125 C-3.03964844 2.77695313 -4.14179688 2.42890625 -5.27734375 2.0703125 C-8 1 -8 1 -9 -1 C-5.15153509 -2.28282164 -3.71755223 -1.48702089 0 0 Z " fill="#161616" transform="translate(293,170)"/>
<path d="M0 0 C1.32 0 2.64 0 4 0 C4.0825 1.11375 4.165 2.2275 4.25 3.375 C4.57873787 7.05753944 4.57873787 7.05753944 7.0625 8.4375 C7.701875 8.623125 8.34125 8.80875 9 9 C8.67 9.66 8.34 10.32 8 11 C1.29540481 7.04376368 1.29540481 7.04376368 0.0625 2.6875 C0.041875 1.800625 0.02125 0.91375 0 0 Z " fill="#0F292B" transform="translate(228,228)"/>
<path d="M0 0 C1.20366211 0.00483398 1.20366211 0.00483398 2.43164062 0.00976562 C3.68170898 0.02233398 3.68170898 0.02233398 4.95703125 0.03515625 C5.80201172 0.03966797 6.64699219 0.04417969 7.51757812 0.04882812 C9.6015928 0.06060222 11.68557102 0.07853735 13.76953125 0.09765625 C13.76953125 0.42765625 13.76953125 0.75765625 13.76953125 1.09765625 C7.16953125 1.75765625 0.56953125 2.41765625 -6.23046875 3.09765625 C-6.56046875 2.43765625 -6.89046875 1.77765625 -7.23046875 1.09765625 C-4.46481493 0.17577164 -2.84763173 -0.02019597 0 0 Z " fill="#B8BABC" transform="translate(306.23046875,207.90234375)"/>
<path d="M0 0 C2.64 0 5.28 0 8 0 C8 0.66 8 1.32 8 2 C11.3 2 14.6 2 18 2 C16.35 3.32 14.7 4.64 13 6 C11.58280758 5.37619308 10.1662694 4.7508997 8.75 4.125 C7.96109375 3.77695312 7.1721875 3.42890625 6.359375 3.0703125 C4.21131392 2.09586095 2.10170798 1.07013571 0 0 Z " fill="#3C95A2" transform="translate(288,292)"/>
<path d="M0 0 C0.33 1.32 0.66 2.64 1 4 C-3.625 7 -3.625 7 -7 7 C-7 7.66 -7 8.32 -7 9 C-8.98 9.33 -10.96 9.66 -13 10 C-9.46786925 7.09118644 -5.80487289 4.53658193 -2 2 C-1.34 1.34 -0.68 0.68 0 0 Z " fill="#01A9C9" transform="translate(235,284)"/>
<path d="M0 0 C1.65 0 3.3 0 5 0 C4.34 0.66 3.68 1.32 3 2 C2.60235737 3.98821313 2.26224651 5.98944339 2 8 C-1.63 8 -5.26 8 -9 8 C-9 7.67 -9 7.34 -9 7 C-6.03 7 -3.06 7 0 7 C0 4.69 0 2.38 0 0 Z " fill="#CA8B2A" transform="translate(255,171)"/>
<path d="M0 0 C1.32 0.66 2.64 1.32 4 2 C3.34 2 2.68 2 2 2 C1.67 3.32 1.34 4.64 1 6 C-1.31 6 -3.62 6 -6 6 C-4 4 -2 2 0 0 Z " fill="#292426" transform="translate(267,226)"/>
<path d="M0 0 C0.33 0 0.66 0 1 0 C1.35368021 7.12600133 0.95671348 12.47059106 -2 19 C-2.33 19 -2.66 19 -3 19 C-2.125 11.125 -2.125 11.125 -1 10 C-0.76712992 8.31816052 -0.58735834 6.6287584 -0.4375 4.9375 C-0.31181641 3.55884766 -0.31181641 3.55884766 -0.18359375 2.15234375 C-0.12300781 1.44207031 -0.06242187 0.73179687 0 0 Z " fill="#D99D3D" transform="translate(271,145)"/>
<path d="M0 0 C0.33 0 0.66 0 1 0 C1.33 1.65 1.66 3.3 2 5 C2.33 5 2.66 5 3 5 C3 8.3 3 11.6 3 15 C0.57418129 12.57418129 0.03644336 10.92566131 -0.09765625 7.51953125 C-0.08605469 6.62621094 -0.07445312 5.73289063 -0.0625 4.8125 C-0.05347656 3.91144531 -0.04445312 3.01039063 -0.03515625 2.08203125 C-0.02355469 1.39496094 -0.01195312 0.70789063 0 0 Z " fill="#BB7C20" transform="translate(226,146)"/>
<path d="M0 0 C0.33 0.66 0.66 1.32 1 2 C-1.45699392 4.63249349 -3.56568654 6.78137264 -7 8 C-7.99 7.67 -8.98 7.34 -10 7 C-6.7 4.69 -3.4 2.38 0 0 Z " fill="#21BCDB" transform="translate(282,228)"/>
<path d="M0 0 C0 2.64 0 5.28 0 8 C-1.65 6.35 -3.3 4.7 -5 3 C-2.25 0 -2.25 0 0 0 Z " fill="#252425" transform="translate(183,268)"/>
<path d="M0 0 C0.66 0.99 1.32 1.98 2 3 C1.21448343 4.31618998 0.4213763 5.62785228 -0.375 6.9375 C-0.81585938 7.66839844 -1.25671875 8.39929688 -1.7109375 9.15234375 C-3 11 -3 11 -5 12 C-3.68938409 7.76570244 -2.05643741 3.92592596 0 0 Z " fill="#03A4C4" transform="translate(312,253)"/>
<path d="M0 0 C-1.97420135 2.52259061 -2.96745642 2.9929808 -6.1875 3.6875 C-7.5796875 3.8421875 -7.5796875 3.8421875 -9 4 C-9 2.66666667 -9 1.33333333 -9 0 C-5.62182575 -0.84454356 -3.32534757 -1.10844919 0 0 Z " fill="#AAAAA9" transform="translate(302,209)"/>
<path d="M0 0 C0.33 0.66 0.66 1.32 1 2 C1.99 1.67 2.98 1.34 4 1 C3.67 1.99 3.34 2.98 3 4 C1.02 4.33 -0.96 4.66 -3 5 C-3.66 4.01 -4.32 3.02 -5 2 C-3.35 2 -1.7 2 0 2 C0 1.34 0 0.68 0 0 Z " fill="#09CEEC" transform="translate(251,273)"/>
<path d="M0 0 C3.63 0.33 7.26 0.66 11 1 C11 1.66 11 2.32 11 3 C11.99 3.33 12.98 3.66 14 4 C12 5 12 5 9.1796875 4.22265625 C8.08914062 3.83980469 6.99859375 3.45695313 5.875 3.0625 C4.77929688 2.68222656 3.68359375 2.30195313 2.5546875 1.91015625 C1.71164063 1.60980469 0.86859375 1.30945313 0 1 C0 0.67 0 0.34 0 0 Z " fill="#05414D" transform="translate(201,220)"/>
<path d="M0 0 C3.37503669 1.1858237 5.64722731 2.27573689 8 5 C5 6 5 6 3.17578125 5.22265625 C1.45052083 4.1484375 -0.27473958 3.07421875 -2 2 C-1.34 1.34 -0.68 0.68 0 0 Z " fill="#B2B0B1" transform="translate(221,217)"/>
<path d="M0 0 C0.99 0.33 1.98 0.66 3 1 C3 1.99 3 2.98 3 4 C1.02 4.66 -0.96 5.32 -3 6 C-1.125 1.125 -1.125 1.125 0 0 Z " fill="#A0A1A4" transform="translate(271,219)"/>
<path d="M0 0 C0.99 0.33 1.98 0.66 3 1 C3 1.99 3 2.98 3 4 C1.02 4.66 -0.96 5.32 -3 6 C-1.125 1.125 -1.125 1.125 0 0 Z " fill="#B6B6B8" transform="translate(276,216)"/>
<path d="M0 0 C3.96 1.98 3.96 1.98 8 4 C7.67 4.66 7.34 5.32 7 6 C3.75728494 5.4409112 2.06942576 4.5867822 0 2 C0 1.34 0 0.68 0 0 Z " fill="#171916" transform="translate(210,206)"/>
<path d="M0 0 C-0.33 0.99 -0.66 1.98 -1 3 C-1.99 3 -2.98 3 -4 3 C-4 3.66 -4 4.32 -4 5 C-4.99 5 -5.98 5 -7 5 C-7 6.65 -7 8.3 -7 10 C-7.33 10 -7.66 10 -8 10 C-8.375 7.25 -8.375 7.25 -8 4 C-3.15789474 0 -3.15789474 0 0 0 Z " fill="#231D17" transform="translate(267,169)"/>
<path d="M0 0 C0.33 0.99 0.66 1.98 1 3 C0.01 3.99 -0.98 4.98 -2 6 C-2.33 5.01 -2.66 4.02 -3 3 C-2.01 2.01 -1.02 1.02 0 0 Z M-4 4 C-4 4.99 -4 5.98 -4 7 C-4.99 7 -5.98 7 -7 7 C-6.01 6.01 -5.02 5.02 -4 4 Z " fill="#222222" transform="translate(269,113)"/>
<path d="M0 0 C3 4 3 4 2.8125 6.6875 C2 9 2 9 0 10 C0 6.7 0 3.4 0 0 Z " fill="#0BD1F9" transform="translate(267,244)"/>
<path d="M0 0 C0.99 0 1.98 0 3 0 C2.40138258 2.35171131 1.73075648 4.6859378 1 7 C0.01 7.495 0.01 7.495 -1 8 C-1.125 2.25 -1.125 2.25 0 0 Z " fill="#151E19" transform="translate(263,236)"/>
<path d="M0 0 C4.43090471 1.20842856 6.98112756 2.51668565 10 6 C8.5164999 5.57742724 7.03823576 5.13643678 5.5625 4.6875 C4.73878906 4.44386719 3.91507813 4.20023438 3.06640625 3.94921875 C2.04353516 3.47935547 2.04353516 3.47935547 1 3 C0.67 2.01 0.34 1.02 0 0 Z " fill="#1DBEDD" transform="translate(219,228)"/>
<path d="M0 0 C0.99 0.66 1.98 1.32 3 2 C3 2.66 3 3.32 3 4 C1.125 4.625 1.125 4.625 -1 5 C-1.66 4.34 -2.32 3.68 -3 3 C-3 2.34 -3 1.68 -3 1 C-2.01 0.67 -1.02 0.34 0 0 Z " fill="#A9A9A9" transform="translate(280,214)"/>
<path d="M0 0 C0.33 0.99 0.66 1.98 1 3 C1.99 2.67 2.98 2.34 4 2 C4 3.32 4 4.64 4 6 C2.68 6.33 1.36 6.66 0 7 C0 4.69 0 2.38 0 0 Z " fill="#102123" transform="translate(257,297)"/>
<path d="M0 0 C-2 2 -4 4 -6 6 C-6 4.02 -6 2.04 -6 0 C-3 -1 -3 -1 0 0 Z " fill="#282929" transform="translate(323,271)"/>
<path d="M0 0 C0 0.99 0 1.98 0 3 C-1.96466413 4.06775224 -3.96855359 5.06553465 -6 6 C-6.66 5.67 -7.32 5.34 -8 5 C-2.25 0 -2.25 0 0 0 Z " fill="#37383B" transform="translate(274,216)"/>
<path d="M0 0 C1.98 0 3.96 0 6 0 C5.34 1.32 4.68 2.64 4 4 C2.68 2.68 1.36 1.36 0 0 Z " fill="#131313" transform="translate(246,202)"/>
<path d="" fill="#000000" transform="translate(0,0)"/>
</svg>
